<mxfile host="app.diagrams.net" modified="2021-10-21T09:23:51.728Z" agent="5.0 (Windows NT 10.0; Win64; x64) AppleWebKit/537.36 (KHTML, like Gecko) Chrome/94.0.4606.81 Safari/537.36" etag="sqP6YMaHFXQ44fBkd72R" version="15.5.5" type="github">
  <diagram id="QtWWgYvrMgOXeUdixoOA" name="Page-1">
    <mxGraphModel dx="1317" dy="642" grid="1" gridSize="10" guides="1" tooltips="1" connect="1" arrows="1" fold="1" page="1" pageScale="1" pageWidth="827" pageHeight="1169" math="0" shadow="0">
      <root>
        <mxCell id="0" />
        <mxCell id="1" parent="0" />
        <mxCell id="zyXjHvI1NbI1ozkS3pf7-28" value="" style="rounded=1;whiteSpace=wrap;html=1;fillColor=none;" parent="1" vertex="1">
          <mxGeometry x="12.81" y="653.56" width="797.19" height="176.44" as="geometry" />
        </mxCell>
        <mxCell id="zyXjHvI1NbI1ozkS3pf7-45" value="" style="rounded=1;whiteSpace=wrap;html=1;fillColor=none;" parent="1" vertex="1">
          <mxGeometry x="10" y="500" width="800" height="150" as="geometry" />
        </mxCell>
        <mxCell id="zyXjHvI1NbI1ozkS3pf7-2" value="" style="rounded=1;whiteSpace=wrap;html=1;fillColor=#dae8fc;strokeColor=none;" parent="1" vertex="1">
          <mxGeometry x="81.19" y="704.5600000000001" width="110" height="30" as="geometry" />
        </mxCell>
        <mxCell id="zyXjHvI1NbI1ozkS3pf7-4" value="" style="rounded=1;whiteSpace=wrap;html=1;fillColor=#dae8fc;strokeColor=none;" parent="1" vertex="1">
          <mxGeometry x="81.19" y="777.5600000000001" width="111" height="30" as="geometry" />
        </mxCell>
        <mxCell id="zyXjHvI1NbI1ozkS3pf7-5" value="" style="rounded=1;whiteSpace=wrap;html=1;rotation=90;fillColor=#dae8fc;strokeColor=none;" parent="1" vertex="1">
          <mxGeometry x="139.94" y="736.8100000000001" width="102.5" height="40" as="geometry" />
        </mxCell>
        <mxCell id="zyXjHvI1NbI1ozkS3pf7-6" value="" style="shape=image;verticalLabelPosition=bottom;labelBackgroundColor=#ffffff;verticalAlign=top;aspect=fixed;imageAspect=0;image=data:image/png,iVBORw0KGgoAAAANSUhEUgAABDsAAAMHCAYAAAA3rFx6AAAgAElEQVR4nOzdW6xk2Xkf9q/OZbpnhpfmRaJFilTTURLALzPMQ/zgQJpB/JK8aBgEyKNmgABOnrhLRh6MBKCYIAgSOKjNPOWNTSRAhBgwR4BjJIgUNm1FjpVIbJoGbcmy2bQomhRvTQ5nprvPpYI9Wpv8ZnFX9zl96rKr6vcDNs45VXV2rX053Wf9z7fWCgAAAAAAAAAAAAAAAAAAAAAAAAAAAAAAAAAAAAAAAAAAAAAAAAAAAAAAAAAAAAAAAAAAAAAAAAAAAAAAAAAAAAAAAAAAAAAAAAAAAAAAAAAAAAAAAAAAAAAAAAAAAAAAAAAAAAAAAAAAAAAAAAAAAAAAAAAAAAAAAAAAAAAAAAAAAAAAAAAAAAAAAAAAAADYewAAAAAAAAAAAAAAAAAAAAAAAAAAAAAAAAAAAAAAAAAAAAAAAAAAAAAAAAAAAAAAAAAAAAAAAAAAAAAAAAAAAAAAAAAAAAAAAAAAAAAAAAAAAAAAAAAAAAAAAAAAAAAAAAAAAAAAAAAAAAAAAAAAAAAAAAAAAAAAAAAAAAAAAAAAAAAAAAAAAAAAAAAAAAAAAAAAAAAAAAAAAAAAAAAAAAAAAAAAAAAAAAAAAAAAAAAAAAAAAAAAAAAAAAAAAAAAAAAAAAAAAAAAAAAAAAAAAAAAAAAAAAAAAAAAAAAAAAAAAAAAAAAAAAAAAAAAAAAAAAAAAAAAAAAAAAAAAAAAAAAAAAAAAAAAAAAAAAAAAAAAAAAAAAAAAAAAAAAAAAAAAAAAAAAAAAAAAAAAAAAAAAAAAAAAAAAAAAAAAAAAAAAAAAAAAAAAAAAAAAAAAAAAAAAAAAAAAAAAAAAAAAAAAAAAAAAAAAAAAAAAAAAAAAAAAAAAAAAAAAAAAAAAAAAAAAAAAAAAAAAAAAAAAAAAAAAAAAAAAAAAAAAAAAAAAAAAAAAAAAAAAAAAAAAAAAAAAAAAAAAAAAAAAAAAAAAAAAAAAAAAAAAAAAAAAAAAAAAAAAAAAAAAAAAAAAAAAAAAAAAAAAAAAAAAAAAAAAAAAAAAAAAAAAAAAAAAAAAAAAAAAAAAAAAAAAAAAAAAAAAAAAAAAAAAAAAAAAAAAAAAAAAAAAAAAAAAAAAAAAAAAAAAAAAAAAAAAAAAAAAAAAAAAAAAAAAAAAAAAAAAAAAAAAAAAAAAAAAAAAAAAAAAAAAAAAAAAAAAAAAAAAAAAAAAAAAAAAAAAAAAAAAAAAAAAAAAAAAAAAAAAAAAAAAAAAAAAAAAAAAAAAAAAAAAAAAAAAAAAAAAAAAAAAAAAAAAAAAAAAAAAAAAAAAAAAAAAAAAAAAAAAAAAAAAAAAAAAAAAAAAAAAAAAAAAAAAAAAAAAAAAAAAAAAAAAAAAAAAAAAAAAAAwE9MnIvla5rmovusz//jrkf3/HwFTc77nAw8dtl9XGU/O6Ft23087J12iZ/rtVn2fTZ0jO5lAGAXzOd72S25kMnkz7tujztH/eu2xdFWtXb79XfHJG0HZZukj/3r+ud68+rzSfUxPx7psX4f/b7P0+vy1/NqP7Hgsex84D3q1w1931DAMmTRsdXnoW5z/R7zKwQy9XnuPx4MvMdbUqfxMv+qrvVfYJ3Ypco/sxFv/9nuf64P02vyz1v/83dWPu9/pt762LbtRv9nvkzI454CAMaq66gLPIbt6nlR2bECVecgBxx9p+cobU9FxHFEXCvbcXndtfKaOpQYCiu615+mTtRBeU0dnhxVr5mnjtVp2rrHT1LHK79ukh4/Lx24vhPXd9h65+nxyYLAIVJ78nnKIcqkasO8emw+0HmM8vGsHEt/3vv9nz0imKmDm3wOD6vvOU/nPwbasmgbave8urbxiECmblv9+kn1uqj286gwayhUG3p8qF1LNabO80CnPwcck/SzcFx+rvut+1m+Xu6//jX53nxQtvvl48NyP52V7a1rtI7Q4wmqVx5VnbaovZc6DgEKALBMAo8np7KDIQelg3NQOkJdx+fpiHg2It5Rthvl4/Xy+HHZjqoAIHduz1NocVSFD2fp+h6m54/S4zkweFA6Xqels/WgPHdanj9NIUAfhlwvj50s6PT3n/edwdOqk36ejm2e2po7j3148lR5n3nqANbBzFl6j5NyHGfpXJ5V7cqhzUHVjvwX+f7ro9SufNyT9P4Pqvc4SyHSWbXlDu/D8vrj9N45wOrbVVf91B3tw9S++phO0/U+TZUEuW1RVRjkACt/fVaFd/n5qAKY/r45qkKYfK3r4OCtY26apg/SsjosOk3n8qz6Ot8vdfXSVU2q4zhO4cazA9u18nyk694FHK9FxBsR8aOy3U8/g5P+uJqmmWy6yqMYqlCrn+s9LkgDAFgrFR77Q9ixWpMUdPRVHF1A8K4SbLy/bO8r23vKc0+X112vyt8nKbToOxVPlc7dYdW5Paw6wznkyKFFpI5tHw7cT53gSB3Gg9QRzvvuO5N9ABDpfc5SNUT//HHqsOaKj7rt9XCfs9TJzR30PgR5mDuHEfFm6XBG+mv5QelE9u91ks5xfq9JdQ4P02tqOfR4UAUt/fveT2HSSTrfb5avj8r1frggbJhX5zyqCqE+jLmW7rfjFFTkQOZ+CrVOU6f7NL3/aTqm/jgelvd5R+rUn6T7qW9vrkjqA47j6ufgKFUvHaR7/KC63odV+/s25WCuP7dvlO31FBpcL/t4diCAy9f3KFVe5J+5XLVUV1Tle6Wv3Mg/u+9Moeb1ctz9/h6WNndt/WHa7qXQ47Vyf7zZByBN0zysgqrzKsBZ+D/3kiokJgu2XA2V5X9j6gqmocoqAICVqysUhB+7yTCWFSil4JOBjtTTpQPUVXH8bNk+FBEfSMHHu1Jn8qjq+EfV0YjUscxzewzNETA03CFXWPQ/4SepM3KawpX+e06rTt5QZ+Y4dcYm6etJ1eGph7b05+s8HVdUbT6vOp45kDlJn5+ldp5W35OH2vT7zJ3cs9IR758/WtAxGxqGkqs4cqDwIFXQzFNI03XOnyn7v5/ClwfpvPZhx2G6zofp3B6lMOGp1N5c3XGS2vggBS19BcFp+fo0BQmT9NxZaeeNdD77+ylXhBxU98ZTA0OInkk/F8dVZUq+ByYD90n/Xqcp0Lpfti4g+H753g9GxM+kQOak6pBfS+/1jnTucgAzSec4qvsm3zvX0/17mCqJJtXPcB0K9aFY/rl5mI7nzXJ/PCzH9iBtJwMVLDFwjy7b0L9Di4ZS1UOlhqpr/GYBAKxL/7t498elb5ftm+X3xzfSHySHfj9567HZbLbXv7sYxkKt7+Qcp/L2d5cqjg+U7SMl+HhPee44dZKiqiioS8YPUocwFnQ6hgKOLHc8nq7CjbrDkocb1MFF/9x59XX9Xov+olu//iLtPU8BRZ6r47B6bR22HFad9hyu1OFSbs+kOua645a3PFTlrOqYnqfO88HA8yfVvvOQn37Oh35IxNDQlUnV3kjnp6486cOAPoh5kL6vr0B5Z+r0986q+y/P45LPZaR2H6RgZpJCj6NUyVGf1/7c53N3ntr+sPwH9VqpkPpQOp48VCmHMdfSe/UVVH3AlQOK8yq8iXSskY4hX5uoji+q+ymfm0XVQgAArEaeN60LPv5lRPxxRPyrUm17P/0xOf9R6fXpdPonEfGHEfFns9nsgeszbn7JXoGqsuOpNE/Hu0pn7INl+0jZ+uqOGyVsOE6dyIOq01pPMJrVHfOhoOAihgKJurNX73tRylm/5lGl65PqdUPqfdR/RY5qmM9QOPGo97nKecvHWX+cVIFM3Y6onutDg4fptYfV99ad6Xobeo88jCAHMXmIUF0pcFBVEC3ab32+5wOd/Xz/1oFAPo76mkW139z2PvB4X/nZqY8r0j2R562Zp6CoP7d57puhn4FIAUg+7voY6vMU1fMAAIzDWVU1m39nq38n7QKOr0fE70TE/xYRvxcRP9iXio9tq+zwS/cKlLCjnrTwmTJM5T0l3PhoRNws24fK4+9M5fVDHfqLhAEsdpFqklXK77+oEz1UQbCojU/akV5UiZIrTHJYMlTdkve1KMCqA5Co9lnvNwZeH4/4PM9ZcZwCi/NHHGOe8DRXnTwuKFwU/tUB0FCoBgDA7uirsH8QEf8kIj5Xtq/PZrN62PNOEXbQhR15zox++cmuquO9adjKv1aCju7zv5CqOuoVK+rAg932qEBmKCC5qkel0Fd9v6EKkMsGdkOvq6tJDhaco/rreVWRcdEQ6XHVQAAA7Kd5GfbylYj4jYj4W7scemxb2HFwgddwefV8A4dp4sJ+dYZnysSIz5QhLscL5uao/wLObhsajhLVvbDM+2EycK/lITJDc4BcdDsY2FfETz/3qG3odY9aIac+R/X35eE0i4576BwNfQ4AwH6blP7dxyLib3QL4EXEvzedTp/Z9xMzBsKO1RnqmPWTlOblKK9Xqz+EcIMNWNc9t857e1FwJLwAAGCZDkoV/78fEf9NRPzadDr9eWd4s4Qdq5PH9PcTIj6Vlre8lio68nwDOl8AAADbp+vr/aWI+GsR8cnpdPrcdDrVv9sQYcdq1StOHKfA46kUdBw8ooQeAACA7XBQFqD4DyPiv4+IX5lOp0+5dusn7FideVU2/1SasLQPPY4eM1cAAAAA22VSFqD4K2VYy8vT6fS6a7hewo7VqZfuPEpVHoep6qNe9hIAAIDt1wUc/2ZE/HpE/CfbEHjs0rAbYcdq1DfIJM3dcZyCj8NqKUwAAAB2R9cX/LmI+OulwmPUQ1pms9nO9EuFHavV3SjnA8vQ5mUwzdcBAACw27p5PP6ziPiPptPpoWu9esKO1ZhXAUcfepxFxGn1vIoOAACA3db9cftmRPyNiHhxrMNFDGPhMs5LwNFt9yPiYdpOU+XHfCAkAQAAYDd0/e9/IyL+i4j4i2M8IsNYuKjzVNFxv2yvRcQPI+JHEfFGeeykvOY8bcIPAACA3dINYfnLEfGfT6fTd7q2qyPsWI08V0cfdLxego7vR8R3I+JbZftORNwrz/fBx2kKP4QeAAAAu6NbleU/iIi/Np1OR9Un36VhLEcjaMMu6ys1TkqQca+sxpInpOmCjQcR8Z6IeEdEPFVu/uO0WsvQ8rQmNAUAANhO746I/zQi/l5E/N6IjmCyK39oV9mxOvNU2dFXd/ywVHJ8IyK+GhH/NCK+EhF/GBF/HBF/EhHfjojvlSqQfo6P02p4S6j2AAAA2Gof6QKP6XT6zIgOYj6dTneiKEJlxwq0bdvv9K2wo2masxJavF6CjK+Vqo3jUsXxdKnseG9E/GxEfDAiPlw+fiAino+IZ6uKkFhx6rauypGrtF91CwAAsK26/vi/GxH/dkTcHtExnI+gDVemsmP9JmXrh6cclqErXfDxTBnK0pU03YiI90XE+0tI8qOyvV62Nxds99PWv+aNMlSm//yNNDlq3h6U7WTg8ftpH0Pv87jQoq5IWUZliuoWAABgm/1cRPzH0+n0+kiOYTKbzXYi7FDZsX65GmGSAo+jqtLj2bI9U76+Vl6bg4Jc2dHfkDnA6ofRHJWhMJG+9yC1YZ7mBclBTG5n/725uuSgep+ojm9evfZ84LH6WPrHztO+8j774+zbkV879LqDgWMEAAAYg66v9lcj4t+KiN/ddHt2JegIHb/xaJrmYxFxMyI+VMZu9Z9/oFR79MHUaerIT1JYcFaFBTkEyAFCpDDjuOz3MG391/P0HpPqvergoA5Qompj/v6hEGNRYDGv2p+DkkXBxtD71+ekDj3qNtXtmTxmn/PqdfmxqIKe/NjQ+fAzCQAA+6WrlP+vIuK/m81mZ2M98slku7oqKjtGom3bL0bEF8fcxqZpPl/WhD6uAoze+cDQqPlACBCpsz+pXhPl8zrQiSqAqZ+LBY/V31+373wggKjfozY0fKY+hv6xw+q1+ZiHjn8+EBTFwDFMBl4bA+3qj/e8+v4c/hymfQwFNfPqvIx5+NvQdQAAgDE7K/M3PlMWqmAJhB1cWNu2L479bDVN81sR8UsLnh6qdsmP1aFK7uDXVRg5POg72GcDgUFOZs+r8GEoBKnff6iCpH7vXv9criIZam+uNKmrdY4Hhhrlc5OHLtXnKLcjBz11yDVJ718PpxoKkfLx1BU68+r6HKT99kPE6rYBAMDYdFMXvFPYsTzCDnZK27Z/dezH0zTNr0XEtKzAkzv7UYUZkQKLoSDgvOr894+dVa+tx93Nq1DkvAyPmpePT5etb1sfUBxVc7rUw4cOUyB0WCa6PayCjfOB0CIGjvGs+jgfCGgmaX/nA5U5uX35vc6qY89BUFQBSpaPM4cph+nzPPfNowK0SOfyqAqmAADYL93vgz9TFqf4hmu/HH65Bn5K0zS/GBEvRcS/ExE/XybLPSoT6B6lQGOehsEcpkqK3NnPlRy5cqSePyUHIGcpiDgpz59U1TLnCypfsvnAvudlH3XoMa9elytHcjsPqjluhua+edTwp6FwJUp7TtNqSN3qSz+IiO9ExDfL1v3n9+2y3SurKr1ZVkrKx/M2aTlslqRpml+PiE9ecm8vtm270mXlynDDFy75bStvF1xU0zSz7sOaTljbtu10WTtrmuan/v0FuKDu97gvRcR/HRG/OdZ5O8zZAWy9tm3/OCL+ZtkurGne9vvpQQpFjsoSy9dLed67SnLdbT9bJuJ9T3nuegpSTtP2sHzed+yvl7GN/fjGg4HqjrrKJYccp+nzsyrs6NVzleQKl6OyStJh+nhUtnoS3KFAZV6FLWcl6HiYlpv+fgk7uu1bEfHd8tiPUshxOtBugG112bDuKj69rB01TfO8Ow64gu73yF8of2j8QvmdjysSdgCrkqs6+nDhYemkH6ZhLSflse+mpZbr73uQqh5OUzgQA3OT9K97UPb7ZgkHXi9b/9jDFHicDVRa/JjKCIDVa5qmW4luXaHBnbZt7y5xfzeWuC9gP90ocw/+xnQ6/d5sNvOHrCsSdgCrVM/BMSlBQ6RhG92QjR+WoONaqQA5SAFEH16cpCqP+YIhG/0QkYepSuJB+Xi/fOyfO3tERQcA6/fSGt9xaVUdAEvSV3f8pYj4/WqhA56AsGMF5vM/7zNt25gmWLIfBwht256luSgAYMgvr/GsvOoKACPUDdP+aJkTTthxRQcr3TsAAFzMuubreLVt23uuCTBCXTHCh8viAFyRyo4VUuHBvjG3BQBPommaF9Y478VvukjASHUVHf96mbjfJKVXpLIDAIBNW+cqLIawAGN1WCo7PuwKXZ2wAwCATVvXfB2GsABj966I+Mh0OtVXvyInEACATVtXZccXXGlg5Lrqjndvqq8+nU53Zg4GYQcAABtT5utYl1UNYVnXfCPAfjDp4xIIOwAA2KR1hR1327a9u6J9P7+i/QL7pws6zrv1LjZ05DsTtFiNZYv1q71kVn4BALbM2ubrcGMAW6Dr0N13oa5O2LEGQ6HEZXQBxlX3AQAwUuuqijBfB7ANTiLiNZUdV2cYyxa4TNDRvXYTGwDAZTVN8/wa57u47QIBW+Bs02HHrkxSqrKDpdiGwMMQHwAYnXVVddxZ8ZKz6xqKA+y+rrLjjQ0e5cGG5wxZGpUdAABsynNrel9VHcC26ProD2ez2abChoNdKYpQ2cHeMNzm4lTBALAm5usAeLt5qazYlK4jcLgL10TYAfyURcGQEASAJVtX2LHqyo51LZ8L7L75CIaQ7EROYBgLAABr1zTNzTVNTnp3xfN1AOySk11ZkUXYAQDAJtxc03veWeXOm6ZZ12oywH7Y6DCW2Wx2uuEJUpdG2AEAwCasa+jHl1a8/3UNxQH2w8YnGiyBx9YTdgAAsAm/sKb3tBILsE300ZfEiQQAYBPWNYzl7or3b3JSYJnGMEHpThB2AACwCesY/nGvbdtVhx0Ay2T5wyURdgAAsAnrmNhzpZOTFs+t4T2A/XLmel+dsAMAgLVqmmZdk3quo6rDaizAMp2W5V+5ImEHAADrtq6A4GtreA9zdgDL9DAifuSMXp2wAwCAdVtXZcdKh7E0TaOqA1i27wg7lkPYAQDAuq0rJLi34v2vK7QB9kM3hOXrpbqDKxJ2AACwbu9ex/u1bXt7xW+xruVzgf3QzdXxp+bsWA5hBwAA67YrFRHCDmCZulVYvlsqPLgiYQcAALtoHcvO/rI7B1ii8zL87nwsJ3U6nW5tZiDsAABg3dYxZ8eq5+sIlR3AknWVHX82prAjIp6aTqfvH0E7Lk3YAQDAum39MJayEouwA1imbgjLP5/NZmMKO44j4sXpdHo8grZcirADAIBdtOphLFZiAZapq+r452WC0jEZ3dCaixJ2AACwi36w4mMSdgDLdD8i/iAivjeys9qFHH84m83ORtCWSxF2AADA5T3nnAFL9J2I+P8i4sHITmoXdnxrBO24tKMtay8AAFusaZpdqYh4YQRtAHZDP4Tln85ms/nIjuhsG4ewhLADAIA1W8dKLLHKOTtMTgos2f1S1fH1EZ7YsxEGMBdiGAsAALtolUvPmq8DWKZuFZbfj4g3nNXlEXYAAMDlGMICLMtZqej4F7PZ7HRsZ3VbqzpC2AEAAJf2y04ZsCRdwPEnEfFNJ3S5hB0AAHA5KjuAZTkrQceql8veO8IOAAC4oKZpBB3AMnVhxzci4sRZXS5hBwAAXJywA1imbhjL18pHlkjYAQAAF2e+DmCZupVY/mWp8GCJhB0AAHABTdPcUNkBLFEXcNyNiH+1zauejJWwAwAALkbQASzT/Yj4g4j4nrO6fMIOAAB20c0VHNOvuFOAJfpORPy/EfGGk7p8R7t2QACwxz4bEV+45OHfdcOwTm3b3m6aZh3vuIqwQ2UHsCzdEJavRsRXzNexGsIOANgRbdveci1hNZqmeX5FAQqwn7ohLL8XEX9qvo7VMIwFAAAe71edI2CJvlPCjted1NUQdgAAsIueW/IxveQuAZakX4XlnxnCsjrCDgAA1u3OGt7vxrJ2ZAgLsGQnEfGHlpxdLWEHAADrdm/LzrghLMAydfN1/PEW/lu4VYQdAADsomWunGIIC7BM98sQllNndXWEHQAArNvWLHlsCAuwAq9FxB8ZwrJawg4AANbta+t4vxJUXNUn3B3AEnUBx59GxNed1NUSdgAAsG7rGqe+jElKDWEBlulBRPw9S86unrADAIB1W8dqLHHVeTuapnl5mau6AHtvXobxfW42m1lydsWEHQAA7Kp3X/G4rMICLFNX1fG/R8Q/cVZXT9gBAMBatW17e03v98RzdjRNc3PJK7oA+21e5un4WxHxcN9PxjoIOwAA2IR1zNtxlQlKTUwKLNObEfEPIuLLVmFZD2EHAACbsI55O240TXPpOTfK97y8miYBe6gLN74REX8nIn7kBlgPYQcAAJtwd03v+STVHS+ZmBRYom6ujt+NiN9R1bE+wg4AADbha2t6zyeZd+OTK2gHsJ+6cOObparj2+6B9RF2AACwCeuapPS5y7y4LDd7c3XNAfZMt8Ts70fE781msxMXf32EHQAAbMJYh7GYmBRYph+W5Wa/6ayul7ADAIC1a9t2XWHHzbKM7GM1TfPCFVdwAcjmJdj9+5abXT9hBwAAm7KuoSwXnbfDXB3AMnXDVv6fiPiTbZ+YdDKZjKAVlyPsAABgU9ax/GznVx/3glLV8SSTmQIs0g1h+e2yGsvW2sagI4QdAABs0JfW9NYvXGAoi6oOYJm6So6vR8SXZ7PZmTO7fsIOAAA2ZV2VHfGoiUfLCiyqOoBl6gKOfxQR39rms7qtVR0h7AAAYFPatu3CjntrevuXm6a5seA5VR3Asv2oTEz65rae2W0OOjpHI2gDAGybu08wseK6OnSwbbqfpZfW0OYu6JhFxCv5waZpmm7FFncNsETdEJavRsT/HRGn23hitz3o6Gz/EYzQfL7VE+3CQrvwjx4A41LChtkaG/Vi27ZvhZWl0uOrJQgBWJY3IuJ/iIj/cjabbV1lx678zm8YCwAAm7Su5Wd7szSc5ZOCDmDJurk6vhIRfzsi7ju5m+PPtCugsoNdpbIDgFVomuarax5KcisiPh0RX3RBgSX7dkT8jxHx385ms9e37eTu0u/7KjsAANi0V9f8/t3qK5931YEl66o6/igi/s8ylGWr7NofNoUdAABs2mc38P6GrwDL1gUcX4iIL89ms60q99/FCm5hBwAAG1WWoL3jKgBbrAs3/jQifjsifrgth9GFHLs6VF3YAQDAGHzaVQC22IOI+PsR8Y9ms9m5C7l5wg4AAMagm7fjnisBbKGuquNuRPxGRHxvW5q/64sPCDsAANi4tm3vqe4AttRrEfF3I+IfbEtVxz6ssijsAABgLFrVHcCW6cKNL0fE/zKbzd7chqbvQ9ARwg4AAMZCdQewhb4TEf/ztkyyvC9BRwg7AAAYGdUdwLY4iYh/GBF/OyLOxt7mfQo6QtgBAMCYlOqOT7kowBboJiP9XyPiu7PZbL7s5k6n06X11/ct6AhhBwAAY9O2bbstJeHA3noYEf84Im7PZrOlV3VMp9OjssrLlXQhxz4GHSHsAABgpKYuDDBiXRXa/xUR31xRE8+vWi2yryFHb7+PfkXm86VXMMEo7Ps/mACsV9M0s+6D0w6MTLcCyx9ExCdms9nvjvXi7Pvv7io7AAAYpbZtp4azACP0oPzb9JUxNm6fh65kwg4AAMbsFauzACPTLTf7WxHxg7E1TMjxE8IOAABGq23bO+bvAEakm5i0G7ryO6tYgeUqBB1vJ+wAAGDU2ra91X1wlYAN68KNb0TEqxHxrbFcDMNWhgk7AAAYvTJ/xy1XCtigbonZ3+8qO2az2ekYLoSQYzFhBwAAW6Ft21dMWAps0GsR8XfHUNWhmuPxhB0AAGyTFwUewAZ0Q1j+WUTcLvN2MHLCDgAAtkbbtvcEHsAGvB4Rfycivr7JiUlVdFycsAMAgK2SAg9zeADr0M3P8eWI+NxsNttYVYeQ48uATDEAACAASURBVHKOtqmxAAAQPwk8XmmapvvyZScFWKHvR8T/UYaxrJ2Q48mo7AAAYGuVSUtfcQWBFelWYPmjiPjtTczVIeh4csIOAAC2Wtu23XCWj0XEXVcSWLI3IuJ3IuIfr3uuDkHH1Qg7AADYem3b3imBx6uuJrAkXbjxzRJ2vLbOkyrouDpncAXm841Nzgsr5R9dALZB0zQvRcRnIuKGCwZcwWmZq+PXZrPZH636RPpde7lUdgAAsFPatu2qOz7aferKAlfQDWH5n1Y9RM5ysqvhjK6Ayg52lX+EAdg2TdPcLFUeL7h4wCV8vJuUtG3bt4avrKqP5/fr1XFmV0DYwa7yjzEA26ppmi7s+KTQA7iAV9u2/Xh+2bL7eH6vXj3DWAAA2Hlt295u2/bFMrzllisOPMJn81PLDDoMWVkfZ3kFVHawq/zDDMCuaJqmm7y0m8j0ExHxvAsLFHfbtv1oPhlX7d/5HXoznPUVEHawq/xDDcAuKvN6dMHHL5ePwP76VNu2v56P/ir9O78/b44zvwLCDnaVf6wB2Adlfo9ue65Ufdx04WFvfLRt27etvvIk/Tu/N2+eK7ACwg52lX+0AdhXJQCJEn7ccCPAWjy35mqrW23bvjL0xGX6eH5nHgdXYQWEHewq/3ADALAuTdN8fs0rKL3YTWa86MlH9fP8njw+rsgKCDvYVf4RBwBgHZqm6aqovrjGk/1TE5MOqft6fj8er6N9PwEAAACMzifW3KBPXeRFwo3tcbDvJwAAAIDxKCskvbzGBt2LiFfdArtF2AEAAMCYfHLNbekmJr3nDtgtwg4AAABGYQNVHZ1Pu/q7R9gBAADAWGyiquOuq797hB0AAABs3IaqOj7ryu8mYQcAAABjsO6qjttt29525XeTsAMAAICNaprmeXN1sEzCDgAAADZttub3v9u2reVmd5iwAwAAgI1pmuaFiHhhze//KVd8twk7AAAA2KR1z9XRVXXccsV3m7ADAACAjWia5mVVHayCsAMAAIBNWXdVx72IMFfHHhB2AAAAsHZN0zQRcXPN7/vptm3vudq7T9gBAADAWjVNc2NDVR2tK70fhB0AAACsWxd03Fjze6rq2CPCDgAAANamaZpu6Eqz5jOuqmPPCDsAAABYp89s4Gyr6tgzk30/Aaswn89376Cg+wdj4p8MAACeXNM0L0XE59Z8Cu+2bftRl22/qOwAAABg5cqkpLMNnOlPubr7R9gBAADAOmxiqdmuquOWq7t/hB0AAACsVJmUdN1LzYaqjv0l7AAAAGDVNjEp6W1VHftL2AEAAMDKNE3zckS8sIEzrKpjj1laYQWsxsKushoLAACXUSYl/WpE3FjzieuqOl50sfaXyg4AAABW5TMbCDo6r7ii+03YAQAAwNI1TdMNXXlpA2f2Vtu2d13R/SbsAAAAYKnK8JVNTEp6LyKmribCDgAAAJatW2b25gbO6qfbtr3namK2wRUwQSm7ygSlAAA8Thm+8vkNnKi7bdt+1AUiVHYAAACwLBscvhKGr5AJOwAAAFiWTQ1f6ZaafdVVpCfsAAAA4MqapulWXmk2dCYtNcvbCDsAAAC4kg0PX/mUpWapCTsAAAC4qi7ouLGBs9iFHK2rR03YAQAAwBNrmqYbuvLShs7g1FKzDLGO5ApYepZdZelZAACypmmeL8vMbqKq49W2bT/ugjBEZQcAAABPalPDV+5ZapZHEXYAAABwaU3TzCLi+Q2dOZOS8khq0lfAMBZ2lWEsAADET5aZ/dyGTsbttm1fdCF4FJUdAAAAXFjTNDc3uMxsGL7CRQg7AAAAuIzPbWiejijDV+64WjyOmvQVMIyFXWUYCwDAfivzdDQbOgl32rb92L5fAy5GZQcAAACP1TTNyxsMOjqvuEpclLADAACAR2qaplt1ZbbBs2T4CpeiJn0FDGNhVxnGAgCwf5qm6ebn+GJE3NzQwRu+wqWp7AAAAOBRPrfBoCMMX+FJCDsAAAAYVCYkfWGDZ2dq+ApPQk36ChjGwq4yjAUAYH+UCUk/s8EDvt227YtuOZ6Eyg4AAADeZgQTkt4zfIWrEHYAAADwY2VC0s9HxI0NnpVX2ra966rwpIQdAAAAvGUkQcettm1fdUW4CmEHAAAAvW6Ojuc3eDa6yUinrgZXJewAAACgq+rogo6XNnwmuuEr91wNrkrYAQAAsOfKyisvb/gsWGaWpbGO5ApYepZdZelZAIDdM4IlZjuvtm378V08v2yGyg4AAIA9VZaY3XTQcdcysyybsAMAAGAPlaDj8yM48o+bp4NlE3YAAADsmRR0bHKJ2SgTkpqng6UTdgAAAOyRpmlulKErmw46brVte2uvTj5rI+wAAADYEyXo6Co6nt/wEXfVHNO9OfGsnaUVVsBqLOwqq7EAAGyvEQUd3fwcH2vb9u42n0/GTWUHAADAjhtR0BFlQlJBBysl7AAAANh9Ywk6pm3b3h5BO9hxwg4AAIAd1jTNZ0YSdHQTkrYjaAd7wAD8FTBnB7vKnB0AANulBB0vj6DRd9q2/dgI2sGeUNkBAACwg0YUdHTzc7w4gnawR4QdAAAAO2ZEQce9MiHpvRG0hT1y5GIDAADshpGtutJ5pW3bOyNoB3tGZQcAAMAOGGnQ8eoI2sEeEnYAAABsuREGHd3KK7dG0A72lLADAABgi4006HhlBO1gjwk7AAAAtlTTNDdHFnR083NMR9AO9pwJSgEAALZQ0zTPl6Djxkha3wUdL1p5hTGYuArLN5/Pd+2Q4C2TiX8yAADGYIRBRxdwfFTQwVgYxgIAALBFmqZ5eYRBh4oORsUwFgAAgC1Rgo7PjKi1fdBxZwRtgR8TdgAAAGyBpmm6kOPlkbX044IOxkjYAQAAMGJladnZCIOOV9q2vT2CdsBPEXYAAACMVAk6xrS0bK8LOm6Noynw00xQCgAAMEJlxZWvCjrg8oQdAAAAIzPCFVd6gg62grADAABgRJqm+fWy4oqgA56QOTsAAABGoMzP0YUcL43wegg62CoqOwAAADaszM/xeUEHLIewAwAAYIOapnlppCuuhKCDbSXsAAAA2JCmaWYR8bkRzs8Rgg62mTk7AAAA1qzMzzHWao4QdLDtVHYAAACsUdM0L0TEVwUdsDrCDgAAgDUpy8p+fqTDVkLQwa4wjAUAAGDFmqa5WebmGGs1x70SdLw6grbAlQk7AAAAVqistvKZEVdzdEHHi23b3hlBW2AphB0AAAArUCYh7UKOl0Z8fgUd7CRzdgAAACxZmYT0iyMPOrqA42OCDnaRyg4AAIAlKdUcn+w+Hfk5vVMqOu6NoC2wdCo7AAAAlqBpmufLSitjDzpuCTrYdSo7AAAArqgsKfvJLTiPt9q2fWUE7YCVEnYAAAA8oTI3RzcJ6c0tOIfd0rK3RtAOWDlhBwAAwCVt0dwcUVZc6YKOV0fQFlgLYQcAAMAlNE3TrbAy25JqDkvLspeEHQAAABfQNM3NEnKMeTnZzIor7C2rsQAAADxGmYD0i1sUdFhxhb2msgMAAGCBLZuAtDdt27YdR1NgM4QdAAAAlS0cshImIoWfEHYAAAAUZZWVboWVT0TEjS06L3dK0GEiUvZeCDsAAAD+XNM0L5flZLdpyEqU+Tmm5ueAnxB2AAAAe63My9ENWXl+C8+D+TlggLADAADYS2Vejm7y0Re28PjvRsTHDVuBYcIOAABgr5SQoxuu8vKWHverZX4Ow1ZgAWEHAACwF3Yg5AjDVuBihB0AAMBOKyuszLY85DBsBS5B2AEAAOykUsnxiRJybNMysjXDVuCShB0AAMBO2ZHhKp17ZdjKrRG0BbaKsAMAANgJOxRydO6UYSt3R9AW2DoTl2z55vP5rh0SPNZk4p8TAGAzmqZ5oQxXeWlHLsGn2rb99RG0A7aWyg4AAGArNU3TVXD8akS8sCNX8E6Zm8MkpHBF/hS7Aio72GcqPACAVSorq7xcKjlu7tDJbktFh0lIYQn0SlZA2AGLCUMAgCfRNM3zaajKNq+sUrtbqjluj6tZsN0MYwEAAEZrB4eqZKo5YEWEHQAAwKiUVVU+UYar7FIVR8/cHLBiwg4AAGDjylwcL5WQ4/kdviJWWoE1EHYAAAAb0zRNF3D8Sqni2GW3SzXHXXcbrJ6wAwAAWKsy2eivlkqOXVpRZUg3H8e0bdtb42sa7C5hBwAAsHJ7FnD0TEAKGyLsYBT65Ugt2wsAsDv2NOCIMmRlagJS2Bxhx8j1IQCbN8ZrUYdDV2mjoAkAWIamaV4oc3DsW8ARhqzAeOhJr8AyO43CDgAAxiytovLL5eMuLhV7EZ/qhq0YsgLjoLJjhAQcAACMWRme0q+issvLxF7Eq6WawyorMCJ61StwlcqO6XT6yOfbtt348QHj1TTNpdrm3xQALqKEGy+U6o0X9rh6I7tdJh+9PZ4mAT2VHVvmsh2ZTdB5AgDYbsKNR7pbQg7zcsCICTtYOoEMAMD2KHNu5HDjeeHGIJOPwhYRduyuRUOUusfHuuxG3a7JgsevTCDDJmzDfQfAbkvBxvMp2Ni3FVMuqws5Pm3yUdguwo7d0IcCk7QdxNs/TqoApA896o+L1O9xPrCvvEUs/ljr93Ww4Pl59flQWy86/8xQGx513PMqdHnSQGbR+T4YOL63pI7xZcKetQZZApml6u+l/ueg/zk+SD/Ph+k1+eftvHw8K5/3P1NvfWzb1rrCAHuoDEW5WQKN5wQblybkgC0m7NheuWN0UDpBx2W7Vj5ej4inynOHqROVO0q5Q3WanjsoHaUcmszLPZPf+zx1sE9LZ+u0PHaSOmDz1AGbpO87r9rWv753nh6fLAgcIrU5UntziDJJncA6mDlL+5xX7xfle07L10dp/2cLgpe6LfMqbDqsvuc8nf8YaN+ibehY8uM5oIqBdtZtq18/qV4X1X7mJZCZLzh/+fVDbRh67dKNPJDJP0uT9LN6XH52++1a+Xk+Sq85L/dg93P2oGz3y8eH6efxrGmat66R0ANg96RKjZtley4FHDwZIQfsAKuxrMCTrsbyuJVYkhxQ9OHGMxHxroh4d0S8MyLeExHPlsf78CP/VXhSBRp9kHGeOlSn5fuifH1UOk/HVejRd7Aflo7WWfq8DxPOUjgwSV9fq76uO/2nqc2RgpC6o9wfW6TwpA8nTsrjx+Xz8/LxLH19WrbzdE7O02N9p/Osatd59T25UiP/Rb7/+ih1ag/S+09S5/VB9R5nqX1n1ZY7vA/TcQ4FWH276qCs7mjncKw+ptN0vU9TJUFuW1QVBjnAOq/uiXyd8vNRBTD99T+qQph8revgoD/mfG/06rDoNJ3Ls+rrHIjV1UtXdVAdx3EKN54d2K6V5yNd9y7geC0i3oiIH5XtfvXz+ONrI/AA2C4pzIgyp0aU4Sf5a5ZDyAE7RGXHdpmkkOKodHreUSaQel9EfCAiPhgRP1O+flfpLB1VHeCj1MGelOdOU4frMIUefUdskgKPSep89h2nsxR4nJfO1lnVya079bmj2neiD9LnORg5TB3Xh6XN87TPqIKbuhOch9/0FScPU4fxNH2eKxneLOexr1Q5Kft+kN7rpDpPk4FO7EEKEYZCxhx6PEjhxVn6K/391NaTdL7fLF8flb/+P1wQNswHApijtPX3xrV0rY/TNczX7n5px8PUnvxYDgwm6Tgelvd5R+rUn6T7qW/vUboHjtJ9epju/b6tR+n8RhXmnaXHJ9V9eJLa25/bN8r2egoNrpd9PDsQwB1WP1dH1c9LpI911U19r/SVG0+Xz6+X4PLp8t65UitKu09KW3+Ytnsp9Hit3B9v9gFI0zQPq3Dq/KIBjmFLAFfXNE0dUOSvn0sTg5okdH2EHLCDhB3bo64OuF464e+NiJ9P20dK2PHe0kF6KnXC8jwR+a/jffiR/wI+NEfA0HCHeepE9p2lk/T1adp//z2nVUcvByZRvj5OHbFIVRX1/CCRvidSx/M8dZijChjyEJqz1J6z1JGN9H4HVXBQD7WZpPPXn7O+aiWqDvvQkJd6y1UcOVB4UN4nV8z0HfRnyv7vp/DlQTrePuzIQ4YOU4hwlMKEp6pQq99OUjsfpKClryA4LV+fpiBhkp47K+28sSDQ6s95DmTmpT31EKJn0s/CcVWZku+Beo6UfO36NvVBwP0SEHy/fG8fHF5LQVcennQtvdc70rnLAUwOFKO6b6L8jN5I319Xp0TaR76Pc2XT0Pw55+m6n1f3QH78tLpe+d6rQ5C5CVYBLuymuTG2gpADdpiwYzvkDtBh+otvV73x4Yj4hYj4xfLxQxHx/vKa44HqjKg6/jlweFTnaijgyHLn6+kq3MjPzavjmVeP5yqNycD7RNV5rdWvv0h7z9IQnRy4HFavrcOWw6rTnsOVurOa2zOpjrme8yJveajK2YJOa6Qqhvz8SbXv83S9++qdfkjE0NCVSdXeSNe1rjzpw4A+iHlQdbwflnv2ON7urLr/zlNwlM9lpHYfpGAmVzr11/Bw4Lz25z6fu/PU9oclNHqt/Fx9KB3PeRUY9OfnWnqv6ykAiVThUc9907fn6bINDbEBAFbrbkR8yhKysNuEHdvjIP3l+OlSufFzpaKjCzr+Yvn8Z0qn8qlqstHcaT2oPmZ1x3woKBgKIIZeUwcS+euhfefXHlbfl1+zKOjIrx1q99A+5lXFQN/5z8NjhsKJR73PovN2GTn8yO+Tq13qdkT1XB8aPEyvPay+d1JVK9Tb0HvM0/5zEJOrAepJXw9SGFSHa/Wx1tU7uX1R3b+H1TFEde/V98u8an/f7j7weF8JUurjyvfEeQpX5iko6s9trpSq79WDKngEANbndlfJ0bbtq8457D5hx/jlzudhCTrekcKOj5TtQyXoeFd5TV6BZFEZ/KLKiexJO2VDVQ311xcJUS6630Wve9w+8utyh7n+i/uicGPRObxqZ3bR9+c21kFSVEM3+sevPWJ/T9r2RZUoucJksuA+q79+VIBVByBR7XPR/VTvb9HneXhSnsT3/BHHWA/3ivTzVr//o+53AGA9bpWQ447zDftD2LEdctXB9bLiSjdU5S+UwOP95bFn0zwCfcfqsOowxsDnXNymz9vjruHhQCc7VxIMBSRXbUcdUhwueO5J3m+oAuQi1TuL9lG3a2jY0fwRoVJ+7lHvPxToAADr08/Hcatt27vOO+wfYcd2mKQVKJ4pwcZ7SnXHe8qwlWfS0JW6+kGwsV8uUtWyTI8b0nMVQ+HORauSHtWGi56jRZU8Fw09LvJ+AMDydENVPms+DkDYMW55ToXDUmb/dAk33p2qOZ6plpYNnSs2YF333Drv7YsM//GzBgCb1VVxvGqoCpAJO7bHUZqctA84+hUdjqv5BnS+AADYdXfKUJVXLR0L1IQd4zdJKz0clzk5rpW5O55KQcfBJUv7AQBg29xNVRzm4gAWEnaMXx7Kci1NUvpU+fowvUbQAQDALurm4PhNy8YCFyXs2A592HFcrtkkzc9xNLDsJQAAbLsu2PhNw1SAJyHs2A65auMoDV/ph7fkVSEAAGBbdfNwfLYEHIapAE9M2LEdzqtW9hORHqQqD8NYAADYRgIOYOmEHdtjXkKPs4g4La2eVx8BAGAb9ENUbgs4gFUQdmyHeQk4uu1+RDyIiIfl42kJQeZpC1UeAACMyL0q4DAHB7BSwo7xO08VHW+W7bWI+EFEvB4Rb5QA5Hoa3jK0OovwAwCAdbqTJhi948wD6yTsGLd5CSnOSxXHGyXo+F5EvCcivhURz6br+M4yeelRWq1F6AEAwDp0w1FuR8QXrKACbJqwY/z6uTr6ISz30hK0/ZCV0xKGdAHIO0rgcT2t2HKwYHlawQcAAE/qXhVumHsDGA1hx/jNU+DRBRo/TCHFWZm7ox/W8v6IeF9EvKtUfDxTQo+jsh1WQ1zM7wEAwEXlyo07hqYAY6aTuwLz+ZMtjjKZLL4cTdP8+GXl40EJL45LoPF0qex4b0T8bER8MCI+XD5+ICKeLwHIYTW0ZZX3wLrur6usRuNnAABg2O0y70YfbqjcALaGyo7t1IcVByn0eKoEH8+UoSzvjogbpdLj/WUy03ka1jJZMLQlqsfy8raHaeWX3sGC7z0or82P5zlIht7n+mPCh3lVkbIMqlsAAH4SbHxJ1QawC4Qd26nvmOeO+mHZjlKlx7NpOEv39bUSQuRlanN40IcQOcCYl+EyR2VukEjfe5Def15NiHpQ7Se3+TA9flC9TywIWyIFKPVj9bEcpKE/QxUs/XH27civHXrdwcAxAgBso7tl+0L5KNgAdpJO2wqsYhjLRTRN0w1V+WhEfKgMYbkZET9fhrG8I4Vbp1V1xTyFDfMqQDhP4cW8CgAO0mSph1XgcliFMZPqvergoA5Qompj/v6hEGNRYDGv2p8vzqJgY+j963NShx51m+r2TB6zz3n1uvxYVEFPfmzofPi5BgDulAlE+1Djbtu2t/f+rAB7Q6doBTYVdmyDpmk+HxF/Oa0UUwcgkQKHPAymDxfOBwKYycCQmckFAow6QImqimPR99dBy/lAADF0PEPHFAtemx87HNhnPclsHZbUxxnVa4eOs35d3c7z6vtz+HOY9jEU1NRtr4c/jcncv40AbIF7KdD4Uvr6rrk1APxCvxLCju3WNM1vRcQvpYOoh/UMVYsMVWbEgmBhqCplXj0+tM+oqkrqSpV6n7n9j6sgyY+fV1UkdYAyrypN6sePB94/BzMHqU1RhSD5OPI8MVF9/yS9fz2cqj4n8+p46gqdeXV9DtJ+D1IoV59jAFiFfphJlI9fK5/3wYYwA+AC/NK+AsIOVq1pml+LiGlZgSd39iMFAZG+XhQEnKfHz9JjZ9Vrz6vvy4FBv4+TtJ+ny9wxeTLcKEFIpBAhV8/MUxVLPw9NP1/Mo4KNoZAo0vGcpTbn481VQZMq6KjPYz2M66wKe+pAZl4FPJH2E2mi4OMyl87xwEpJl7Gp4UtDQdXQULH6sUUh3VX2eZnHlvH9l9XfKydlyfA3y3a/LCv+sAwxPKvuU2A79dUWQ/oKjB8zvARg+fSuV0DYAW8FMr8YES9FxF8p88g8Wzr1T6dhL8cpGOhDkaNqCExUIUKuHKnnT8khzFkKIk7K8yfltWfV99cBSDYf2Hcf6tShx7x6Xa4cOaiOK89xk+e+qc9B3Zb+vethTFEePy0d5/tlFaYfRMR3IuKbZftGRHy7bN0v3G+UTveD6njepm1bd/WSNU3zS2V+pa9HxJ9FxPfKtcjBx4+vhWsAAHBxVmMBVqJt2z+OiL9Ztgtrmia/tA8I+lDgqVIx8s6IeFdZVrnbfrZMxHujPH49VYmcVCHASepMdq97b1mi+Zn0XnVVS/76NIUo+S/x9WpFkb7u9dUbR+njtfL4tXScRykgyfsZClTyY6dle1CCjh9FxPdL2PHdiPhW+fj98lwfcpyqJNiIs3T+cwWS6wAAcEXCDmDM8lCT8xRYvJnm1DgrAcabJQR5poQYQ993Wl57UgUF9bwq/esepOEGr6ftzYG/wJ8NVFr8mL/KM6C/xx6koMoQFgCAJRB2AGPXd/pOByomzlL4ca8EHddKBchBCiByyHGa9jU0ZKOff+Nh+p4HaWjISXouhxw6qFzW/VJhcz8FZ4PDiAAAuBxhx4gMzfVhHg/23I8DhFIZ0Q/RgF3QDze6P1BtJPQAALgCYQcAbMb9Mk9LX9mxcIJYAAAuR9gxcn21hwoP9oW5Ldgj98twq/vVEBaBBwDAFQk7AGAzHqYVg/LKPgAAXJGwAwA242EJN04Glp8FAOAKhB0AsBmnabWgvqJDZQcAwBIIOwBgM/rVV84sXQwAsFzCDgDYjL6KQ9ABALBkwo4916/2kln5BWAtctgBAAAAAAAAAAAAAAAAAAAAAAAAAAAAAAAAAAAAAAAAAAAAAAAAAAAAAAAAAAAAAAAAAAAAAAAAAAAAAAAAAAAAAAAAAAAAAAAAAAAAAAAAAAAAAAAAAAAAAAAAAAAAAAAAAAAAAAAAAAAAAAAAAAAAAAAAAAAAAAAAAAAAAAAAAAAAAAAAAAAAAAAAAAAAAAAAAAAAAAAAAAAAAAAAAAAAAAAAAAAAAAAAAAAAAAAAAAAAAAAAAAAAAAAAAAAAAAAAAAAAAAAAAAAAAAAAAAAAAAAAAAAAAAAAAAAAAAAAAAAAAAAAAAAAAAAAAAAAAAAAAAAAAP9/e3BMAAAAwzAo/lVPw+4CAAAAAAAAAAAAAAAAAAAAAAAAAAAAAAAAAAAAAAAAAAAAAAAAAAAAAAAAAAAAAAAAAAAAAAAAAAAAAAAAAAAAAAAAAAAAAAAAAAAAAAAAAAAAAAAAAAAAAAAAAAAAAAAAAAAAAAAAAAAAAAAAAAAAAAAAAAAAAAAAAAAAAAAAAAAAAAAAAAAAAAAAAAAAAAAAAAAAAAAAAAAAAAAAAAAAAAAAAAAAAAAAAAAAAAAAAAAAAAAAAAAAAAAAAAAAAAAAAAAAAAAAAAAAAAAAAAAAAAAAAAAAAAAAAAAAAAAAAAAAAAAAAAAAAAAAAAAAAAAAAAAAAAAAAAAAAAAAAAAAAAAAAAAAAAAAAAAAAAAAAAAAAAAAAAAAAAAAAAAAAAAAAAAAAAAAAAAAAAAAAAAAAAAAAAAAAAAAAAAAAAAAAAAAAAAAAAAAAAAAAAAAAAAAAAAAAAAAAAAAAAAAAAAAAAAAAAAAAAAAAAAAAAAAAAAAAAAAAAAAAAAAAAAAAAAAAAAAAAAAAAAAAAAAAAAAAAAAAAAAAAAAAAAAAAAAAAAAAAAAAAAAAAAAAAAAAAAAAAAAAADAPAAAAAAAAAAAAAAAAAAAAAAAAAAAAAAAAAAAAAAAAAAAAAAAAAAAAAAAAAAAAAAAAAAAAAAAAAAAAAAAAAAAAAAAAAAAAAAAAAAAAAAAAAAAAAAAAAAAAAAAAAAAAAAAAAAAAAAAAAAAAAAAAAAAAAAAAAAAAAAAtpWadQAAANNJREFUAAAAAAAAAAAAAAAAAAAAAAAAAAAAAAAAAAAAAAAAAAAAAAAAAAAAAAAAAAAAAAAAAAAAAAAAAAAAAAAAAAAAAAAAAAAAAAAAAAAAAAAAAAAAAAAAAAAAAAAAAAAAAAAAAAAAAAAAAAAAAAAAAAAAAAAAAAAAAAAAAAAAAAAAAAAAAAAAAAAAAAAAAAAAAAAAAAAAAAAAAAAAAAAAAAAAAAAAAAAAAAAAAAAAAAAAAAAAAAAAAAAAAAAAAAAAAAAAAAAAAAAAAAAAAAAAvqoDkJdD9+vT41EAAAAASUVORK5CYII=;" parent="1" vertex="1">
          <mxGeometry x="38.19" y="707.5600000000001" width="143.23" height="102.5" as="geometry" />
        </mxCell>
        <mxCell id="zyXjHvI1NbI1ozkS3pf7-8" style="edgeStyle=orthogonalEdgeStyle;rounded=0;orthogonalLoop=1;jettySize=auto;html=1;" parent="1" edge="1">
          <mxGeometry relative="1" as="geometry">
            <mxPoint x="58.19" y="730.5600000000001" as="targetPoint" />
            <mxPoint x="58" y="710" as="sourcePoint" />
          </mxGeometry>
        </mxCell>
        <mxCell id="zyXjHvI1NbI1ozkS3pf7-7" value="&lt;font face=&quot;Times New Roman&quot; style=&quot;font-size: 14px&quot;&gt;Fringer&lt;/font&gt;" style="text;html=1;strokeColor=none;fillColor=none;align=center;verticalAlign=middle;whiteSpace=wrap;rounded=0;" parent="1" vertex="1">
          <mxGeometry x="38.19" y="689.5600000000001" width="40" height="20" as="geometry" />
        </mxCell>
        <mxCell id="zyXjHvI1NbI1ozkS3pf7-11" value="&lt;span style=&quot;color: rgb(0 , 0 , 0) ; font-style: normal ; font-weight: 400 ; letter-spacing: normal ; text-align: left ; text-indent: 0px ; text-transform: none ; word-spacing: 0px ; background-color: rgb(255 , 255 , 255) ; display: inline ; float: none&quot;&gt;&lt;font face=&quot;Times New Roman&quot; style=&quot;font-size: 14px&quot;&gt;Contact PPG collection device&lt;/font&gt;&lt;/span&gt;" style="text;whiteSpace=wrap;html=1;" parent="1" vertex="1">
          <mxGeometry x="60" y="658.5600000000001" width="190" height="30" as="geometry" />
        </mxCell>
        <mxCell id="zyXjHvI1NbI1ozkS3pf7-13" value="&lt;span style=&quot;text-align: left ; background-color: rgb(255 , 255 , 255)&quot;&gt;&lt;font face=&quot;Times New Roman&quot; style=&quot;font-size: 14px&quot;&gt;Collecting ground true PPG signals&lt;/font&gt;&lt;/span&gt;" style="text;html=1;strokeColor=none;fillColor=none;align=center;verticalAlign=middle;whiteSpace=wrap;rounded=0;" parent="1" vertex="1">
          <mxGeometry x="19.379999999999995" y="810.0600000000001" width="271.25" height="20" as="geometry" />
        </mxCell>
        <mxCell id="zyXjHvI1NbI1ozkS3pf7-15" value="" style="shape=image;verticalLabelPosition=bottom;labelBackgroundColor=#ffffff;verticalAlign=top;aspect=fixed;imageAspect=0;image=data:image/png,iVBORw0KGgoAAAANSUhEUgAAAIgAAAB6CAYAAABk4BtAAAAPpUlEQVR4Ae2diVcURx7H+QPWYzeb+yCbqKtBo9kjbhLz4sZNsjncYKLJGmM0mqhBPEDllFPlGLnPKI5yiAbQjAouoiIgIoogBIOIoIBnNFkBNZtN1uxv369mu6erZ+gZhpqZtl/1e/16eqq7qr7f+tTZzeAGfOMOKDjgphDGg7gDwAHhECg6wAFRtIcHckA4A4oOcEAU7eGBHBDOgKIDHBBFe3ggB4QzoOgAB0TRHh7IAeEMKDrAAVG0hwdyQDgDig5wQBTt4YEcEM6AogMcEEV7eCAHhDOg6AAHRNEeHsgB4QwoOsABUbSHB3JAOAOKDnBAFO3hgRwQzoCiAxwQRXt4IAeEM6DoAAdE0R4eyAHhDCg6wAFRtIcHckA4A4oOcEAU7eGBHBDOgKIDHBBFe3ggB4QzoOgAB0TRHh7IAeEMKDrAAVG0hwdyQDgDig6oFpAffroDp6/0Qempq5B44Cw54jl+zzfnOaBKQLJrOuFPUQfB3b/EbMfvMVwLG4LvtbUBXkmoIjpfS6yCZdsbSYVQiz7VAYKGWQJD/h1ed7duZ6/dgumZRxV1vpF8GK70/uByiaoCRF99XtE0OSR4/d225RztGpDGf97+0aUSXQ7InpxGqEgJh926YPhwYRI8urwM3P2LrZhoCq89951LDbSWeE8PQH6aUWNB8k4Ys3i3FW10tzor65i1JBwa7jJAmut7oDp8MkC+G7X3ZA2HNJ9P4C9L9TYZ6Zl+xKEGDSby3dmNFjXmrXofpizMtUkftpq5tV2Dycag7nUJIFirWuImUGDIQcHzrhR3iF6+BGIDFkHMysWQvnIeVK19AaoiJwGChDueF6xNgN7rPYMygvXNWAG6Ux5X1Ih5n+0dZwYKVg7PJRkwa14qfDY/Bt4O3MM6ezbH5xJADJFhisZZgsXad1gYxZkGm4U7+sKyYE+bNWJFQFi6Uh/r956jayZD9Y4KR2fbLH6nA9Ld3kNqvlDgtzYPA0O5sd+d6xMLJeGv9muScI/SsXr9XDORzv6i7MtOSsOFDeOhsOYUTPdPgK3+M6gwJS2WwsqilztVjtMBkbce1xoM0HSxl2pmPVbshMWL1kFVxCTKzK/Wj4XDa54n3Q52PZn+c6A7/VHqGjS1fN1cwG7MVdu+sDl0nm53wtZj3aLG5/xziYberGH0dbLxmCVA8DtnVgKnA9IYZRp7tKa+RMrwPz//F8aF4+wFWxLTDEU+raXPjdfhfU2FCWZGO9NEKYg49pAWbGPGHBKMsy06/yWAFcHbOxKiliyDPN+/Q/ry+RDwWRBM806H90LWk+sRppiVXlScGP/+6GXSZB322e1MbaPDIpdHXF1Om9denChe8klOvV2A4H24oY6+TXSNdJaJoggAKE1MpArzapNx3HC17wczQOTAmJ0HGLveKfGVcP6wwUxfdc4WadIO+ezWpx/utBmAIX4LZR7cMMGJq4uiQf83RjyXL7lLwvE+YbMEiTNMFNLH45Got0WNHanjpUHgve2kSaNck8L59roLJJ72IxVi3NiK4CzO0RXcDRM6nz6BEuKok9JQU9/8zQZ3s2S+qLswIAPxevkmNxH1ORUSyTiiNs28Gxi9unRAGlcUNlESiRZJGo6u4AQQNLFF7/jRf2eSaV1A6Jsp9QBgqa+21JIoraDKTUR93RWOb44b99E1nJzLBDZ03ZABsrffcdczkftldxtPjyeZKpqjK7gIiKNNrD1IT/1a9/ZfYNhfL8yrh4myJ7p4jt9juLXNEiSkdbF24yDCSYshqd1KUa3fd0YGCr3EvqroK6XboT7mJaq7acx0TAV3k0+1uo7vgEuXLjHft6/LpARd7ai1KY3T7Z1QcbIV8DjQfGUHxFJp9m4aDkf3lg84HlvTbU0YL6ZXtWaq1XQOnDgNmXvrYOWWQ+CpK4bAvErQl9XDwfpWq/eeqGmDC6nuYnpYwau2pFq9z1YtwnVuSUt1VCI3Nw+F/YaNsGvXLqZ7edjrYjqXMx5lGrdSXsvCp4vpookIydbULPbp52+m0skJDGSfhqxMsnRbQF7BWWtza2trg5yl3pS4K/qx0N5yAjCM1Y4jbiwg3CviFjKL15b8HVr3gZi2kIfyrESmecD4hLjxaNhayzT+/nTu0KVQ6WIFOHmsgUnadWUlxv962dkJsNffND1Dge157Pq0E/sbKRGnSp3/zKRaRw/sUCO+ZsBqkw4cSdPPKmIb4imLWkb5eyZxApOli5NZy0z/FrXkyx5oijb1oWhgY26YDdmzfol88Qh+dM06uNxI1IgrriyW5S9nmGZo5WuNq6fWnWF3hXzQygKS9pQJJkAwq7rARrM+jcUaQlOcacQtXzxiZ5FtMZVlyhbr8t0AzcSHiPZufVfoGRpJw97I7LwPX3doS6Ir+GAgETSZPYtJXmWgmitjSzLIplgy9atIYdMq2ekjuQ3XJ+TL8th327sq2VBEQ9dS55qXqvE50CmdOSQXzww8P82FxjGVGSDoYH4IPeBCSFo3eII9XYMti0eDKWx770UYrmTS00QcSNvTYrpy/CHXjy2hvCVB+C0t2snvlZ43JBrHpBYBwQstNcXdn08AuD0wGgeyeCTNoDM+Y7PcmUHXOKwMhsiBtZiuHn/IvbLU3aCu0qQkcmlHbwe03Wgjnw+f/Rbw5e/Ebbthf+xMSC8shoKaZrEX6RcQvLs0u8JsTHI7ezjc7DY9ZJNnTn6OAx3MHO7kQZb8AhWcS1sAIa/V6zxtmgkIfbVwnyvGH5YsREiO6eiZKeaxJHQ2vJc/A94yvAX+xaZXKw6ETAYIGwoHV0+Gj/3XiWWmCAgmjEvk8n7t5ubh8P2p/pfKxQzjbEUy/iCzGTFQXR8sLc3je7PllbWQ2ZRJMlvVdh10+85AQmIsfBPqDmmJayArnn4XxUcfrCphZMwnKQMsjyadB7wU/Tp4bHwRnoxIg3lBkQQOBAT3XcFviuVmFRBUi4Mf+ToJJoQPwLC5EjZ88QffDju4MwuOHa+B47t3iAnh9Tnb84VLVXnEZzXywWvPpmHw14CZ8Olu4ws8+ODwq5AJxMiWkHHUK4TdKY/B2OyxEHM8RlX6cN3JTFfWcJi+8kPw2PQcpEe/YAIkYgj0bRoqlptNgKBaXEzbE2i+2FSq94Ci5nqYn32CvBUWFORDEmsOHQ/5Qe+KCeGSMJpX1lmmKvPkmcEuQz7IQ7iX+82AkbGB4Be0wmRm2FDolbyktC3kZaIRdaaeTJVH7dJzHBZY0hXoNR+eTZsIlbH3A4QNge7QkWKZoW6bAUF1uKCkm2c+w/ENext+E6qHJwL2QGvoWNHAXgmJ+UGvieapHRLsv4VRPJok7Bn+UyFh/TOivmvh9Fvo8wOnE42euzypltWlZEgS7+29DiWRr4h6BF17gqbAs5FTYb/ufriUeZ8Y3pXsPjBABEiSl9HzfkxoeeB7sCriI6N5oUPhcuAIMSEM/9j3IxGQlZUrJdlW78e9cQsoDagj13caFK0dSXS2RIwTw7GFHJPxHDy1YQr4GPapUlRjdw95xQD/zkiAQzhiV1qTRLce3vN8Bg6IoDxtld4skZCgqdCx7h6jeWFPU+F/iDc2v3OKfYUoVH98M6UalviY/w1PU8zTUBD8LKUvz9eTwIEtKY5T1PCH13KDdzZcFN9BwZnKzU1DKA0CLHjE1kPv94b9gCzIrSd/9SWNFBeafP3egY6oe+Cm/hdi4nsCjN3LqKR58GLsIfjXXfAbHz/d+RlGBP2DGIp/6SYduEk1C59n+3xMulnh7bfDZ6/Ly8fl5xuqzomA4MzlZvgD0BozRiwnQQu2hqF/CyYVfUBjEKlC4W0vS81VReIoKlFvrwUwKmGh+Grd15f7pFGp8nO79CVq/xLAQfeZeLrbFAzN9foATq19EMYFFIoFoMbfMKk4c03Mn7Du4Zv+BOn+q0InkYe1OV6z4Pez1sDrWaPhdNSv7WtBrt/8t5gQ1pjKiBcpIATj8IhN1dLQV/9/vXFhZk/TZVVCIc2UFJDFQauNY6uIIVCn86C04hPwRbMXk/Atq2eIvqgRkM7vvif5E9Y9EA6ccQm758bfip/xu5c3jbYPEOmLxU8HFMD3YfeCwesdyjgBEr+Zq4h54cHeonn4yzpq36RdTFvIU0SDYGhY+CsQ8X4grHg3HMYsWkFM1Sc8Aj+HDYNn/LcRnWrsYtDzdzNrAFsPQYsUDhw/Jicb13KE7+3qYr69ZWpBsoOnE/MOxT4AS7wWiEvz2I996hkNbyb9kQxcu0JGioDg747dDRsOUhcHGlsPS4YKJgrHvISHYevqaUSnGgep6HlHdVG/cAgrqToJJHYBggnhb4X9LiCfwFEdcx9M3OxBatKouFfh5blB8PAnwWTah+Zh04V0BgctJ+bhj9HdDVtmZQecCx3dr6EbEx+hmmTUWhj/EMTtrFStPN/c56k8G8vmV2SRDBfKhH1tiju5zm5A8E8e81dPg+Mx98Ik/RgqUb+0JyyaWrN2BAHrrvmlwuYCizqEqTzWuOwEc0h2FU5XJSA/NhfBoownxbISKq7QcsiPoamP2zcGQfXnz52Fpuh7YYoMjuC0x0mrgolZapZ3fLFaleZZypRvlmkAZ2oJzWvbtviHRNOF7mbv13mWonTtd18b4EbkL2HGxlFiqy6HQn5udwtyeudcMhUSDMFjZKoJDiEhM0j0Y1W5DG1Wcp2HAWuQoM9abdsRR0NSVvKZWZSq+OJ6K1w4vRM6WgoAOg+L+51zVdBytATunK8Sv8NwuwDpuHiEECiYh8eYZHex5RDgEI5mkHzxZ/VDcr0VIH0iJCQ/ZnNtK17/IAGqLGUMQFupKngYbCbsAgTJwn4YaxXCgSYKMPR3FCD56PMR8M2xtMHm26n3S19psJaw2h9EWsu/PNw+QDCWuizoOBAAaYaZABXRZL9THgWXDaHQkO0HZwuC4fa+NWIYXuNb9AbcOhQpzwM/V7ED9gOiYlE8a+wc4ICw81KTMXFANFms7ERxQNh5qcmYOCCaLFZ2ojgg7LzUZEwcEE0WKztRHBB2XmoyJg6IJouVnSgOCDsvNRkTB0STxcpOFAeEnZeajIkDosliZSeKA8LOS03GxAHRZLGyE8UBYeelJmPigGiyWNmJ4oCw81KTMXFANFms7ERxQNh5qcmYOCCaLFZ2ojgg7LzUZEwcEE0WKztRHBB2XmoyJg6IJouVnSgOCDsvNRkTB0STxcpOFAeEnZeajIkDosliZSeKA8LOS03GxAHRZLGyE8UBYeelJmPigGiyWNmJ4oCw81KTMXFANFms7ERxQNh5qcmYOCCaLFZ2ojgg7LzUZEwcEE0WKztRHBB2XmoyJg6IJouVnaj/Ad4hWaLeQxGkAAAAAElFTkSuQmCC;imageBorder=#000000;" parent="1" vertex="1">
          <mxGeometry x="314.54" y="696.68" width="85.56" height="76.75" as="geometry" />
        </mxCell>
        <mxCell id="zyXjHvI1NbI1ozkS3pf7-20" value="" style="shape=image;verticalLabelPosition=bottom;labelBackgroundColor=#ffffff;verticalAlign=top;aspect=fixed;imageAspect=0;image=data:image/png,iVBORw0KGgoAAAANSUhEUgAAAI4AAACOCAYAAADn/TAIAAAgAElEQVR4Ae1dB3gVVfYfRREJAvq3ICiwiqgkArZ1kRKsqCvKrigqNSqsBQEVBUVIaIJ0FgusAhZWgbAEQggl5L2AIJ0gvUkUFBCCAanSzv/7nXlnMv3NgyRvopnvmzftzr3nnvO7p9yZOU+hxYuJpk8nCgbd10mTiA4coKguBw8STZzoTmd6OlFmZvTIPHqUaaxb4xDF18mz0hoIEE2eHD360PKaNURTplhp02MgDJ3KMw88QJPefNO9ElToA+CkT5lCj952mzutUQbO4qwsiq9VixTlpG+B8+qzz9KH7du78zEccK6vUoWGJCS4V+IT4Iz78EO6NCbGndYoAydt6lRSFIUU5QRB61g0eRiBFIUqanjbbfR606ZW2iLROADOewkJ9FtmJh3JzKTTwSDv4/j3QIBX7P+WnEynf/2Vjh49Sr/99hsdOnSI+3jw4EE+Pn78OJ08eZL3cR37OId9rGfOnOF7sI86Tp8+rV37/fffCauUPXXqFB05coSPDx8+zPfi2kfDh1PFmBg6GQhoNGL/GOgLrZSeTocyMvjecO2ABn076JDQcOzYMUN/QBPOyXWUBQ9wjDqkP8lffaUBR1GI6TodCDBvQePhefOIkpO1esCjEydOaMfgm1M76A/oEBpwn55v4DH4JTThWMrq27n71lvptaZN6WiIZ4dg2oNBwhY04vwp8DhEJ9oxy1IBcDolJFBmaiqtSk/nm7CP9Yc5c2jnnDm8nzl1Kh3atYtWr15NmZmZtHDhQgZOIBDg402bNtH+/ft5H9f37dtHW7Zs0Y7RiW+//ZaPs7Ozmdkoh3XHjh28yjEEgTI4Xrx4MQMH+2927UrlY2JoX0aGSlNqKuVmZNCm2bO1YwBn0YwZfC9oBSOl3p07d9KPP/6oHUNAq1at4uMlS5aw8KUsaN+7d69WFn3buHEjH6PPWMADlP/uu+8YRNjv36+fATjg4/FAgFampzONS2fOpFPJyVq927Ztoz179mjHv/76K61fv56Ps7KyuJ1vvvmGj9euXUsYqELjrl27KCcnRzsGiJYvX87Hy5YtY0BK2e+//552797N126JjaVXmjaldbNmMU0L0tIYONiCXpw/AB6npHB53If7pS4AiYFTYqpYPgXyozdV0Dh/WFO1Z+ZMOgTHV2/f7PZ94Bwf2bOHdo0e7U5rlH2cY7/+Sq//PUAAjV+Bs2/BAjrwxRfufAzjiykl4XiBKJr8So4epcTm63wNnAIJx5s1akQTXn/dHX0+iapSJ06ke2Nj3WmNssZZmJlJlS+N5XDcrxqn/RNP0PB27dz5GE7jlITj+cqiIPb+ND5OCXAKAi75dZiBk/3JcuPIDjOS82sqvL0Cm8cpiaoKTkhm4ASHZ5cAJ9rPqorTzHHt635lB/kPC5yD8+bR8XAPvHziHP++bx8dGDfOOILNUwdRdo5PHDxIj9y6gZ9TwTn2I3AOLVlCR7/6yp2PYUxqSThecFZKrenoUYqvtdfXwCmQcLzJXXfR+E6d3NHnE40zdcIE+tsNN7jTGmWNM3/uXCp70Y3Us80235qq1k2b0vutWrnzMZzGKYmqClbliHPcs/VW3wKnJKoy+zc4jrLGMQMnpe9a48gOM5ILFsb2tZUApxgAJ7FtTglwSsJx+xGsP6vXOBViTtIfFjgnvvmGTqWkGEeF3Uj2wdPx03l5dOK//3WnNcqm6vThw1Sn2i8MGLxz7EfgnMzOplN479lOznIujEktCcf16qIg9o8eZacYgPErcAokHG9Uty590rGjO/qAQh9onMmff061q1Z1pzXKGicwaxYpSnUOx/0KnCcffJD6Pv20Ox/DaZziGI7jwWHO14vtOx5l4Oh9HL8C508bVVWvdMz+0xNoxhLghDW4f1rg4BkQRrOtc+cT4GQMWe5bH6dAgHNj1ao0/Pnn7YUgHrZPfJzPPv6YLitXgZ3PiuVO2tMcZeCkT5tGinIhCXDaNtltpDOM7xBWXRRAgXv++lfq+thjHPHZfvsFeYehs9hFVcFeLi+C+8BUUSiqwlNxaEWLZgwjkALARfgqQp8AY/DZvt4aKXDQ2aR2pplOVILVB1EVHTxIxQk4j9ff51vgBHvPZ9AAOLaBRhiAK3fefDN99OKLDA5XBPoAOF+NHUtXX3qN1mE/+jhdu6STolzBpkrmcgx0hhFIeHVx7iWaxsdTm/i2Gh8t7wx50Tj6cBzoc0SgD4CDNwDLlC6vddh2pETZx3m2xXT+khM+jl+BA+e4Sd2WGh8LDDi2FfkQOLZ0lgAnrEoCcOrVbEd1rj9Ets/TzlbjWF4F8ImPIxoHDic0YwlwwmLEtoAAR5x3y/M0L8Cpe8MNNKpDB/ZxxFTZVuQDjTPhk0+oQtnK7HD6FTi142aTolTwtY/zcIMG1PDmDlrUZyvvML6YIRz3O3AQVeHzWj9rnPiGpzVt6FcfBw85O/99qwYcRH8GB96LxtF/O14cgNP54c3FCjh4PGIQSpiRbGtbCvrkmjXaC/Wdn9jJ/DTQ6AU4cdddRyPbtyc8OPQ7cL4YM4YuuuBqDTi2KjbKzvEtcQjHYzRTBZ4ahOID4DxQrx5VvbwTATS2WtELcCQch6Ppd+DAOb6gVEXCND4iAj8CJy52hhaOj++2kXnqN+DAOb7m/15i/hUYcKpd5fDk2QfOsQBHOutH4Fx1ZT5wZDD+KYCD0Wx5vgLVVQIcT56GoqRpGqe4AMfih3kxVfXi4mj0yy/znAhMlYxmwyjxCXAmjh9PZS+qqdHoR42jKPNIUSrTvKErNJ4aeOkDH+cf991HZUr31EyVxQ/zAhyJqmR0+Bk4CMfxea3Q6E/gqI9twE/hqd+Ag3AcYBn+ylZ7Gv/owLE1qVGOqiTAKA7AcaTRC3AQVQ197jkNeTKaDaPEJ6YKzrGiXKppHL8BJy8P2qZ4+DiK8jrL3FYregXOgIQEmthHVV8ATrVKxzih84lAgJNRI3H2kcmT6UxeHidkRh5iJGvGgn2syLEria1xjH3kw5XryHOMvMI4RrJlSU6NYySFxiplcQ1lcKxvZ/SIEQycoa9spXfabKeGdfI4kTMSeTONSPSMXM0ZGVo7aFfqRRtONIG2cP1BH/U0gTYcS39mzz6uAWfW4GU0e9gqNglIkI1cx6ARybzPTJ6s0QR6zHyTdlA3FmkH581889oflBMe17/1VgJw5g5bpdEIRXE0RONxJErHfnIy02nmG2jiPMcdExKo9TObuZM92mzn7dzUVMqZM4d2zJlD2J+bkkKHd+/mhNJz586lBQsWcKewj3XDhg2Um5vL+zhGcmkklJbrECASSuN4xYoVTJBcQ9LqH374QSsLhq1cuZKPkRwa96LsG6+/zsBJGbKC6a0dl8vJsjfMmqXSmJrKwPkmLY3Low5kP5d2kIgbCaXlGAIBLTgGbRCgXNu8eTP98ssv2jH6hsTVuJ6RkcF9nz9/Ph8jmTcymA8ejElUVeN8OXAxDe6/iHkJsCybOZNp/DYtjU5OnqzVi0TcSJAt7SJBNhJh4xgJqbEgUTaOkfAbCbKl7M8//0xIsC3HANbSpUv5GInFARa5hnJIqI3jWjfFMXDGDlyi0YhXVAIzZjCNa9LTKS8jg2WO8rhv69atWl2oV0uQDU2DR+xwmGy9bJ+E4zBVUK+OJjWKPg40vAAH7+OIGcib8U3+7LEPoqraNe9k4Oh9HOwb3JMwdCr33nEHjX31VU0Q0llDJT7xcaZ8+SUpyu0+B06QFKWGIRw3CCWMQFjFFPLPvX99lBTlPQ0oUBQGGr34OBKOywj2M3AQjksnhV4LwKOucazhuEEoPgBOcOz3BqsiPDXwMgydytGsLDoxdWqx0Dgn9+8nRTmiaRxbkxpF4AwfDtCc0miUQeg34MwZvYEU5fdz0zjykFNGsHTWgD6fmCoJx0Gjoy8WReAkJhLFlM1/VgUeWkZzmJFcyFaKqxcfR2RsodGLqSquwHEEeJSBo386XpyAg4EoQOJtGIAboipMqDkKxGdRlSOdJcAJq7TsNA4szlkBB6DRAweCMVRUApywAoGpKo4aB3KPGDh/r1+fPu/ShUHjd+BM478tbMBa0Y8ap3Nnorq1s0hR6nA4joFn8R/CmICw6CyAAg/Vf4IUZYimGM4KOBKO42a8SojJKktnfeIc68NxPwInPp5I/7K6X4FjDsfPCjj758yho8nJrHFEXfkVOMd++YUUJdegcSwmNYo+DoDzbvcjpCh7mUa/AmfGKLwmfPjcNI5EVXrU+RU4+nBcXq73G3D0nwD7FThm51gve9DMaxiTqkVV+puLA3BshYJOR1njlADHh1HVW11G89Nx0TK2AI8icOrWJbIDDr52CDeSc3KImjUjwjs9hb2UKd2AH3IKTXqlIefCJlYqTqbq8Uf+42vgAMh2wBHfkYXiYALGjw894woWNmzQTkMLcAAeDTReZo6b33svffXGG4Q33aWDYIAl8YAP5nEeewRp0h50djyjbKrAtw+GIRyvZwjHha9uwMEcEO4HgAp7UZQXSVFGakABaLwCp3FjoqQkIu3bcRAtHdTvayj0AXDiG+ABYv4rANi3ADyKpopp47cA82m0pBFx0DiPP64CBwAqzCU7W20HtIpsbT8DtqET4xL38fpTaiod/PprFe0hW4wLAiKp3A/fVTWod4AUZYdB41jojDJwZqciBcsPFBi2igVj8R9sBAKgIJQH3zGJWJiLKvzddO3lP2vAAQ+9aBwDcMTHAdHidFo6izt8oHFuvOFTg4+Dr079Ahw4t+DhgD4p2gd5GHQWXjoAB/dWqKACqDCBg7/tgI+DT4BFKXgFDrQhaAStWjheHIEDoVjSwUZJ48hoHDt6asTAUb+OUEEDzVOYC4Rf+sIGZw0c0YzFGji2IyXKwJGU/Hjn2KvGEdC1bVv4GgeCj7m4/lkBR+irVq2Ya5w/GnAksipMjVOxItGl5e8+K+AAdKCRtU7rhx+m5G7d2G753ce5qSZyzzTTfDEAx5JhPcoaZ8l85A++TwvHvfg4+jkcuAyFtYgfVuu6l+iGqwdH7ONgglMDDp6O530FgfjfOS4Xc8ZAJ4DDjIaulzVKwBHh6zOrezVVEEadOmoXIgEOHN3q1b3DTExit+f28jf4wjPw0ZKxwsaJB23oJ08dbE1Opuk9rMCx5IXzQVSlKAh1N2kaB3M4fgGOmJlDe/eSoqyPKByXUSyCxVyLl0XmfnCfl0XA3bnVCqpXc7022GwHoANw0Bb3FeH4Sw93NIxkqFesgkje+gI44wzhOEyrn4ADp/FsnGP4DACBRFdegcC+BiZBU7zAJt/MVL36bwYfx/bFfxNwZOIQWwtwBCi2yZVKgOMqHdEadsAxaG+TQFCpOJ3Yx0DwChw4uiiPtr0sQqMZOLYD0EQnaOJBSi7Ager6I2ocjEyvZsCLIPRlRCh2wDHw0iQQ1AE/RYQP4cCkeFlQNhLgQKsBpGcDHHwzhsk/LAwivakSjeNH4Khq/OxNFeYgwGQwzssCgEXyisO5AAd0iZbRa59wdOK+SGabpe6zAY70DzR9/fVuUjo0a0Z9Ww5Q1RCoDwZ5Gt8wSnA+yqaKUc5p0p7VnGNRsYaP+m2iKvEdxJkMJxBchxkQLeClvDB2+cKFpCiPUebQlcxLi9k3aRy974B2RLjh2pTQGuWxelmk7ga3dqIbK49Q0RoMMj8BQlEcvDXRiXsx+LC0b/+m+nQ8GErHITf6UeOowFG1hsw3CXDkmOm3AY76fIYIzMYIhdp1W6QtrwJBXXg4yeV1f3QGeiy8NAlE2hJ6xJzIsdNW7oMwvYbkAAfMYOeW+wzhuPBR5M9bE50COqSJURSFlHHvptDUt/HZaj7iLJ0FlQ4aB6M5K8upe87nIUSsXheVUftIUVZpGsf2vWMb4MhUOdriT1jqureqfgPufSSjNjAW64E9e0hRlmvhuIWXJoFAU4nvgHpEc7lTqCoHyEwAFK48rkv5O+NW0d9uyP9uzgtwxA9r2bIllS5dGuC5nurf/I4FOJb/anQAjvgOICoSIGBkYSbS66IyyOjjgGvMDP1rrjbAkU6jLWG0m/8C2iBM1O11AWhwn9k59gIc3CsLgONFg0g/ZOvWH9QtJhHlK5QzPnIQ4Bg0twng4MWYMfjKRJH1erqndncLcJhpaEVWB+DAFxBGhzMBKAfGSCfcBGPWYqq5iRw44t+gG7Kg3ebNJ8ihZSt9sqMPb7/ZzZtA+OjbuQJHzKqFKNMJtAVwY7CCTn3/TEX5ENelP5EAZ3veduq/oD/fe0fzrgIaUi4odR09WLebIfzGKOFGBDTY2gBHOgniwThxnuwIxznUKULhJ6yKfXgs9QJgsoBRihIZcL7b8x3d/tIobnfdjp+kKqpZcxeVKjWKxtvEvQJqocEsEPQBA8C8nC1wcB9WWaR9fd/lmn4Lfsh9oMlMp74s9qU/2DcDx/YjzJDGUZIUUrpXZB4qCY0Jx7+f+p2US8tXswBHVJembUzA2XVoFyVlJVHL1if5GQuIQUfcTA+qQAdllY5gK4uYOjF/qFMW7F95+VhCKjd9FMVMszFVraa2onLvlSOlcRKdf/UaumzQZbRi1wqu7rLL/k2Kkk2VK1eW6rUt2sZzIyyoW48tEaqdKTkX4Oj7Ke2GAwLuEeB4cfhRXvoF4OAf8vTytfAxEKCZ/dsxUJR2jVW5vViXSvUpRWlb0kjp3KIFPdtotEHjuAGn6ddNqUy/MmqFlbKpxj9VlS9AUFlu/QXh0DLSYZgQdATHWETlQlDQSuJjCJhQ7vrr8NfRof9InzyEKAVZSImCfafwPs36WvuuquLAiiqN1bNIuWka778661VKTk6msmUf4fvKlbvGonUEAKBJv49jPfiZaN2PlE2buoQU5WktHA/n49S5K0/jgVQnfJJjuy3aw4pF2rYrJ+eE7ziuXvkd+sdd7xP95y2idxVemY+tG6vHg27i/x3v36muETjQPkkKjVg8Qg3HE5/e5Ak4s1dOovN7n69W1qU6M79sq2cpJy9HY6oIWgiWLTpnNmVQ+aL20TEQD9BgCwBhKxoJ1+vcov6JGH3Qjujd0kSJl3CZ4Q91J0qKIRpQjYGz+r/DyACcxkkqzUkKxcbGhuw06m9MN954o5DIW7QvvhrohXYRxxM0CKDNpkSEFzS9rO4EnBmbZ1DcR3FUqvIaqtL0Exq8aLBGB+oK9+6xtIeb9LwVWrXKQjsoI7yOv+MwJT61gejfTxK9e4EVOAOqM3BWjuxO5yedT5rGSVKobL+yLG9l6dix9NpjWZ6A88SY+1UBPN2MBaZUWk0X97uYRi0dFfYBnYBB3yEIQswbGCV+D7ZY9CMPHb/z9p9IURaFOnyh1uHERknqSAkBhzIzNaAoFXPYXF0y4BJq0qcJVahQIQQcvPieRBUrVmQthPbMjrRoUREiGC9m1GxKADj0JzV5FylKFp2Bj+Ayj6MNQJjvJl2odJ/StPzn5dxvtHfnnWqOYz5h86MHDsrjGAv4CV47ARtlbq/1LXV6ZI4zcPpXY+DQ5MnUOqU1lUq4T5V3kkLPTnmW21EqX345Vb8qgWrXSKfAyJE0f+RIGtsd780S7U9Lo6yRIylzxAjK7N2buo3sSJW6V6LS9T6i8yusJaVlOar0SiUa+OVAzsV7ySXbaPDgk4T8u8jNGwwGOVfvmDGZpCg5tGXLCdq5cyefR47g3r1hehbQ9u3bqVGjM5SQsJPq18+i5s0XUCAQoNq1s6hz5x+Z0Dp1FlBsrV6kKOUpq8u9lJlQnjITYqhupVH0TsMkOp5Unpa/+hdaMGgQBUaMoLveuYvKPF+Gc91d0a49VX69MrVo1YLi4uKobt26VK7cOKpSZQw1bNiQOnTowHSOHImXsBbQ9OmZnCMYyaife24xn0tLy6IaNeZT27YLWOsAJMj1jFzE6CfuS0hYRH0TpzAw5w0bxnxr89AkvgZeIvH0mvHj6YvXEuiKl6+gmBdi+NoFre+h8n3LU4t/tyDw5dFHP6fzzptFH374IScVR/7i5cuXa3xDm+XKLaAePY5zbuYXXljBtPXrp9IfE7OAOnY8wXz79ttvmUaUb9duPu9XKFePYq99mAJd7tf4qCjfUUa7RyivR3kKvFCFskIyR1svd4H5Jdq5ZyffDxqV8847Lz/ECsXodWs/wAW/GjzYci2uURzdFLuH4u5AtKLF9Lx/9dXt6bbbdlCPHj0s1xSlO4Opa1ddSBe6v1WrN6l8+dPUsGGi5b4qVfpzguzzzruIFAV0XWgp0+reMTRryhcUe1NNyzVF2U39ByyiGjVqWK517bqfE0pfc801lmvr1q2j3bt30+WXX2G4VqpUabrllv2sXS65BKYynwcXX1yBEtoNNZyT658OHUqzUlMp/u67Ldeve/op+vJ/X9KttyHjeX592EdiawgPgDdfGzNmLSeuvuqqWpZrlSrtZfBfe+21lmtlL77Nck5R4unNl4L06ahBlmt/+csDVLnyCQayRkP1q6+m6ld2p7eeXkW506fzmj5QzQi+fPRi7Vzup59S7vbttHan+vLUta3fpbdS36I5a+ZwRnVkHq9YcTCdd95qeuWVV7RzOP/WW7nUsKGqepG+HudkRdqSSZOOMlDnzDmmnc+/T02Vryj76YW2Q6lC2bKUO+Bxyn3jQsp9Q6G7r02lXg17sak6mHQt5U6cSLkpKVzP9Om5pCin2fE+cOCAoe6HH86l+PgzPCrz8vL42r/+lUt3363SxheICJnOcS42FnXlUlbWfs2n2L9/v1YnrqWm7tfmcXb/73/MO/AV107Om8em67e0NModO5ZKdStFZV4B0HNJaRvPphVZ06dPn06lS0OwubxdtWoVk4JrwrPvv1dpCQRO87W0NJjdXIqLU3mdlYXrZ9hPRN+kPPiBOvAPeS83aRLiYynK7YqZ4IOUGN+XTvW8kHJ7VqXcadOYTpR/++3fuM/IPC808FcO11fqo36fNOwRFkCwtRp+Ycte98iG2jyORD9mG5qSkkJlyuDTUqIqVaoww4X5sL9ig+WcbBFZiV02O9biIMv2gyEf0aUxMaQ6x2o0EF8ti+x8HNQvUZC0pd/C1JhpwrH4M/qy8ggCfcOi9ymkHK6hPZkAPIG0/cEgf2nK9+EiVt2M7DNDxjC/nhn7Nq3fu56rgulUR7XqvN9///3ShLaVfokjLDJBOxJMwB/DMfop5YW/AM7rTZsSZcwgmjSEaOpwtWyLxbxPqZ8Y6LTjldK9TRuqXT3ZAJycjmrEpAFn0M0acESIWi9CO5gTURT1vlKl/k3NmiVpRSAQNG634Bo6iGjFvEiHEdlAWAvnzKFXH3pI5QQu2n3wpnvkIAI314tjO2boIyr9PWA4AC5As7sXfQBJ3y1bRs/fcw+dwv8w2D151gFH+idt4f8w8p331aQoIygmJobNkZQR2iWAkPPgH1YBE7agF33CwNTzd2CXLjTxtdfc+aij07a/eFk9Pi7XABxoGWaEaJwBNTXg2I22CRMmUL69T+J7S5Vaw44wOuYGHAgXnZKRIozAVibcRChI5UYTJ1o6jG+fWWqQhA44dh2W+s2gMkdUUk62uC5CMd+LMhqN+FcdHY2WOTGdQMzAGWzwKTFHhQQGCnXp0kXIYLOLgSShtVwATRjU+kXPP8NUyJo1RFOm5PPMbgDq6IT8ZNBI/UrWRx/RXTVXegYOKjCr8wceeIBuvvlmbb3qKvX9nhn484sw77ZAGKJChSj9FgKR0bJz40bK6NHD0mHDu0M64NiBXOo2C02OBRxSzm4rZfXXBDh7d+yg9O7dtXDcDTh2AJQ6AXq7GWq5xwwSuc+8BcDABz2PF0+YQBtH5mersNXcJuAYgIeBgjcALy79vjtwdKYKag+dclvAfDBStIh+3+0+u2u4V0YXUrmxjwPJhVbLi1I64NiBXNowCx8CMat/KWveyr3i58nIxnmzj+MGHPBRHgOY25A5JKQVkXZQxk2LmutwOtZ8nBAPvQDHLHMGDlKXYoaT2Dm+iKg3JsmIggmPEiWVIxp2u2aqvIJA/ziB69I9nXbqkN15jCxhnB1wLDOzJuCYOyxt6IWNcxhRAlAp47bV90mAZABO378S9alMwReeYl7Se1WJ1y9fI0ysYXEDgdSJdvSjHTSazYYbnXbXChQ4GBnsZU8drnnZwT7JqpfN3vckyvsx9O8tHkAgZsIsILuOeD0XKXCg6p2Agzb1wg9X1kwj7hWNKkKGOdA0Tq+qhgiVo9MeCtEnz2rACQcCAARl4ODKgnNufZJybtuCBw44EFqZqfqnzpMmUTDtMDPbix+AzkEYwlS3jni9Filw9MK1a0Oui2kFrV4X/eMQfR9dgYMHih+30IDjBQRSt/A8UoDb9adAgNO7fXtSlID2OqYeOGy+QDlWHXDsiDGfkw7L1nz9bI6XZGZSt8ce08ANutxMFYPfBQwifKFRhOOFNghdggS5H/etW7mSpwxOJVazahwAZ9QTEQEHWkzfDwG7Fxqdyozo1o2mvvmmgY8IMAxBhs45RptmLadkf6H+iSubKnAgtHJh/R9DTJpE4z9SZ3idCNKfF2aCuRIV6a+f1b5NOO4EHC9aBMKH/wDHOFIaxRSjH9JX7pOE472NwMnrWlGdTNWZKnkwGo4XZuCgvXNaHMJxN+CYozjl/Vcwe7nF8HIUOFHn+kOqwxwCEjROYvfjniMPERyEg7Uglpy1a2m6aaQAOIaMFSHnWISpD0PNNAAwIrxIaQQjIVAs0hb2d+fk0JTXXqPTSdWIel5EwTZNVI3R9mGiXqUNPg7uFz9Jrcn+F+VAa0H5i8GxY+m7oUM1JYEOWKJTk8Yxg1WpfDkeguX/IQRzwW5CKAScSBiMDmONJFqxZ5161snHQRtCt0wA6oXpVKeYAYBHH7k4ldef1wtR35bm44zvQ/RJawq+pc5pYUtj2xKlf6WZKtBtFoi+DdkHz2EqpJ1ITKrUoUmjVAUAAAvWSURBVN/a+TgWzR1N4KDDYI7ZPuo7Ecm+HXAs8yQmjROufvg5Z0ujTDnotY8GnNCzKqFPcwXCCMSOXvARplGAY1cmknMFApxLylanS8sNyB+xoM5B4zz+yImIzA4663VUeel4JMABWNF2uAWa5mxpxL2iDaQtM3DAS65fItQQcAQE2IZbpB2YK2kn3D1u1yMBjrgcZjqV0heqXzkwnEOgcQJOfP2TWiThRpj+mtmp0l+LdD9S4ECo4Rb4GNAcZ6P+AU6ZSZdZ50iBE44+XEc7AlCnmWYv9UiZSIDjBHBlUMeOtGCAN40D4BSU2ZFORLJdgbcGn3zSoB3FFGjAD5kqYXYk9UdaVkyUvq2N2dnU/fHHtafj4TSOlzZRvwDUy2AIV+fonj0p7e23DXx08nEEOOaBpWVW1xgf0joIzeBpa+cnTaJoA8fu6bgTcMLNyoZjrpfrwlR9aI5Ubvqn407AkWdRXtoRE1VgfbIJx8MBx0ynMnXgQFr/wQf5ANEBxxDXT8K7swXn6JoJ8XK8NTubvu7UyUCrAEf71iqkcTAyIdDCXAQ4MB8Sle3cupU+f/llOg1fJsRLOx8HWsSrvyLtiLk61z7NHj2alr//vkYf6ARwDHkATb6YuU0tz7F0UrbIImUHHHQiWoubj6NFLTrgQDiFuUg4rx9QXn0cvXkLR2NBA8fJx2Egh8AubypK22YaHYFjUV0hjeM34OR8ja8Q8jOmyjyO+ATmDhf0MdouKuDIZOW59sEOOPhPLTvgOJlUz8DJG6d+MuM34EBD2gEH57zMyp6rENAOVokenTSO9mdnIRMAf8XrxKiMeu5nAWh8O+CIyReLIxrHyaR6Bk4wURUQZkyjtdiZKjfgFAXIZQJR2nICDjQ4CyUEnEj9FQGotHMuMogUOHaRnDLqjTdo8aBBBkcJHTSbKgHOuRB8rveuXrSIBrVsaaGVR6JMsKWnU3AYPkkxvi55rm073Q+m6jXBljVrqM9TT1mcYzNwIn09QoBTEAP3s379aG7PngY+umkcW+DgZXWaPt1QiQAHxPIowdv6IY3jxMAiOW/zdBz0seBsgFMUNAlwNIHahOMIMszAAc2RmFK0UxCTf8wTm3DcCTgya23mpfLf3r1p9Yj8RIICFLOzNP6lpSwgcwVFebxx+XIa9+KLGpiFVjNwEttsj/g1ibPthzxWkft/2LSJPn7+eYPGMQMnbzz+00rthtwXbosJOPMkXLh7nK5PGzmSFvXvb+CjE3BAp0w16Otz9HHMFSU2X0d14k7p7y3yfTcfRxvR6ekE4Nip18IgGJpGP19k5+OYgSPa2+2Vj8KgVep083Egdx6QgQDlfDjTEeARAQczx9FcvAIHc1BeI5aC7k8kwCnotr3WZwccSyLOQEBzT+wA7hk4nR/Zwo8cvBJXGOWcgGMY0enpPHFZ2JN/Tv0rrsCx+Io64Nj1NSxwcv72NKuu+Fp7qe0zv6svIS1YYFdXoZ/zChz+K2zMGq9Xv8cudMJ0DXgBTsqbalIH3W1FumuncQzAwajTAyf0OY+eSOXTd96hFcOGGRwlVKKpriueJGrcmBMqJzZbrcaeSL0ZhWXdkiX0wXPPWWhljXNbKlGDBvwJMDueU3KJYmPViLEIad2+YQMNbd3a4hxrnykHApT45PqoBhoTBw2irD59LHxkvj00UJsKbxyLv1AKfUdkkrnj03ENgW/MICpfnqpftIsSlSQixP/RWhzCcQYOQF29OuXdXE916Kq3I8IrGEW9OITjoBE8xUgGcIrKebftvk04rskbzvE//8ngAWjilSyiV1+1VMMaZ7npxWXuoH5+ZIyajmN8g08tFRTlibWLFztrHMzMfvYZBa9Uv5zMa9auKEnT2vp+/Xoa0qqVReP4CTjQOMHeve01Tiiqym7UiQfg+MafaX3T7zj6OILAlFZTNPQFq7Yh6tBBf3+R7rv5OPzu0GefUWKF4VTtwp+jo21I9yVn6J1j8BFmyk/AcfNx8Kdn9MEHFFTUHEmMnkWLLHJ2BU6dq3azecp+DLn3iPANFvsN0TABROQGnPib9rCpir9kJbV9cBfR7bdHBTx2zrHh8Y0PTJUbcBLvmc+KAtaF/Rv4NtgxTXO7Aod9h7rT8rNKHTigRiq7d1sQWBQnnIDDgrlmm+rEIz9fm+1Ee/eqIEcKtSJcvACnbXxOVH0cJ+CwvFtsJGrXjh+R1KmWp3IO4AE/dYsrcHgirf6+/EoAnCgursAJOZ8VY06owAGdPgnHzRoHUxvRmqAEW1yBE3qKzzTXMoJFL3rHZ1WwzbB3mBNhAN3xE1GUgbNpxQrbZ1V6wUCr4ul4tJYfN2+2PKvS04eoCsCJ1gQl+GL3rAryZo0TAg72H7/zZ0c2uobjMpeDT2zxrCrawLF7WR0d1gsm2sCxe1ldT58fgEMO4bgZOJg2cFr4fZxFgwbRqWCQTmOeIRjkfT4OIIG16hv9r+tCOpOXR0gajbSlWLHIPs6fOXNGO8a+W1n9vSirvxfX7O5d9c039H7LlnRGRyP2e4X+7SYz9HfS2yYsZDq80CTtYKunycu9dn3fuHo19X7qKTqZmanxEcDB4BOeQuP06qXyymvf0VYkNKG8nqfYl76O69uX5vbqxfIGTadCL9Y3qpPHvAQOYGl6Pble46PcK/Wyj/NSQgLNmDaNvk1LoyOZmbyP422zZ9NdtX9l8IwcHqTffv6Zli1bRjNmzKAMhJtEvI/jNWvW0C+//KId79mzh5BkGtewomFkS8f+4sWL6dChQ9o1ZFbHKmUPHz5MS5Ys4WMkh8a9uNa5UycqHxNDezIyNBr3zptHI3quZBrf64f/wySal5rK5ZcuXWpoB38LiITT0s6RI0cImcdxjOzo0g6O169fzwmypezevXtp9erVXHbmzJnc97lz5/Ixsp4jDzHK9uqFCFShjWlpGo092mxnusDT+TNmUKNae+mZZzZzeWQaRSZ6aQd5hLOzs/k4HS/eE5G0s2LFCkLeYim7Y8cO2rxZrQfnkEN64cKFfB1Z35GRXcpu3LiRk3niOLZWLXq5aVNalZ7ONM5OTWWFcUtcLt137w5aOVN9Kg5+ojyy4W/atEmr68SJE2oOwCEJCZbJIGgerPBvIAy7/6viXhXhj5NzLK+AYGRXu/Io4b8corXYRVVCH/M0ECB24Av5Cwy3/rs5xzBX2v9XJTq/4OwaVaGj6HRK37XFBjjxt+z3PXAwEOXldjcBF9Y1J+DIRKUAHe/jOC1hgSOapzhoHIyWtvf/VCyAUxAvnTsJNdx5J+CIEy/AkSSXdvU5fsmpASZksvwAnG2rV9NEvG4nNIW20lGO/lpujSpwftq2zfIlp9CHZ2mIqqBxGDhRmGcCCOy+5ARBAhxYGHZPbF6nEBC5huMGAdn8J6dUUmRbh6fjMm2Azg7vsCGqwLELxwU4eVVrs41i4Hz2gzqzPcH5T2ULja8O4bgAB9uwwHHKVmEADYaHD4CDbBVJzZtbNA5oRUdZIAOXRBU4yFaBBJfyXw6gTYATvOlFfp7GdOK1jyZNCg0bbhXbZasAnQBM3RpqCj+YfVdThczqblGVBiAfAMcpqgKN1a46xsDJ/mBhVIFjF1XpP1MOXttaBfiN/3KTbaFec/Jx8KQAoBbN86cADuwyv1oRSjpQqJx3qdwOOAA2a5n3l1Lwmla8n3NLU6LDh11qKrxLTsARzfinAo6mGf0MnGtaUbBOZwYOv52IVz/sPiEoPMxwzeGAAzP1pzFVxQE4idU/0z5PZglKdrFCBoq5+nDAqRBzks2Vq6maNXw4bfn4Y1uHUxOGT5zjH9ats+Q5NtAIOqOscbQ8x6HnP0IfRjBMgHzXbhZmUR5njRtnyXMMOmXGWPwcV+A4fTsuHda2PnCOnZ6OazT6ADh24TjoE+Ck9FEz2RclUCxtOYTjoBOg8QQc/JdDZt++xULj2P2XgwE0PgCO9l8Oob9WFPoAHEzpQ+tAMNFc7P7LQegU4PC7x24TgH+UcFw6Hm1T5RRV4WGxaB3tlcwoocfJxwEP8VcMAA+/DOcCnP8HUKFT+qk+WGYAAAAASUVORK5CYII=;imageBorder=#000000;" parent="1" vertex="1">
          <mxGeometry x="324.54" y="706.68" width="94" height="94" as="geometry" />
        </mxCell>
        <mxCell id="zyXjHvI1NbI1ozkS3pf7-19" value="" style="shape=image;verticalLabelPosition=bottom;labelBackgroundColor=#ffffff;verticalAlign=top;aspect=fixed;imageAspect=0;image=data:image/png,iVBORw0KGgoAAAANSUhEUgAAAOMAAADjCAYAAAB3jqNMAAAgAElEQVR4Ae2dB9hdRbX3N0USWsi14o1XsVxAQAWBCAhJwCtYEeGiIAgBaRdBxNBNSCRUaaEIyAUJoYQi0gQRkERAivQSWpBQQ0kgoYQSEtb3/Oa867xz5p3ZdfY5J/d753nO2XvqWrNm/afP7ET6Tb8E+iXQFRJIuoKLfib6JdAvAekHY78S9EugSyTwfwOM06Z1iTgXcTb65djRAgyD8Y47RLbeupU57Lh3k0GBVl9d5O67e7n6yU9ELrmk197pN+R21lm9XIwbJ8Kvkwb5bLFFLwevvNKQYz8ge2VS95ujF2Ewotyf/WwvIImI3Vb6upnNk77yueKKDd52200kSboLjN/7XoOn3/9e5LjjGu8HHJAnd/WFOffcBh8bbdSgsfbaIquuKtIPxvpk7qbs6EUyffp0ef311+W1114T3vm9//778vzzz8v0KVPkoW9uLWPXuFTu2XJnY581a5a8+eabzbDvvPOOvPzyy8b+r3/9y5CbMWOGsb/44ouCv6YLnVdffbVph85zzz1n7DwXLlzY9COcS4f0SEvp8MT+4i23yEv/8SX5xRcvknu+8xN549JLW+gsWLCghQ50lSfowJfa4VfpkA+M0iGfb7/9djMs/M2ePbtph/9nn33W2JGfTee1rbaS0z66n5w29EiZftRR8u6778rMmTNNWKXz5JNPGjt05s2b10z3rbfeEuSuPH7wwQfyzDPPGDt05s+f3/SjHOfOndu0v/fee006Tz/9tMmP0nnlnHPk9o98Q0ZveKlM32Ybeev+++WVV15pxoUOcaALrzYdaNh08NP8EIe4yi9pkge1kzelAy8Ymw48a1ho2LoJHfJ8zDEvy7hxc1roUBY2HcpKdVPpqG7CK2WgdIIYmD7dlKmtm9CxdRM6L730kknr6qufM52e++9vyA1dcum0YGDYMDlhlaOMXiQPP/ywySzC4Z0fGUYBef/19240Dc32w+41dogiIA1L5gES9mk9teqjjz5q7CgmjGpYhIpw1I6yKh2EBWjUDzpz5sxp2ilApfPII4+YAuRJeOj8/Ms3Nfhc51aZM2tWCx3SJX3CQg+6Sgd+4Evt8Et62MkHhnxhhz751bDIAT7VDh0KFzt0kKP63XPspYY/Gu2/XvAPIxcAhb9LB2Vz6VCompYqBvannnpKUF71A7QUttqpXFB07I899pjJj/q98Mwz8t2P3mr4Omnnq+SNN94wgFJ/Aj/xxBMmLmnYdFBIfhoWP6VDHIz6ofikrXYUGTe1E/bxxx83dmSC8qofeSFPakem11zzQlOWf/jDB00/ZASoNCwyfOGFF4zd1U3ouLoZwgBl6uqmjQHVzdtvf1SGDJlveDv44Iaeo0v4K0/otI2BWRMmmvDLLzVPEgpo++23N0g3ErT/dt1Vdhx8hQm85sBHRXbd1fZt2/vxxx8vZ555Zpje1lvLmsl9DT6XeVyELtfzz4fD1+Bzww03yN577+1P+cQT5cTkl7LCgHfkM8vNlrHJOJHrr/eHjeh63nnnyeGHH+5PkVZ/9dVlpcWfMXLbJ5lQS/mOHz9eLrjgAj8PJV3HjhX5zGdE9tlHZKWVSibSE+03v/mNTJ48uVoiPbFPPFFkhRVEfvADkeHDe5O8/fbbZaeddup10LcTT5QpyQgjfyrp5Oabb5YkSUwtp2HM83e/M4U1fN158pWvNIYXZqIE9zabzTffXHbeeWc/VSYiksRkaMcde/hcc822T5CceuqpMmTIkL489kww7bjm/aaAUKDhKz7WOxbvGyOayy9/+UsZMWKEP71x42TOF9YxcqN8h39lTkN4kSe+NtpoIxk1apSfh5KuKDplTX2CEp9zTsmERGSDDTaQAyKN35UvQDl4cC9PgH3gwIG9Drz16MXYEVNNxZIOxp4IBFIlv++yxpiwNdX6balgFJH7fnt9s1Dg974rn6mfKYdCEIyEmzbNAJEa/fLLeyoMJ34d1lQwisiUs55sVmKmhYkMRPJUBxhtANIK8StrYoIRAALEKVMaZTxnToMrLxjxmjZN0AlAbBq8YMvYkzsyronz7ITJAqPyB2/Kb7v5TAWjNLpTCP6++xo88qzbZIKxR2ls+cXmKTYYP/OZfUwZq6LTKtqtUFH+Y4JRdQ/e9B1+gmCUBhBp7ABkuJsqInai9NFRpk6YLDBSIGQeQ5+9E3xmgRH+aBUxvFfpWjVSyf7PAiNyolwVjHVUEDHBeMkll8gSS5wiH/1o73yA8t4z8Z0tFCdELDAqHypDu7yzwEg58EuY5brjjjvMDKPDZ7OQyCjI7YSSwxOTTMxOhgx80cxjOsUns6r33HOPl0W7Umsnj8xu6iyijzHkhrwwKA8KFdtAHz4yTY71zZVXXlmS5D5ZcslTzaypplmFd2Y5mVmtahSMmg76qHhh1vnOO+9Ur5YnwwPC8Qsv+jOm6OnGENudIWpJscMWW6m0ye8wSy3kVY7atao6zmlJvILFlptdk1dIslzUnskM2Xff3vhsMuHXY2gVl112iKk0llhiK9luu+3Uq2O9oSYD0hgr0itTk7dR0IrE6AhrdT/84Q/NOpAmpE9VIux2wal/u55HHnmk0A0MGVu5O8XntddeKz/72c+8LNpyJEC7eDz77LNlzJgxXp5wRGF08qOuYcivf/1rOSdPnxwgopnsoNp228a7tYVwpZVWkiTZwgRJksEyYMAAs4ao+UCmZczBBx8s57IbqaJxyxTZ0jBgbrnlFvnxj3/spdACxrQJHHssBrGqazpebnI4Zo0Z7VqoU3ymjRndGVRbrjmyXzpI1pjRlpv9XpqgJ2KhMeNuu8kWyeUyMjlHhK2DPYb10uWWW06WXPJ8WXzxm2WZZZYxSwXbAlppKD38lzGxxox2gwAfZgmrh6fQmFEn86iszTJNGhhRbGpMjFu7N1zb818EjK7it4dDMS23d52xpyW0uzAqS+221sVjUTBqKxmTnyJgPHH9i2WFZK4MWmyurP/NSbLr1bvKXS/cZca948aNk8GD58iIEVOFd36XXnqpYdVtlYrwXwmM1jjXrcxsnkJgdPUgdTbVTtCNWCTDVcNmgZGpbXjFKJ9VaRaNn9Yy2nKcMWeGrHfcNqa79dE9/1v2u34/eemtl4qSyxU+C4y23OyaPFfiOQPlBuPIkTI8mSqbbXyTJCPGSTJwjiQHDZYB4wfIkTcfmbokVKWnkRuM7imXmTNbTrnYskQ0lLn2JLPAqKLMDUbd7YCyt9tkgdGefLCb/nbymReMm0/eXJJxjR1DyTZbyMDDB8rhfw9sWauYgSww6ngFMnaFUZFsS/TcYNx6a1NBrf2r8QaEycC5kmwx0sjqS6d/yYy/tJfWQqBiBZwbjO4pF47tWaeYbFnCn11B5AYjm2kffPBBsxHWzaRbW7oE3fB12ZkaZ5N2yLh8ufZQvJjuTF/rhm83Xbp/dGPeePcNWe7I5RpgXPH+RgswLpFPn/hpN0oUO5ux05aEbDnZNXkU4j2JQB8+soz2aGgNTWW15kRJBs+QZJsfyJKfu8UAVddp3bSqNBQcIGCDeS7z+9/LnGSwTPiP40QGDWoeJ/TR1/yQLpvKH3rooT4kkDlloMZ6VafeJwpkjyOIyHafbjO2UsEb9lDBdYJ35EjFhvnwMR9uKNtKUyVZb4J5X/13q3eCLSMn7enYNXknmNFN1uudtZ4MOmpQo3Uc/LThceAX7jATHGl8uTqQFra03/z5ss/HLzQ8Mb5VM3Fig097DsAGo4Zzn25vJAGxm222WcsiqkZyB6WuXcPV/Rw7dqxwcsNnfN3SuqbpffTV7aqrrpKfcMOAx9hyG3nFSPn4sR9vAHGlqTL46MEyZUY9ff/TTz9d9t9/fw9HvWNrBWMe5fEmlOHIJvHUEzc98VUxj7zlSFNBAchBYz8tS41aWc68J+XETk/8sjuv6MqfZS2hBLPDKaC115bhS91mwLhjMrF5ymWNNUYbNzuuypPn1KlT5fvf/77tbd41z+qROma0lYgIrl0TqfuZNmbUTNu1Uif4TBszuvxMemCSLPPN38rAj74oVz9+dW3iSxszqtzoYmHUbssxBmN5x4zISNflmNBCRhc+dKHp2ufhw5VxnjiEyT1m5JqU1Vc3oGN3zZpfeNN0wW4YM0YWX/wwSZKnZQpCtIy21qExY59hYNrShptBHftY9NrymgeMNiN2wdrudb6ngVG3PNn0Vfltt9jvecCoNH09DPWr8swLRp+MitBFN+0hVd64ucEoIjOuf8KAERABtHWO+Iys/OUfSZJw5neqAbZNNwuM6Ck/NaktI8cCaUrVuM2qutf9LApGt8apmz/STwMjheKOtRWM2jLVwWMRMEJflScmL3nBWJV2Wd0sAkYtsxX2GW5klawzrvHkYHAyTpZddtmW1pE8MRYPtYwAUecSjPzTWkYSc8EIQNtt0sDom3goWzBV8pUFRqcHY0hVVcAsfhcVMPpmI7Py5vpT2ZU5SlUEjKprzaUpA8L7ewDJif1ENt100yZrOneRBkYbXwl3pOj9M81Uel5QFntWUplxw9VtZ+qZ+0l8hszAp21+ccBrMnC5d+TN9960nWt95+6V0OmEEOiYdNAWk32kw4fvIxzMt2VehWmWW7gDxmd8coNPWzl88Yq6QR8+0oy2OFXGq5pGGh2fH/cNZfGn8ZDNx1ab1jsbnsyVJGHPLOvGvT82tWNo+YjDnT/cVeQa9Vd3R43VufF0lahshltTjWsjs3a/+0eX/kgW32mTRm01LpEtL94yLsESqbly1CTswhg8eLAsueRzstxyC5o7NzRcHU/kpsfONH372I+6teNJ5YOMqhjVTca+dRkmmNZa73VZ/DeLN5ZefrmSAeaAwwfIc6/3XQe3y9fHk+ufPPDAA7Lhhht6lzZcJTrqvNuN0H5z0ZW+tGtzO+igg+Soo47ypm+D8Y7n72gIamTPJT/jElnq8KW8gvImVsHxT3/6kzn94iaR1gXTSYdTTjlFBgzY3ch2nXX2M88YSnXSSScFL8my5aY8u8qh7lWeP//5z1NP3JA2vIR21xSh7eprnrh77LGHnHbaaXmCmkqfMR4VPIBcavxSBoxbX9J71MtOCHlSxjfeeKNssskmtpd5d7fQpU7g2Jn7/uTvNxQ9ERm0++ZmfaxP6jU5pI0ZbaXa5o/bNLoQe6xpFDoBlOMSOfqWo2virDfZ0JgxrcaGd8bgXFbUmJG7Qj7xiU8Y3hkSVDVpY0ZbbkqnDjDmmcDx8aI8FXmir0XlVmTMaMvnyVeflHFTx6UOhTRfoTGjy28uMM58c6bZQ9kcuI4cYbZ1nXh7e7bj5AXjyXee3ACj7v0EjL9J5IrHrihSpqXCZoHRl6h2z5ZZZrVG5ZGMNGOPwYPvjzJ2KwNGFC6myQNG7SFUpWuDJW9aRcAIeHSMnyf9PGCkslYTBKPW6DypAQwQUXI28LKrflwia57RnqnVNDBSkLYCNflkpmubLQyf7y14T/Nb27MMGJmwoICXWOIWWWyx12X55Zc3P87tfYWrEyuaNDAiM1tukKpjSSgPGMuAyCca0tGNAz5/n1tRMNrg8aVnuwFGej5pLaOdXiYYGfMwK9lUcvZUjhgn/3bMvxmQ2sTrek8DIwUAINU8PvtxGX/zePnQh1+Q4TtOMefh1K/OZxkwws/nP/+mAeRmm71o1qjYxbHjjjP6AKUM71lgtNe4SF9r8jK0QnHaCcYy/OcFo1acNnhCeVZ3WlEq29xg5Fp2lg64Mt42ECUhNd8+/9sy6MhBsvhnb5YBa0824FS/up/6/QgfnVCtGnL3pRHDjSvcubbdNa4cXX8maqhM7Gl9LUQ3bFE7yy1cj+8zPvmUUWZf2rYb9Ln0LM0U7f6F0oJ/PUMYCuO6s6yRxR9xtByLbNLQOCwfcmGZbXwTexbc7KC9xG1XDsaO+PH98pWvVe9C2elWefcpFenhXrTLUoWPUFwUxK7UQuFsdy1E2y32u09uZXiNwRfyIc9VTZ1yK5N2Whz146kmuffee+WrX/2qOXOljjw1sO3Gex21p0vDtdPd4poFn/EpFeHqGP/46KvbxRdfbE6/qF2fyMu+ckPd054q+6rLG8cdd5zsGvg+ik9uOqGUxltRPy7pOuGEE1KjxQKjr7VJJSwiI0eOlAkTJmQFazksnBm4J4CW47nnXifrrbdeSzT1sx0zx4x2YN5RrjLbjtx0itizxozw5Jp2VxqhMWNZPmIoaNqY0d13jPx8CuLKtag9a8xIhRMjr8oXaRXZwZR3zEg5upsklGboqePMMWP6fmvDJ+sgGENb33yJ2Mzg7y5m2v5l3tPAiPBDYPRVGlSCRfr9efld1MDok9uJkxtf8vrL9L/I+wvfz5v11HBZYMzSp9TEPZ5FdxEVASO9iaIGOecBI2dag2BEwUnINWnCoyYAAAiEuPakhJtOEXsWGH1rPz4+tRb2gbcIP76wdYCxKp9pLSPlY7cgP5j8Axnws81MubFZYuVTVpYYS0LtBmPRNctuAeOtz96aDkZfTaAKjbK7BlAwPtLmuehuCDc9tWeB0ceLgtGuELS19+VLaZV9xgajb0xXlLcsMKrcmps6uH+G9dmenUtn3H1GUZJ9wmeBMdbMsRKmAitSvnnB6K5nK72sJ/Lcaqu+3VRfY5fwRVamwPnss23SMgUBLUg7DuMQncFEIO46lh22yDtfmGV62GdCvGiFYPMJb4QvUlg+mj43lojYne+aNDm6YW17DDAiM5ZcfMaWG5s6FvvNYo21ZAuMMTZ1QJ8vEYcM8ik6FgulhbtWuGlhbD8uZEvjT8OW1WfijRkzv8/yiReMSsx9pikRBem2ejqTpV2fds1m2krl5gE/5Qc/1qDYkIx7uwyFwa+oIY69maFo/KzwttzY1GEugbK2ES5x2BJt2UaYpmdZefD5a48o9rwA5QGvRU0oHmm5lVBy9913yyqrrCJ8a9w2aULyDZJ//OO/tCg58X0TKDaNvO//8z//I4cccog3uK1UbgCbT20p4asOMPKp7GHDhrksGCCWAVWMyoxvlPz0pz/twxMOrtzYYbXMEcsY98U2/o05FOCNWNCRD9QcfXR4o36anhUk1Qzu5q3p4XnZZptt5Nhjj/X4tDqFQNUaqq+tUaleI1/+8pdbPH35Tp3AISGfcRnjwyEf+tDvZOWVe+/H1BrKF7+oW5kxIzTgU7vKX/vagUbRaCnrAGNozOjKKm/efYWVN66GC40ZQ+P+aa9Mk49/bqbsNqq3HDWtss+sMWPZsVgaP3rCPi2M+uUdM5a9o4eh0Re/6B8zuvgKgpFE3MCaAdzt2p5NA3w3b+DA3hpQC5xnVRMCo9Kwx4U2LW1drrnmGllssd/IsstOb14TH4pjxy/yXgcYi27tcvkNgVErSp8MylYeLm21Z4ERelphapyqzyJp5gUjFbg7NMvDJ5VqZTCSIX4+Y9faV199tQwcuKJpbZZeetuW3QxFugs+OuoWAmOaUhGXmToUesQIDhtPlSWWOE/olsfiS/njGRuMMVrwLDDa/Os7ZU75xjJ5wBiTHnxrJZwnD0XA6Ku8smhEA6Pd+tlEIcDMKabRKvacrO/5bp6GRel9a4Dqn/eZBUZnuNtMVsG6zDL/bgCYJCPNhUGLAhiV92ZmSryUBWOoEi7BgnQCjOhc3vmKdoBxmWVydlNZ0mB5wzVpNaROH3PcZ+mllzbX1CUJt2Ql8uEPf1jGjx9vkktLw6WXZudEiXuqhPBZCquTNkkysQeMg4W7ZmJVEjbPZeRox3ffs/LmhvfZy8iNijYmGEM8KL9lx2Ia3/fU4UueIVIWf5p+2Qq80cPpizHfWDl54oknzDojx5R45/f+++/Leuu9K3vv/ar53jkMqx9HTq699m2j0BdeeKGp+T72sWmyyiq3C/eJMGt0zDHHmPDrr/+ejB69oBlXj/RoWlQCfNAGO99Vx65+0CG82vUYCnZus8NceOFMwwdHwFiL1LDEIz7fUR/c870GTs/zhWa6rLiRN8JzxMelw4da8NMbvaCHnWMwNh3WFWfNmtWki5zIB2HJF3KkEKGlx8Dw48falktn+vTpxo+jWNdd966Je955z5n1S5sOwOcmOtLhdrP58+ebd+wuHdY/XTrnn/+8SRs6rLMpT7zvv/88GTq0IUubDre8kZaGZfadn9rxgxfs8EZc9YN3m44eN8Mf+VC5z5gxw4R36fDRGFc30+hQJpru73//njnWhh3ZYihT7MiEMuCdn4+OrZvwSVkQlvxw7ErjohPoBnb90JDS+eMfZ5s8aljVTWTMDx159tlnTdzkoosuEj7ySeBp06aZH4X7ta+9I3vu+YpRfJRM/SD65z+/ZQhcf/0TZlEZRo844gXhk+SYxx57zITfeut5stFGvXERKlcualowAvPY9bpI9UNRKGzsW265peyzzz6msLHr157OPfcZwwdCQyAal3jEx77HHtfJCivMkQMPnCxnnHGGnHzyybLaaq+YvOEPP0oHO+mQHu9Kh3xhRwlQKt75IVjkwTvLCOuss47JB3aUCzkimwMPbFw1Sf41LpULwMWOvDBKB4VEqYjLR1VsOoSnPFAum46mSyVEBYOdy6C22mqrJh3KGKMfakEhoaNxUbBRo96UVVd9x7gpoPAHYCivhoUGtNSOH2Gwq+Lz/s1vftN874O0NSw0ySN28kgvQPUPmSAbDevSAfTIFn/ouLqJrPBbd915st127zfpqG4+/vjjxl/pfOMb3zC65dNNAEVaF1zwQrMssKNbSgc7OoFu8K500B3sf/nLi5IkV8qKK37G2FU34e+nP33VgFHpBGdTs7qYKkTtTvkWWWN1ebLGjEbDCvxl5a1AUs2goQkclVMzYIGXKnEhExozUi6k7TOxt6dljRmr5tGXB9zseY1QGNzzjBlVx/N0e320kmSyLLXUwBYvnw6WBqOu5ZDp0DV7+FWdnicHITCWnXFEEKHJqRaJFbAsamAMlZkqXoGspwZNA6OO6aEZ2+TVjSJgLMsjEzhLLlkjGFFoXYvk6TN5BeKLa7uFwJhWw9vx3Xfl23WvYq8LjOSxrElrGSk/n2knGJVW2RbHx7+6adpqDz3bAcZvf3uyLL54DjDeeuutMmDAgD53pTA1nKYIuoZHNwPQ+Uxegfji2m6Me3bbbTfbybzDX6iG7xPYciBeSBmtYIVe+RbiZ/mstGOqdMPgMa0MHFJ9rPvtt58Zs7keafnXMvMNO9x08ti5vPfAAw/0BlVaXs+KjrpXGhppZvjw4XLwwQenBcmctU+NLCJc9z9o0AotwXxlGxg5NMYUaYpAZjkulQYGFXaWQFq4LGBJU6q0ZMrGS0sz5NdJMIZ4Ssu/LgvUVWY2T6oftlvM9yqyt/mog8/CYMza/kPBZdWgsQRiC0ff05RKw/ieZeP50kpzqzomosBibxWD36z811lmtrzqUHI7ffKRpcN2+NB7HXz6ep7J7bffLh/5yEfMWo7NTKwCiZEOO//33ntvmz3znqVUfSL0OBAPvmIaPkW9+uqrtySphcizjPEtDBdJh5MujLddkyW3GGWmNL/73e/KmDFj1NryjDWn0JKoZbFP7VjOLa/f+ta3gpedacCq+sJ3WP793/9dkzNPZEy6tgnOpsYqENKpuiUubQKH1qOoqUMJfBM4VcGYBZqsfJeZwCFNyixGi0JaabOpVZU8K/++rqAbJ88EDnwWveHPpuO7xNgn49rBmEcgNuO+99hgVJD4aJV1SwNjaO9sFq26wJjV4jIPAO0YJguM7gHbGDQ1jTzd/LxgLFPpKx8hMLo9pkUajFlKpcJwn+0Go0s/rx1AVFmnDbWMKFaacuHXLjCm8ZFXTqFweZawugqMt912m9nczbYj28TqpiLsqgvsP/nJT7xjRtIuU5gKxrItli0nfU8bM2qYos+qu2EYM37/+9/vQxaZhdaGCYx/LDB+5zvfkdGjR/fhAQdolCk/b2Iexzzpb7bZZjI2I7N50vGQbzpddtll8slPfrJp58WHL+80RtVZQJtqkbNldrw87xRkGaArGN1uQh6aRcIonSJx7LBV49tp2e9ZYCvb47Bp5HmvquRZNGKlHysdm9/cYFQliKGsdWREM5WlVBrO9/QJwxeuipvKsWwaVeOH6GbJrc4ys3mqG/Tkg3KuauqQh0//Enbg8OVcu5uqShALjFXGPQiSHTi77757H5lmKVWfCJaDTxiWd+FXToR87nOfa4mncmxxLGDR+FlruaEk2YGz6aab9vHOkhvKp4fH+0Qu6MCpiNAOHPhI6y4XJNUnuMqvj4flwJG60GVnGqxqpcEOHM7RqgntDvJO4OTJhCac9YyxjBCaTc1SqjTeYoMxbTY1jY80v1ChpcWx/dImcABcyLCsEaNFIf202dQq5Rfi3XbPo8d5JnDgk19Z486mKl88bVM7GJWwTbToe11gDO2pLcof4esAI+lWqTTKgjFGmakMuwGMaT2LvGBMq7w0r6FnCIwuX20Do0s4xLjPvS4wVhGwy6cPjKRftYXpJBirlJnKp5NghP8s+XUSjCojfSZcTfGpT32qZTtczJoxj0CUmdBzp512klGjRvXxrtLNybNVqg/BFIeJEyeak/52kFhgLLuDiSn7rbfe2mbJvPs+B2cHijmbzi0Nhx12mJ188z2Lj2bACi9ZYNxiiy3kiCOOSKVQRc9I+Morr5TPf/7zTRohfHnnmkKBm6kVfMkSSMHkmsGrCKlK3CYDGS+Asco2KpKPXWmQJuWR1SsgTMxuvE9UefjwxSviFkP3YutKCF8J95xwj4htQoHtMEXeqxYs/MGna6oUZmwB++SIwkOniqnCp48neMkjt1hb4kJlp3yga3Ua8prWs0jjT/mqUgak4ZZDCF+1jxlhpmrBhsaMeZRKBeo+qwrYTS80ZuwkGEMTOMgtCwTwHWPZoc+Y8R/jRP60ssjVqzfGc0fvJHLNGiJ37eWKNIo9q2eRZ8zoO2ufXKAAACAASURBVO5UhLnQBI6bhheMMae2IVhV8dPAWLYrBU9ldu+4AlR7nWAsC+gqYIy1c6oPGG/aTeT8ROSCpAHG0SPMu1y3rooy6jNL9/KAsUqlT2ZcMIbw5QVjjIkHW6JZArHD+t7TwJhVw/vSw63qQq6bbl1grAKKKmCka6fr1L/73e/c7Oa2e8F4gQeMf147d5pFAmbpXl4wltUzeHXBGMJXW8BYVfHrAGOM8ZytFHWBsQqfVcCo12+MGnWeOUigd8jaec7zHgLjfUeu2doyXvGVPMkVDgMY+YVMp8Dom9hL7rrrrj7fZ0QBYp4zq6JQCJHvM/ouDcoz9gkVQlWe3HT5PiOKZ5sYNKqkwZS97/uMeeXGWH/ppY8xn21Yd91y3UhO3LR8n5Fu6gWJTBnd+D7LjAkr1dpNzZIf32f87W9/axdbn/e88uoTsceBr6B96UtfanqHePIubYQCN1Mr+BI7PSVfRUh18aS88YxBo+oxKpsffc8rt223/atpvZJkjgwatLlQcVc2gPHCJWTK6P8yacvkASKTPyR1jRljlEFeeeWVTYinhO9bcPW6vXQQCpyXmBuO9HT84frlsXPlPle+u6aKkOAp1mZo+OIqf655tw2zkWldJDts6D00DR4Kb7tz5T7ftXBNXrktv/zykiR0J6+QJJlhbt9208qyQx8+mmbmnSK3HyBTzj6nAcYHx4rwey3ChzybRHpfsnS5D3+9UZtveeXVjOC88BkLPmmgJsRTcMxYVYmUMM8qCkX8usaMCDmW8Y0Zs8YreWhXkZ1vzKhjwawJCb4dwhfF+LJYkjS6lMsss5r8/e9/z8N2M0yfMWOPT5V8NRPP8YLip5Vz1pgxxg4y3wSOD1+LLBirbtmKcZrE1oW6wVhmn6gPjAqCLDCyTWyNNdZo/pZY4k0ZMuTXwpfHiphOg1HzG+I5C4waP0teofRx70owllEoMuNrGasKSeOnCbGIXwiM1MxVTJWaOQ2MtJBFDDV5mU0AITBmtVhFeEsLm1XOecFY5YoWF4yh5aq2tIxVW7H/n8GIopUds6SBMU2BfX6hcY4vrO2WBkZma+s2CsYQmPKCsQqfLhhDw5fk3nvvlbXWWst8LFIJlhW8xvc9yyoUaaFU48aNa0lWhdziWMBSNb5L6uKLLxYuN7INQq/aMpJeWdkde+yxsssuu9gslR6/h3aNtCTusey8885ywgkn9PGpQ8f6EBGRrDHyyJEjZcKECb6oxi2Gnlx33XXytaHriPzrWpGXp8rwDebID741y7zbE1feKYyqi/S+nKFQFGgsU1VIGr9od60I/zHBmLbZuQhPmu8icQirSh1LXu0CI7yXrcyIW1ZefeT75DUiFywuMnlZGb7aLTL2v48UuXj5xhprT+CEL8Hy9V375EaoGe1DoIBDlc3ifO2VL8XapqqQVLlIJ4ZhipyvINsmFhizNjvbNO13lqz4Iq9tqsgNpS66F5i7leDDNd0CxhB/ym8VeWkaLMu9dMcFIhcuY8A3/ItTZeyW4xpAZGtgj/GOGesAYxXFTBszakbKPKvUmC69uiZwoFNWdjHHjPBRpkINjRlDkxiuXGPY03plWWPGst1zm28zZhywVHkwxhjr2AyhUBRAGdMPxnJjz9hgpAyLzqiGwEha/Nph0iqRLDCCA8BcxXQdGKuMQxdVMMa6VqKs4vrAWGV9tUxrlgbGspVzUWAgv1DjkgeMVfdpdx0Yq4wR6gRj0TFQSBF83VRq1JAShNLxuZeVnQ+MpFW2prePVfn49LmlgTGGbHw0XbeqYKzagjfB2HN0bM3P3Nc7Zryo9/Piyf333y8bbrhhy9JGGvNuRvPayyoU6XMJLtuzbBNjA3UssMAX31Ng14ptYqVfVnYnnXSS7LVX6wn6KmAsM5mx5557yimnnGKLxbzXoWN9iPQ4QIuemc/ssccectppp/m8jFtZ2dsJ3njjjcLn1NWE9MLbG65DUFWUQDNhP2OkV3aW0uYj7R2hx1jOIa+xNrWTVtlul4IxxvJGHToWKosy3WtNC3nBa0yDXviWqhKmXf/1r3/1WdqAiZhGC7JMmiy9uMsG8Oc7oFkk/ZgKwdLLM88800IeoZPvqqZsL2D27Nkyc+bMFvJVlatonl544QWBD9fEGk+76frsaXmGP/vTFm78tLhu2JCdExtPPfVU0zskw4RDsezMnz59ujz++OPmN2zYB7Lvvq+b96efflo4ZqV+s2bNMutGaud404svvmj8n3jiCUPwySefNHYyCtgJe955z5mxChnXuKT77LPPGjuK7NJBwQlLE7/jjjs26ZA+Qho69G3jD3340HSJB59qJ13ygd2mQ/wDDnjbrGFqWI77oMDYoYNR2bh0WD9TOoceeqgMGTKkSYd8IXTyTVrke+7cuU2eoIN88KMyxCA/7FQ+rFvyzu/aa982aamd424zZswwfs8995w5vqV+0GFdFjsyGzZsmDz//PPGjkLYcnv55ZfNsS+NyxEw3NQOHeJgJw2OiZGno4560dBQOvjjBy+8E4e4vK+zzjrmcDhpY+fHO+nstddsk2fybtNBNhoWGqyVqt2mQ5kqHfypsCkTDYsMKTPoUNYYZI0/socOu8/YpQQdWzehQxn+8Ievy9e+9o5prDTdNAygKxjFALo0adIkGTBggKGLbtp6gW6ik6SdnHfeeQaMWB555BHzA4z77DPHvGurqX4oCgmqnQyTMex6NYOmReEAEvwmTnzaMDFlSiNd3DjnRSHwDh0Y450fgkV5ed94441lhx12MAqB/bHHHjNKte6684w/iqJ08Cce8XnnR7pKh6fSIf7++88zBaFhSYf0sJMPDPnCTj7Jr4ZFDigvdr5BCBjJB3YUBaGTb+wUIEqlcamkkA92rcTUDzoorNqvuWaeSUvtbNCgsLFDh40b6kcrpHSQGWCksPGHDmBUuaGo1NoaF0XGTe0outIhDegQ9+c/n2VaO5RXw+KndFQh8Vt77bWFcRlpa1ho2rJBxvCGP2kAEg1LXsiT2gEJecbu002bDjIEDPC7/PILTFkqHYCmYPzZz35mdIAycumQX8CoOoM/Ze5iQHXGxQDu5557rgEjcQG9nXcwQMWKn3fRn8AUWkxTZbO4bzYV/qr25YkfGtgXzXtoNjVGN1W7+EVPvYRmU6vIjbhF1hpDs6noWAzZ5CmntOWcrKUN8lt1CcbMpg60Zk0DeW8bGBFa2QKoC4xV1j5dJagTjGWPUdUBxqKTId0ARq3M3DLDngeMVRum3GB86KGHzDf8aHbVABrfbI/6l32SbpnZRcZjxx9/fAvZGC1jjDSUqauuukq23XZbtZpn2cqnJZEeS5m0Tj/9dOEbjbapmmfiF5nZ/dWvfiW///3vbRbMe5n89Ekkp0MaGKmw/vd//zeYEi0jea5ipkyZIt/73veaSYTy7l3aCAVuplbyJW1bUtEkqyoV9GKkkcZ3TDnGSqtqbyCty5cmC9uvbEtvp1HkXcFYplscA4w2r2m8JAxyaR0ZoKqJVfCanj7LZowBOwNh28QAUow0lCcmM3TwjlvsUyGUSdHeCpMXTFjZhjLgV9aoMuWNzyQLk0K20TTKgMNOp8h7SKd9/NnpltVZOw0mFB9++GHjlJb34JixDkGRsTKDYd+YsapSIRnAWKTLZQvYfXfHjGlCd+PmsZfZoOAbMyK3KpNWmq+8C/++MaOmkSffscKEwJg1ZoyxHmqPGdPy3lYwlu0i1QlGCimGCYExr9Jm8VCmhg6BkUqoigkpti/NRR2M5LWqvLoSjGW7hSEwFpli9ylKWi3lC5/mFgJjWpwift0Gxrwb7LsJjL7Jw6yWETD64hUpu64FY5luYQiMVWusRQ2MALKIqatlLDIR5wNjjEmgInIgbKiFywNG9KSKyQ3GadOmmdMGb9xzscg/DxZ5cFxjPfDsieZdXqrIiZWLsoXAiQ1353+ZlsJixbzGBOO1114r7ORQEzNt0izTqzj77LPNziDliWcMuRVJ45BDDpFznKaFvACOdpoQzwcddJDZIRPiBT6rgvGWW26RH/3oR4ZEml70iuSyL4lcsJjMOYtbpEWmjN7Y2OXeUSE+C7unMVI0sZBwi6QTkx+Xbuy0y4DR5Ql7DLmRRpUhQqy8+PIXciuU78uHNu+naWCh5xuSD7ce4wvRSnNP04uEvXx33HGHvH/JGoYB/ToQT74WFBOMZaf72SPKFLRtCgnXjmi9q2B4VjXs2eXaSzWattqrPlHgol183cNp044htyK7cOh5sd/UNt0ERvhjn2qLuWx1PxjvO7AlWF4Le2v/+c9/muDkPdQr6J1NnbiaH4x8NSiiKdPsN8eM957dFFLLDVtXfLoUh1X2y7oE657AKXOMqq4xYxEw+caMReK7ci5rD1VC3jFjDxjn/O/gnl5iT8N0V+tupry82GPGUmBsfjcvYjcV5gFj0cXrJhhv+ZXI5MZdky1gtK67yysgDVemctC49rNuMJZpaX1gJL8oRBVTpGLwgZEuLuBop4Ger2udBsY+vcRbf1GKZReMobwHW0bTRY3cTSUnoRoqLZc+MLbcI9KFYCw7WRWSQzeBsQgvPjCiA1U2HoRklOYOTR8I8oCx2TCV7KYWB+OVPxO5/Isy5eidG33aa74swu/RE9PyWNgPgfhqqLSEfGA0NbznIti0dHx+dbWMad0RHx9ZbgqAIseoQi1j3jXCEE/KS8jfdg+BsWrrbNPI8w69QmC8cIBMOfRbDSxcspzI5KVE6gYjB3W322675scciwg6jxDcMCGhuOFsOyc2zjzzTBGrmxoTjEW7zTZv+n799dc3Ln+6c7zIvaNl7P9MbRTkg+MaS0TvzdGgpZ5lNldzcPzwww9voRej8ikyEXfYYYcJt0nYBlB0Cxj5hgstV4uZ9ZjIizfJlD/d1yhDlvf4vTWjJVhey+233y580wOTpv+9Sxs9KdcNRhS/9FeMb+NK9A+JXLSMEdKUsd8Woda6aOm8cukTjnt0oioGXeYLl5KxW42Xr3zmARGu4uMXYb22NJBuPVTksv8UuXq1htyOGiny59VF7v91H3nkdSjNS8mhSl6+QuHSQBCKUwcW0vhIuAbgpptuMneYwFQdDNiZLZP+gw8+2DgRQevy7PVGsY0y/Om+hpJX+AR1rFqaUyX/+Mc/mrO9fEuBSSYz9r5kcEfAyBUTZrnlpl1Ezk8ML0Zuumx13VC7aAq9k06e7u4999xj7hCyE6cyjloB2okH3kMggD+968iNWkZX3TSwc03H1KlTjVeIDzx7J3B6bvCKxYCPKdyKdHE0jeaYUR0q3BpgJWFeY4GxOZtKy3hBYi6pbYJx8iCRp651SRe2A4AiXermmBEw9vDVAsZr1ynMg0bIuyXON2aEB2dTjiZb2xMQ+Hpk3gmcHi5iYcGewEk7LNF2MJJPoxAFFtoXeTBevEKUlrHoMapMMF61Vmnlz1uJhcCIorfThJZj0sAIgNHVqsYGI3Lj5zN9wBh7St5HNG+tqnHrBmOZM5bKmz5TW8ZLlo8CxrwAUJ4ywVihmwoveWbFuwWMoVYuC4zoalXjgjGkb33AGKs2SMsABRliyBevbjCGaiofLyG3Jhj/+J8iV6wqY3/yOxm+xl2NiRImS0rOxNn0KoHxwiVlxsmrNnolh24mctEAkQpgzLslzgVjmVlhWwZl38uCMYZuuGAEYz6TMMjfddddzT2dBGgHGPMWpDKMok+cOFGt5lm0q9sS2bKQ3xgC59Kh/fffv5lyrHSbCfbMQhbhlU+bH3fccWI+Vf3gWJly9jkNMJ59jsiDYxvuNoEC73nz99vf/lYuueSSZsoKCrYittMoXZfm0UcfLX/84x9dZ2PPm0dvZMuRfal8cwSTVqH26RHDQNlvMVj0U1+h4RtMp0ayPMtMAlnRW15jCbwl0Yz1JDdsXntVXlUhkV9VAy8rrVQ8FeWheMxqMcrQrSpvH8epYOQipauvvtrcFk3kOhhwmSoqmLvuukv4WpYajc+zqomVX26FvuGGG5rsIPQirVgzYspLUV45kXDbbbc1U1S5NR0qvOSdW2C5Bz7UxORB08zzVLquzsAft3n7TFF5+9LAjRviOe+KSQXjzTffbK7314+TxGIgxBjuRccN7phRBRurho8BmuaYsSfjdYGxyDGq5gROD08qt7SyyeuXNy13zIh+xZihzMunhgvpXNYETgzdyD1m7AQYERAFkmfRmLAhMKqgqzxjKYcPjHlmG4vwHpqeD6XRDjBmVYg+MMZQ8FCe09x98wxpYIxVodpgTNvw4J1NbYewiqyZ1QnGvN2ttELGzwdGgB7T5G2NlGadYISGT7mVtj4XdTDGOF1igxGZhfSiY2AE8HlbjjrBWFTBVcncZz8YXYk07C4Y03ag+FOI5+qrPLJaxhBwinDlgjHUI0y4zoIalJvFMRBvR8tYhA7fQiBDamIBiPRipcWlQ2OtkkOGllVZr/RUXhn/5DF/+tOfTIutYTW+2qs+02p5Tfvkk0+WK664Qq2pExjNQDW9+MA4YcIE4TspPhOrDNkfrN888fGgtL1LG+0AY5XTGzGVKmZaKlSesQrSTrPqNSGx81omj2Xi2DKo8p6n8rDTr4PXVDDygUgWh/nYJaZd3YgiikGroxf6wGORuLZwfe+aVt7WxpcGbnwg1K5h6yhI6KQVpsvbfffdJ2xGUENLTfxYJk8eORFkL0tBv8hm91i8ko5vnuJvf/ubPPDAA14yefLnjeg4ciGXbixIK78+Y0YY4Fe3CU01++jWOWaMtYGgHWNGZJNWmK7s3Amc2GDMU3G7Y8Yi/Lv5qWr3gasTY0arfmzJUsfACBcUTGgwa3PpgjG2UsVQkHaCMW/L4gNjjI3PWjaUQ1bFbYOxSAWsNGI+i4IRvSCPVY07gVMIjDEYyJMBX7fBF29RBCNbxeqQo0+hfDLDzQfGLPCE0vK5k7+sTQg2GHVI0O59qcq7T3ZpLSNgzFvxKQ3fU8Go+e9KMCKcPMsbPjDGrOHraBlj1apu4foUyg2j9rrByAFh8plmbDDmCZ+WVlU/n75lgTEEnCK8uGAMbZRI2FPJ9xDmzZtn0i9S2EUY8oWlZoVeluFipcsuu6wZLG+8ZoSMlxjA4dIhTgCoiZGmpmU/i5TPn//855ZPZMeWm9b0Nn/uOxeJ6b7Moqd13LSq2n1j3DPOOEP+8pe/eJOmDGOAkQmiQw89NHPisU+9VqSwvTko4Fh2eSO2UtWR51gF6YrTp1BumJA9ttwUjHm7nXRpi5xjDeWjrHvR/McuQ5VXiP+Eb0TwlaB3333XhKlDMUPEs5jTeDfeeKOwvKGmqFA1XugZI898QpwlIjWxC1LTLZL3O++8s6XWLxJX6aU980zI0Cqef/4/TQ+oLpmk8Wj7+fJP74FTQT4Ti18+5T5p0qTsltHdKB5DMX0Z87nlKUzi+caM8BnLxMizO5saqyDdPPoUyg2j9rrHjNDJyidjxkGDRpn16xiTIZq3Mk+f7DoxZgzxnpx//vnmCBWL1lxovO6682TMmIXmyzzYGVMuXLjQ+GF/5ZVX5PXXX2/aGWvOnDnT2Lk1AMPVd4TlHNc777zTDDt37lzhqBZ+/N5//31TmKee+rzwxaQFCxY0/diMoHQ22WQT2XHHHZt09t77VVPTKs/Qt+kQj/hKh3RJHzsLsNBVP/j5+tffl298403jRjqaH9LHkC/C405+NS5f8EIe2MeMGSNDhgwx8sKOkt54Y29+oMO1mBoXOlzviF2vCuRrW9jprdh03nzzzSadvfaabQ71UtsSli8ozZ8/v5ku51OVDjIbNmxYk86WW75h5GbTYRuk8gQdaKv9gw8+EKXz3HPPmY0h6vfaa68JP/J51FEvGj/C4E8c4vK+yipDJUlGybRpvXKDptKBFwzbMgmPTNiAonTIC3lSO3klz9ih4+omedCwyNCmAxhXW62RNnQog7XWWkt22WUXIzNbN+++e4HJ26RJzxrdcelQ9jYd1RnFgOomGKBVHDBggJAW8rLpoJvoJGk1wUgidLUUjCgvdoQEI7zz4w5IlF3tCkbsJKjKi53CIcMaFsECErUDii9+8T35+c9nGSWGMfVTMGJXMJIx7CgkrRkFiR13+NC48AdI1E66FBx2Khfoqh909tjjXZNv3BQkvKtgyRd2BaPGhQ7ywK5gRF7YEfoNN/TSUTBqXOggH+xKR/2gg8KqnYJXOkceOdOkrXQoSBRUw0IHkGDfYYcdDBhRXuxDh75t5KZhX3zxxT50UF71B1BUFNihA0jUT8G46qrvmvLDT+nAG4awH//4+vKRj+xrbqzXuOQN2monrNJBJgyZ1A865Ent5DVNN5GVhoUOssROGQJGygW76iZg5CO3rm5SdoQ999xnmqDXdH0YUN10MQDoFYxadi4G0EnS7rPon3beykg48h+gylrecLupsWflfN2XotlsVzc17zgb/t1uKrLmF9OQXtqkzAorbCTrrx/vg7tVePcdlwt1U4vIOYsnXdrQyiAUPqE2O+KII+Ttt982YagNiNQukwcIXGjE1SBqYitVHh6Uduh59913y0knndT0Ro4UaGxTREn4/gfLQmqQW+yypSJNAzitAhNw3WB8suOiM/anusYX1g2T1861Iyx7Ifu0+6X6LG20G4xlljfqAGOZy5VChVH1dEUoXdxVSUILx2lx6wBjjIosjeeYfiq7PGkWCZsnPcJkySqhT00XizEMpq4aPcRwnkxfc801LbVXbKWiQiDfVQzfA2GJCKN54hnbFAE6y0GXW5t/Y8uNvGXJjjOVt956a2wxlEpPy8WOzGkK840U29EqQ8e5lJU5gdNPPz0bjO7SRrvBmOfUhDtmjK1UvkIqKnV7zKjp1QFG+MpbRr4xY+xuquY1JC97O1woTLvclVe7XNo9ZkR3Q6bPBE7egg4lWMY9i+aiCsa8O1OKygx55flwTDvAqJVpqNvcTWD0rWuHwJjV4hcpM3sCp+vBmPXtjXaBsQp4fC1jkQIrEjbvaZd2gBG+0yrTbgKjj9cQGOlBkK8YZpECI7VF2vR43WDU2t3uvhQthHaCMW83vZ1gDLXUizIY01qxIvqhYCS9tDQTFiVPPPHEjk3gkKmsdcMrr7xSmKZXk1cZNXyeZ1rtnic+V0twcRZGxyZ54pUJQ/6z1mZJlw90XnrppU0S5DH2mJHE08qDZam///3vTR46/eKW80UXXdSy71n5y5r51HB5nmxOOeWUU4ycUsHoJuYy6/rXYSfjRZYW0gq/LH8x8103GLMqr5AM6gRjnsohxFc73ZFBqBW3+YgJRk03S28TtgXxpSB70b9Kd00JF3lmKS9nGe0zZ3XsEqKQGLSXNVzHd9ppp5noWfkpS0Pj5VUUFrPpIqnJq4gaPu8zjZ8LL7zQfKY+b1p1h1thhdbeAXuz9RPfNu20PNnh8ryz1e34449P7UGQTstsaoyxUx7m3DBKNzQj544Z66jhs2otl2fX3s4xI4qS5yte7pgRudVR0abx021jRrec0yZwCBvD2GNGZBUyLWDUGr2OAgsxoO5piuIDY5VWTGnaT7eQbL887+0Eo5ZTFl/tAmMaP4sqGLO2+WXJ3vZf5MCYtrzhA2PsCgMwVhn32GCMuUZlF6q+pym/huHZLjBqz8ZXJosqGNGH2C1j1vDK2zLaBdqu97SWqR1gzDspMnWqXyI2GOmK0NLXZdKU36bZLjBCM9Sz6UYw2stooW5qmj7aMs7zri0jMkrr0SWcK+PSIM6Q5a1x8zBQNExat+C6665rGWSHCr4oTTs8AMqqCZmFg7ZvNo6d+UwGYEiLiYI6TR4Z8KFU+7RLnjhleQ71bLhlncu6usVQxnY58x2QO+64ow97McHIWc2zzz47WGEp8Zb6u5NgRIGz7uBsMl3DREQe+hQQCs2lUGkmD7DT4ufxKwOsMnHy8EIYZFOlm5+XTtVweXtAMcGoPGfJP+EEN19PYmmjk2D0HfzUTDA9bn/JKCtTGq/IM42+pkOfnxbPtybKt0CYvsa0A4zuFL3yaD9ZDtKTJL59mXbYqu+hPP/hD3+Qv/71r1WTjxbf5fOss85q2VCihGKC8aGHHpLx48dnt4z2qY1OglFpozSuaceYUem7tNWuykxhUhm4xh0zUph1mjzKYo8ZNX886zCMhXzLLd02ZnTB2O4xY5r8u2YCBwUJtXjtAGPWpIi2nBqOp206AUZ7IsLmRd/bCUYFu7vZflEFY8zPMzCBs9RSA4P6reXVdWD0TY7YYNRCT6thNHNFn6HKgHSoUfXKBF+4doMxbcJL8+0Do/rFfoYOPXcjGO0WPNQyUsaUeQxjg9HX81MaXQXGUNernWD0VQYIC950goKCsg7QG1m2G4xud0sL1H62E4zQRS6u/LoNjO4acBoY3TK2ZVvk3QZjWryEa+eYkmdpw2U0LWIdfsxS+mYq2Tuo0+PaMrrdoRj8pJ0TpDbVNSLfND4787liApMHKFX5hYZdw/vS45KsG264wXip3HzhYrn5KlNO29xzzz2xSFROx5UDk0vsK3aNr/fjhslr52rJMWMme+ca7DRapiIoYJjolMmjxK4wY/KKMvnGYTp5A22MT+lsPvDnV6cpKoei4cvwnqfrXCbdmHHyyiEmGOE/D92Ey333339/cwlwp8EYapmZnudcXN5MlS28kDLp5I2mC9C0y6puXGrE9DWmnWBM6yFwDpSLkDB5lMEErPCH/rhrxZxksTceVEg+SlRXDgwv+N6Ga2KCkc+5b7jhwZkNXcuYMU/L5DId0+4KStP2jRnVL+aT/PvWEN2FYtcOD/aY0QfWmHySltta+9Jv95jRrbTgqdvGjK6OpY0ZCRvDMGZccsmBmb2lrgJjaNmgXWB0C0oLwv2Uma/ScsFImLpNVu1tg9EHlNj8+cqvW8Gos5o+MGo+/r8GI8rhU7B2gVELgacaXwvka0E7BUadVFJ+7acNRnhG1Ja7xAAAEfxJREFUtnUbaNizkN0KRgWaD4xaKdt6UEVui2TLSIbZ5uUqWLvACH2UyZ6ehxd30zf+rmJ3Aox0h9Na4E6A0Z1p7jYwuuuhaWCsAkA7LmBcfPGB3pUCO1zCF36YkucrQhQsBdxJ41MwljV0etwHhJj8Qt+eUWUMaduhpTWnTZcvL+nVIL482GFjvbu8uulyy7l+ZLZdZQtP9uQW2y3Zm9lNhopUW0Yuy3r44Ydb2POVb0uAghautlljjStTK06SbOm4tKvA0vJCYfrWGjUOPLqtkvrFeJK+TuLo7K6OLzT9rMJqFxhDs7/Kp/1sV9m2i46dt6LvNhh9cbPK1xcny415B2STZhLOWu25557mO33dIEgfD2eccUbza0r40xWqy+gYccKExqK6T4BaWPaYghr2kEMOMWy1C4w+Wdly4ZpGruHEZIW141V5d3suJ5xwgnChWDcZG4zHHXdcy/dI4FPLNxbPbL5Ikn1ahj++tLtqNhUGURptmZRhe8zYDqWixaHA7O6W8sLTHXfgZo8Z89SCdnpl35FF2i4cd8xIJVG3UUXW9c9uGzOSfxuMvjEjciVMLHP22ey+GdjsGofSbQEj3cN2FFiIGdy1MO0w7QajTTv0bhcoYWww4keB1m18srJpdgKMbkXVrWDUScIQGGP2vkaNmiyLLTbQLhrvewsYAWK3gNEep3UrGO0p/E6CUVsht4Q7AUZ4sGdUuxWMWlmGwBgTB8ymDhxYAoxpkyduYddld1udbgSje9LeBaMN1LrkpONbWkifscHo2zXkixPDDR1SPepGMNoHAroKjK+99pq5FmH+/PmmVdQaI0ahlE0DMNrKzK56nX6Gv5i1Vlke4cGWFZ9j15up3cqkLI088dJoPfbYY8J1IBj4bZfc6ALqWBb68NFNxi67O++8UzhxY5vYOsalb3p6xqbjvrcMU20m3YDttNs1l0u3yHS+GzemPU1WaQCJyQNpQcvepBBKH375tcNoi23PNreDbl4aaWVHGrHBmJevhFph5MiR8uabb5rCsmv7vInEDoew7IX2CRMmmKvuoNNOpUrLF3zYs61812Lfffc1UdoJxjTFuuCCC+Too482PKWFS8tnWT/GjcjnyCOPbPneR9n0YsazZXH44YfLxRdf3JI8/trNbvEoaeEqyF133TUzdp8JnG4Ao9v62WNGBGWDIDOHNQVweXTHjKFxXGx2kIddcdnp22NGWwHtMHW901rTVV1//Y1k1KhRdZEpla4tC9+Y0fYvRcCJVHoCpxvA6HYTXDB2I4+dAqNbKdh60EkwMsNL6/iJT3QnGLXl6yowcuVGkiTyxBNPyLrrzpO99potTOZwVQAD7xkzZsjChQvNO/ZXXnlFXn/99aZ93rx5wgAVPx0IT58+3dj5ECv3seLHb+7cucJeWLW///77LXQWLFhg/A4++GUzFlI6m2yyiey4447ywgsvGB733vtVo3PwTFq423SIB59Kh3TJB3byBV31gx/4UjvpkB528oEhX9hnzpxpDmHzjpw23HBBk86YMWNkyJAhhg7d1IsueqkPnTlz5jTpcM0J8rHp8M4Peb711lvNsAwhuB5F/SkP9sJi33ff12XYsA+afq+++qowKYcfMhs2bJiwN5Ky/cUvXjP50XSy6HzwwQdNOkxQsX9Z40JD6eCGH2F4hzfinnrq85IkG8nGG+9thkEal7ypzuCGYScY7/CKbDQsMrN1Bt1UOhyMt3UTGSErjeujQ5kii/XWe9fQWWuttWSXXXYRmw7ld/zxC4U7hUnLpeNiAJ1BNwirGLB189xzz5UBAwYYf3Rt1qxZTR5tDCQ2GAcNWtgVYJw06dlFAowrrPBBHzDecstzhvd2gXHs2DmmO6gK2E1ghKdVVhkq22+/ZyZI2glGKtIsMN5444L2g5FWhJ39IJQaoRu6gMzCwYvOxj3yyCOm5aYGjd2fN9VyiT+WXuBRDTUj0/i6K6ZdY0alp3zYT1ooTm5gOiU36NOydJOxh0EPPPCA6c3Y/FGuMcuPlpBrWbKMpU75p8mzEo3hHxJIp5TKzVMIBOquFYkbL7Zd6dk7lnw02rVf1ke729xsMLq8qTzbVX42/YRPHG+99dbyxhtvmJoeZrrBAEbdP3jMMcc0P9HNDF03tN5aaCorvpS1++67N1tGdW/HM1RxTZw4UcaNG2dYIEwn5HbooYfKpEmT2iGG3DRsMI4ePbr59TAScMs1d6IpAWkVt9tuu5QQDa+WpY1QoWamUkMAuwW0Z1M7pVRuFrXQtPLS2VR1d8PXaUcm9o4lpWXPpnZKbt24Hc4GozubWkf5lVra6DYw6nqiC0af4qkCtuvpnk7oJBjtjdl2/l0wasVhh6n7vVvBiK5jXDACVPWLJZtFHoz2xmYXjJ1QKl/B2JVXJ8Fo9yJsPvvBaEuj990GnA+MyDOmWeTBiMCYdMD0gzFdNVjA9ilQPxj9crO7ol0FRhZJORWhSxvd0urY1zcwRc8CLMZujfyibp8rvFBpYFgI5uIld8mjHdzAgw+MLKCz+IzplNygz+aGbjI2GFmkt/kLVWxV+GdzBLeKZ5nm0oYy2C1gVH7cDHRKqVw+sPu6h3YXyBenDjdo6pGlUPrdJLcQj+1yD+kW9H1l2i6+Es4Jfve735VrrumupQ09hoPgDjvsMOHkBqablMouOL7XsMMOO5iW0r1nte7CDCnXmWeeKQcddFCuTwHUxeMBBxwgfKq7m4wtr/3220/41Lkau0zVreqTy8p++MMfZibTXNq48srZRtFDVzhkplRDAAWejhlp6dWtBnKFk6Tg9MSETuCEuoyFEy8QQZXLLTsdM6o/z3abbpxNVXkgC3fMWMc6duEJHAVjuwsrjZ5ebaFgVCFm7TZJSzOmnz2+6CQY3WUWzaMLxk7IrZvBiD65YKyjsv8/AUbtMrhgVGXr9NNuBTsJRuSAErnrry4YOyGvbgSj3cPqB2NOrQCMtD79YMwWmO+qkn4whuWmLaANRhuk4ZjFfXK3jHoO8G9/W2Bq1+Kk6ouhLQ9Tz5x/025qfRSLpQx/euEy5+E4BqQ8F0upemgqLt2xpKlxvo+zf52UG0tSLPt0m1Ew2vzVJSf2fes5xzQ59FnaSAvcbj9b2aFdl7DK5steC9U07HGkurXjmVYJdJvc2iGPLBoKRjtcp+WUcN5s4403lgsueL3rWkZdQP/1r38tnNxA4RBitxi78C6//HJz+oUWil+7jVtxQZ9xLF1VX6XRLv5+8YtfNE/ctItmHjoKxr322ktOOOEME4VTQnXo10033SSbbrppJlvNpY0DDmgsbWTGaGMAVfZvf3tz2XnnnQ0Y2RTdLUb5gx+dwPF1F9vBr82L0tMxYycrsW6cwEE+CsZll91Avv71A4zIkBNj79gm95iR7+dxBw5g7CZFRyA6Zb/BBr1g7ESrEyocBQADfxuMFGq7jU4+8FRjg7FTZdvNYKScPvnJDeTjH+8FYx36VQqMdTCiilH2iRKtskp3gtHeJdRpMCJfre1V1jYYO1W23QpGXcNeddUNJEkOMBU/MmLMH9v8nwEjM4QrrtidYKTQFADdAEYqLrtV7gdjGFYAD1kNHdoAI/MT6haOVc4nNxi5Fo/d/YceurAjEw9Z2WtM4sySq656zQivUzV8iE8FI6dfuJSqrgIN0bfdoa3b83BnuYVlBZSuU3JjeQU+us1oOcHfGmvMNXJjmcquzGLxzHWm9smQULrNuclOFliIOXVHwRifIcBOKZXy4j4Bo97Vgx/2OgrUpeuz2weybf+Qux3m/7d3BSP5Rj6cnaXs3F1M7ZRLcvPN98nQoUPl61+f23WKroLgevjx48cb/tyFbQ3TqafufOGT3Zx+oUBZSuiEsb/+BH0+4b3HHnt0tBLbbbfdmiduOiGTEE0FIxcY77rrKabcKDsq/djm+uuvlw033DAz2eSkkxqzqRtsMLvPDo7M2G0KoNvhVIBtIpuLjPKkY8a6CjQPMzq7q71CHTPCI7V/J0y3TuCoTHQ7HOXGT2UXU1a5x4w2GDvVvcrKeD8YsyTU8NelIK3dbTB2qmy7GYwAUsHILGpdyz//J8HYjRfxUqD8uqFlBJJM2esYth+M4UpMty0qGFmmquuIWW4wHnFEbze1U7VnWGQNH20Z6UaoomXFaZc/MlMwfvKTQ0xXR1umdvFg04EXHVcrGDtZiXVry6jlpmC0ZRj7PTcYx4x5X/hYyvDhH3RsFjAr8ywb8EWhTo7HQjxqobJEdPXVczrOI/zorXpMqetN8bh3wvAtF/joNqPl1g7++EIXl1JlmUQLCUXX96xInfLvRjDSUsMXxp1A6YScdHO9Tbsb5Wbz14l3BWMnaIdoJrvtdo+sscYakiRzuq4LqEyzs57vH3ajUikA6YqstdYmTWAq7+1+2lv0+IQ4n4jvpNy4pOvYY49ttxgy6SkYt99+ezn++OMzw1cJcO2118pXv/rVzCSSnXZqjBmTZHYtayyZHOQIwJjx29/euaNKFWJTwXjssafKRz/aGDOGwrbLXbfF6Zixk2Ds5jEj3fmuGjOuueaiBcY61oGqgERPS+yzz6nykY90BxiZwGEiBzCut96IjlZi3QpGHV70g7Gg9tstY8GobQlOywMYl19+iFlaaAvRFCJ6mBgwrrlmA4x1TdunsGG8uhWM2qPpWjDaZ+GyhNxOf8C40UaNbmo76ealBRh3260BRlqkThsdN/73f/eCsVM89YNRJPfSxuDBC+X669/t+MRDmrLMnz9fxoyZX8sp7DS6ef0Yox166AIZPfpd0z3MG6/OcPDEstWll77X0bJlWp/vuHSb0Zbxn/+sn78FCxYIS19ZhkP+zSn5rMCd9NfZr07yEKJNa8jeTx2rhcK10x1edLG/3Z8baGc+y9Jytw6WTSdmvCRJ/in/9m+fNUsbMROOmdauu+4q//mfB3RNq+PmDSCuuuokGTRo/ebuFzdMu+2N9cbD5Atf2LajcvvRj34kRxxxRLuzn4seDdGwYVvJUUcdlSt82UBXX321rLrqqpnRkyTp3Q6XGbpDARgzrrhi40KqDrGQSpZW+1OfOlUGDBjSVRsnPvaxX8rSS4+o5SqJVIFYnt06ZoRFuvL/8R8bCB/nqdPkHjMuKmBcaqmdu3ZTQqMVOlWSZEhX8chs6uDBIzpaQXQzGBlecCFV14DxC19otIzbbDO7zsqhUtr/9V+bS5Ls3LWbEhqzlw0wMjHQLQYwJsmIjh12Rg7dDEaGF1zV2DVgHDr0r5IkS8ghhzwrjz76qPkxe/n000+bd74avHDhwqYfd4awuVbDsgmYu1+wP/bYY0YP+Votdu7Weeedd5phuQtl1qxZTTuzbEpnxowZwqyTpks4pfO5z31HkuRn8sILLxh/vSqdJ+Fxhw+NSzzuflE76T711FPGDh3oqh904Evt8Mt9Jdj1q7/kCzv5dOkgD/wGD+a0+Kfl739/xtjJF3LUdGfPnt2HDvKx6WhY6LAxXu1s9lY6uFEelAvvXE/v0mFTMn5Dh+4uSbKJ3HZbo3ymT59uykfT5ZMJLp2XXnqpSfeDDz4wnyxQOsyMalxoKB3c8ONTArzDG4b3ddddV/bcc09hs7/GhabqDG4YPo3AOzJh5lHDQgPZqT1LN5GVhrXp+HTzkkvmS5JsKFtuuYcpG1s3bTroThYGVDddOujSeeedJ0svvbThy4cBdBKek8MPf1E++9mF8tRTrxkwkRjKimB5JyCM8M4PJUfZ1a5gxK7Ki2CxwyDKrWHnzp1rBKt2BSN2lBfQqJ+CEfvBB78sZ5453xQgdlUqntgpWJsO/BFf0yJd0seO8kJX/Sho+FI76ZAedqVDvrDjTn41LAWPPLBPmvSsbLnlB0Ze2JGfS4eC0LgKeuzIC0Plgh1A2HRQZKWDPyBBQXiHDorDOz9O4CidU099XkaPXmAqF/wUJDYdFFbjQgfaarfpABIAp34KRrXjRxjs8EZc9aMiIW21Q1PpaMUKb/ijvDYd8gItjUteVTcVJOqHjCgTtSPDNDqUwRZbzJXLL59hZIYuaFzKDl3Bju7YGEC3XDqqM4oB1U0XA+imTQfdVDrNC6mMNvT/9UugXwIdk0A/GDsm+n7C/RJolUA/GFvl0W/rl0DHJNAPxo6Jvp9wvwRaJfD/AKZ6z42TXWjgAAAAAElFTkSuQmCC;imageBorder=#000000;" parent="1" vertex="1">
          <mxGeometry x="334.54" y="716.68" width="93.38" height="93.38" as="geometry" />
        </mxCell>
        <mxCell id="zyXjHvI1NbI1ozkS3pf7-21" value="&lt;div style=&quot;text-align: left&quot;&gt;&lt;font face=&quot;Times New Roman&quot; style=&quot;font-size: 14px&quot;&gt;Signal pre-processing&lt;/font&gt;&lt;/div&gt;" style="text;html=1;strokeColor=none;fillColor=none;align=center;verticalAlign=middle;whiteSpace=wrap;rounded=0;" parent="1" vertex="1">
          <mxGeometry x="306.85" y="810.0600000000001" width="148.75" height="20" as="geometry" />
        </mxCell>
        <mxCell id="zyXjHvI1NbI1ozkS3pf7-23" value="" style="shape=image;verticalLabelPosition=bottom;labelBackgroundColor=#ffffff;verticalAlign=top;aspect=fixed;imageAspect=0;image=data:image/png,iVBORw0KGgoAAAANSUhEUgAAAMgAAADICAYAAACtWK6eAAAAAXNSR0IArs4c6QAAIABJREFUeF7tXQl4G9W1/s/IzmYDJZSyldYyCS3wXmmB0rC0L20pieQkLPHIbJEUKLQQEscJdKHta0rL0pA4dgKULSApbNEoIU3wyEBLQ3nQsr3X0rJDbFqWQiilEJvEtua8745mJiNZsrWMsnnu9+X7HPvec+49d/65d+495z8Et7gWcC2Q1wLk2sa1gGuB/BZwAeI+Ha4FhrCACxD38XAt4ALEfQZcC5RmAXcFKc1ubqsRYgEXICNkot1hlmYBFyCl2c2RVr7GoI8kmgzmCQBNADCRgfcIeJGAl8D0++oBPLRuXeQDRxS6Qoq2gAuQok1WXgMBCkmic5nhAzC+QGnrCEh2KNFbCqzvVnPIAi5AHDLkcGL8M2d9hTzSXGacm6duD4DnARwI4NA8dZ4h4BYXKMNZ27m/uwBxzpZ5JfkbQ7NBuD2zAr0O5kcJtD5Vhac67410m39vOOecfVN9o46WoP0XE00mYHJmW35YAoL3K7E3d0D3R7QKFyAVnn6/HLwGoB/Y1BS9Cvhnzv4KSGsG4eztcvhjCZh8vxJ7ssJDGNHiXYBUcPp9cuh39rc/ES7viEeXlKrSHwjNBGMlgH0sGan+OnXt3a+XKtNtN7QFXIBU6AlpCITutH9vMGNKMhF90K6Ol8/du6ffcyYRnwzg8wTsx4QeMHWxpj3FkqdjrwXLnrO3mXLmeQd5PJ7/AVBv/P7lqm2e49avv/2jCg1lRIt1AVKB6fc3Bn8KokWmaGacl0xE77L+39oy9mPiK5m5GUD1kF0grAfhFzXz25+y17OvTgQkOpSoXIGhjHiRLkAcfgTEG77K43magYN10cyL1ETsZ6aaj9uav6alcDsIhxWjmogWjmtpazXbTJbl2nEY+wBAJxp6pquJ2P3FyHTrDm8BFyDD26ioGvbVgwn3JuNR68N6y5LmKSRBBSAVJdRaeujnNQvb/tv8r78xOA1EG4z/b1CV6IyS5LqN8lrABYiDD8fpp4c/0V/NzxmrRy9rfHJyTez/hIoPl8453ENVL5QMDgsk+G7NwvabLZDIofUApqcXK/YnE7Gkg0Ma8aJcgDj4CPgC4dOJ+b5cW6ue1uYOAH4H1PVLRIePbWnT703sqwgTr0jGY/Mc0OGKMCzgAsTBR8EfCN4ApkuESGL6Wkci8qj4uWdp8zQQzK1Q+RoJv6ppadf1yLI8qgfjNgPYm8GvJpXYxPIVuBJMC7gAcfBZ8MuhdwHsD+ADVYnua4ruWdYcB8PJU6Zt4z7cd29atKhP6PDJ4U4CTxE/axof3bkm9qyDwxrRolyAODT9p8jyPqMwzvS6fVBVovoDq68grc3/Fm94h1SlxRD5a1ra9O8NXyB4BTFdZfwhqCqRVY7qGsHCXIA4NPkNZ55fz57Ua2lxvEpVYkHx09bWlgkpaK84pMYSw8Tfr21Zvlj8oiEQPp+ZxQ07GLgqqUR/7LS+kSrPBYhDMz9NDh6vgZ7QH1LGkmQiern4uXfpvBOZ6DGH1FhiCFg6bkH7ZTpA5FADA+YdyBpViTY6rW+kynMB4tDMC3d2SNIfjRXkOlWJfS8NkLmTmKQ/OKRm+wrCvKR24XIdhNMCYb/GLE7JBDzXqkpsptP6Rqo8FyAOzfwM+YIJAxgwt1IRVYnOFqI/uO5Sb7XHs8khNdtXENvNul8OhwG+Q/8jYbEaj37faX0jVZ4LEIdmfop8wXgPBv6Z/g5gNanEGkzRPcua3wfDOtVyQiVDm1K7YIXu/OiXw5cDrH+PgPlCNRG7zQkdrgzxvnGLYxbwyyE2hP1dVaKfMQX3ts5fzeCAY4qAreNqPt6bvnNLvw6QQMg6RtaYvt6ZiGx0UNeIFuUCxMHptz+o0LRJ6ppV+kd7T+u80wBa56CqW2sWtF9kyvPLwc0AfRLA+6oS3c9BPSNelAsQBx+BjG+BLC/eLa3NDxPwdSfUpbTUEXtfdv2L+uphc1gkwl0d8eh5TuhwZaQt4ALEwSdh6lnhOinFXYbIDGfFvmXzj+lnfqZcdQx8r3ZB+3XbVw+7s2Jm3Em5utz2LkAcfwZ8geByYporBGe7u/e2zjuLQfeUrJT5hpqFyy+1wJHp7v6YqkRFZKJbHLSAu4I4aEwhyjjuFd8eac6rrK3WR0ubZ0qECIDaolQTX1PTsvwKs82ggClCkxqPxouS6VYe1gIuQIY1UfEVRNAUEy0ifQfL4mY9I+T2g8VzD6uqlq4iRtPw0vlJkHRlTUubcRGYbpFFCPG8qkSPGl6WW6NYC7gAKdZiBdb3y6G3CTjQPPfNRdqwZemCo4lSjUQ4mTU+HETCoVF46L5EhCc0aB21LSt+Y1eZg7Qh/eeslarAbrrVhrGAC5AKPCL+xlArCC3ZoitC+2NX4oLE8dl0AeKwSRsCwRAziW8MUV4miBBcOsOm5iGArlOVyEOFqtZDeUfxT5kx395GXAoK9kU7g4q7khRq1cLquQApzE4F1fLL4S8CrMegi0JMgY5ERMmmATL+upoYv9eIlKRyh4gIHFR88uxvSMzfZGIRqvtFW4U3NabzzBvzQfLdlaSg+SqkkguQQqxUQB2fb+5oqv3wLyKFgajORD9KxiNXm019cuhiAsTx7xE5xIlAq81g3gwicbp1gPFvUFUGbmGNb8iOGnRBUsAklVDFBUgJRsvVxC+HEgB0N3NmjiYTsXB2Pd+55+4t9VXN1cBhSucDKbRsZuA+Kc3snvey0QVJoeYsvJ4LkMJtlbemLxD8CTFdma7Aj0tAYDjm9amN4cmSxD4wTjLuTMS9ifjXC0B4Bb8H4qfB0obeGmzcGIlsLaSrLkgKsVLhdVyAFG6rnDUb5NAMBn5tgOM9IgQ64rHflSm2rOYuSMoyX0ZjFyBl2NLXFDqMNAhy6dFCDAHf2VWS27ggKWNibU1dgJRhR78cEi4lx+vgICztiEf1GPFdpbggKX8mXICUaMOGxuAtTHSh0XyX5cV1QVLiBBvNXICUYD9/IDQHjOuNpi96NDRuWBPNyONRgtiKNXFBUrppXYAUaTt/IPQ1MB4xmmkgBNR4dE2RYnZ4dRckpZncBUgRdpsmBw/RQCKRzUHpZvRDVYlcW4SInVrVBUnx5ncBUoTNfHKwk0BpSlHCHWo8en4RzXeJqi5IipsGFyAF2ssfCP0SDJ0MDsBjVds8vt01L6ALkgIn3Y1JL8xQfjl4DkBmjsF3mXBmMh51nE60sN44U8sFSWF2dFeQYexk59wVVZnoomQ8cmth5t21a7kgGX5+XIAMYSODLVEkwTnS+CgXcRzmNmt46+4GNVyQDD1JLkCGsI+/MXQ3CEYSTvq1qkRO3w2e+aK76IIkv8lcgOSxTUMg+H1mMo9wX+BU9anJtbe9UfTTt5s0cEGSe6JcgOSwyzQ5eIYGWmv8aYCA0zuUaAaryG7y3BfVTRckg83lAiTLJlNnBr8gSfQ/APZKf5TzD5Lx2C+LetJ248ouSDInzwWIzR7Tp180LjVmm0gpIIKYRFmpKtFvV/J5P/bYi6oPOfyj8SmtarzG0nikuHdUtec9raf6nxs23CKCp3Z4cQIkInqSU9Xjq5jGp1gbK5H2vkcaeP/Nl/d6/5ln0qz0u0NxAWKbJXsaZwCPqkr0a5WYRD0bFdFUkOQD+Cv5dBDwHDMrGqRHdnRKg1JAIoLHwHwaE80AINjmcxYGNoLp10TYqCqRP1XCxk7JdAFiWLKhMTiXiZYb//0HSdq3Olav+qtThhZy9DBb0uYCdGYJcp+hdEz6LSW0LalJoSBpkEMXMSDSMRxbvCJeq7G0Yke/AArtpwsQQePZGPQRkWoaLZsqtFBjDlXPHwjdCsag7Zq+SgCvkGA0ATYzqBZEBzD4AAIm55D5DDOWJRNR82bfie7llTEUSBoaw7LItpsLGGKVINA7YH6HwFtE/ngmEjnk6wF8YZBCwm1qPGrG11R0TMUIH/EAmTYzPFGTWNB7pjNCVSDHX0ZiHV0Jv0Qs3aQRPZhU7ng+34SdOmtWjbRV+qYECOK5TJaUHch9lQskBOl5Js4gyybm2wGp09MndQ7lpyYIvlOc8jFpcwD63Pbx0xOqEplUzANc6bojHCCLJL/cJTI/TU9jA/d1KNFStj/538By8O8AfdqqQFjs8fRdt+Gee94rZnKN5Dw/BVBntduZIMns/GMELO5QouuLGdP0s8/+ZCo16nKbE6hovktlyRrRAPE1hq+l9BYBDDyHUQMnJu+668NiJnnIbZUcEvQ96TQI6fzpU5KJqJ54015eWT539GdSnvqtA7z3GI+0ZdToba/TnBvFtiSjTJXP/5yE1ErbKVtemU6NwS4nF0OkPSd8Lp1vvPHGfv39/Yd6vd68H+PGVs22GvEbqhI7tBJjKFbmiAWIvzH4bRCZTod9GrRvdiqrxP2HI8Uvh/9oP6Gqqqo+cP09t71jgUWWPVsmHTxHkiCDkSPxDf0Z4A0S0cqxLW3d9k755NDNlP4o1osm0fGdqyMikKuixZ7uzUD8IjUR+5ld6dtvv73/1q1bG5j5WCIS4zIpUwV7pEgu+iQzP1NfX5/xoshKoy2Wc0WNR51MfFqSbUYkQBoCwa8z028td3/CpWo8ekNJFszRKPuDvApVE9crK181q37c2nyOBojLx+1br6GUE11V09L243xvcwb+991NoydV8n5hxozz9xoYnfq99cDneIC7u7svYeYFAA4bzpbMfGd9ff0se70ZZ3/7gIGB/n9Yv6vwh7tYEbMBnt3vEQeQU8+afWhVKrUBoKOFMQTXbVKJfme4CS307+mjXLaI40wCa7N9T2vzVQCsTFGFygXhoT5QYN+WNvEm1otfDsYAMh4yXqgqsdaC5RVZsaExfK1xYpXz7d7V1SXGnOvUbShN25h5Vn19vWJW8jWGTiXCA+b/K5HWuuGcc/bV+kfdQ+ApAM9XlVh7vk6OOID4G0OrQDAywdIjqhIpdlKHfLT8cnCNdc+RdSJWMjhMjYzHx32071dp0SJN/KpBDh3LwNPGn7urqvomrb/nHmsbVyQG8lYXLPMETay4eiHgODtHcHd396vMPOyqkfchJDqprq7ucQskGVtIXqsqMZ3z2KnS0Bi8kol+YoGQONwZj0VzyR9RAPEHwovALE6CRHlbgjbpfmXV35wyfGb6A37JU9V/snla1bts/tnMfLcDulbWLGi37lPs3yPENK8jEVnhgI4MEX45dId5zJy94m7atClIRDkfrkL7QURb6urqdN+3HMCHPed8oTKHq5ed5IiJzkjGI4Ny2Y8YgDQEgucx0yrLcMzT1UTs/uEMWczffY3h+US8TH/LZj2sPa3zugH6bDHy8tVlsK92wfJO8XdfU3gSafwHo25SVaIil4ijxS+H3hUXfbpQTZukrlklGCXR1dX1eQAvOKTsGq/Xa209M7aPFTrOzjrs2KYxGjoTUWul1OfRocHt0mKMh0i4q+tHrtm5O5zqvD2xpv3D/KOl8y+WiG90Sg8Dau2C9gbbG/cVBvR0CjXoHacoysdO6cr6pnpBVaJGdCXQ3d29lpnt2bPKVTvV6/Xq3x+ZpOCVu0BsCITuZMa5RsffkcAz7ldiT5oD2eMB4pNn7w9occttgxFXE9ECsssWN9fCK/eA+m0iAacoz6pKVD8EEGVL67yHCfT14iQOXZsH+g+q/d6N+omP3cmSmf3JRCzplC6fHPoFAT/S5TGWq4losym7u7v7TWY+2CldABZ5vV7r2Ngvh8TJn/5t886m0aMqcUony/KoHoyNA3SaMY4XSdLO7Fi9Sl8Z93iAZB25/kVVooP9gByY4Rlnn33AwMAo84hynapE9Tcrx2VP7xsHC+BIDqixRJCExnHz23VGx6G2duXqbJBDNzJwcVoOzVaViJ5/saurS9zod5UrP6v9A16vd6r5O78cug+AHuZcVdV3YCUOIIRscarF/dXiovIUQ/cfBzxS4MF77/j7Hg2QrLDZbQB9WVUiIk2a46WhadYRrEm6XxUx39qRiOkXeR8tm3+ExJzX36rkjjD/uGbhcnFkDL8cPgdg3XmRiVck47F5JcvNauiXw/cCrK+49gvJ7u5uPzM7HWX5odfr3cfsgp0gnCTtSPOtbu+ivgUUiUzLLSztDXFpCzZv8B8a1U+BPRYgPjnYSCDrfJ2IZ3XEY3eWa8d87X2B0EnE0G/iifnqjkRM35b0Lpt/EjM7dkNv6mdgWe2CdnEpJwDyLYDNm2lHP9T9ckhk49XfrAP/1moffHBVj/h506ZNlxPRYqftOTAwcOzEiRP/V3+zNwavYiL9w50JJ+fiIsu+dyqnPyKnfSYgeO0eCRDjuFXkDDTO5vk6VYlVlK7HNzP4JZJIn1j7Xr1n2fxjwJw3r2CpE0qEX45raf+BaJ8ZQ8+rVCUWLFVudju/HF4HsL4/ZwkTkqujrxkAOY/IdirokMLq6upPfvrTnxY+bPA3htpB0FdD1viY5JqYlUHYVOckQAYPgWbvcQCR5Utqe9Aj9pM+Y8APqko0zadbwXJG06wjthlbLIBWq0rkLKHuw+vn7OfpqyrKc7eQboqMueMWtOspGPyB8HfB/CvxMwE/7lCi+tbLidLQGFzJRDoHsQQ+834lJr4LxAnWl5g5/UJwrvzJ6/V+yRRn395Ve6TP/PreO/6erUoAxAn1EnAWiG0eFekb9j0OIA1yaAUDlxpGe7MPvUf9RlH+7YQR88kQ0YgaSQskcJ1YpkWwUFKJWqdWW1qbXyTAFvdQfm9SzCftvXC5fvuc4WVLaHQyHUMGJ7HtPuKtt94a19fX929mrip/NGkJzHx9fX29SJWtF/uxuWfr6JpKxej75WAzQG2mXgJ+2qFE9aSsexRABg2U6WsdiYhgRqxIMTh7WwAcl61gYIxW++Cq9H69t7V5MQOXO9cJfr1mwXIrLqRBDj3OwAlCvgT+9HAZdovph90VPRv4XV1dYgWx3vjFyM1Td7bX69VPyfxNwcOh0Us6cMCvJpWYnn/e6dIghy5mwHZHRa2qElloA4vTKneOvAY51MCA4LIaZRh1blKJmVmgHO1UQ2DWFI09LWlnt+2FgWcJ/AXx3tGA0zqNAKJtSy79/IDkcerGGcx0Re3CtmuE5ilnnneQx+N5K90L5y/UTj89/Im+av6XOcqBAe2AB+9bJW7WxVGv+AbS++FAeW3MmDEnHHTQQSL0OGNVdPpkzuxrVsiD+PUgFps9YgWZPjP8+ZSkh3/+p/6Y2I5ZHZg4S4R/5qzjIHlaAD4nS24nE93IGj6yefJGVCU626y3Zem8pUSknzqVU5jxfO3C9qNMGRlvwAq5ZNjvIwi4pEOJ6t87onR3dz/DzMeUMyZ9zojm1NXV6W9ycXnXi3F/YECX6/Tlp5DpawwFiWD5kBGQ6FCicvY4dnuATJ48uWrs/p8VN+Wmy8OTqhLNS6VTykROl2d5B8jTQszi28Zus6fA+JWaiApnPr345ZDwrjXYPbZfrIm/9SxrfjR3cFThvdI0/Ndel7WLuAzjgqvqD2Zcd7aXbeFSh67ZIIcuYOC2dC1+iaoHTui4+259VXn99deP1DSt3PyMG71er/XN1hAIXcaM64xePaMq0UFb2HLGNrUxfJZEfI9NhjjIEReU4hMyo+z2APHL4cUAm/v7j5HqP0Jde/fr5RjQbCvIz2ibpwVEAhg2nid6nYivlz4efWP2h6NBgXOzIaNbg2dqp3K7vpfesvjyA6mqT1yulfTGJaKZ41raTErUzG2Iw3Et2fbzycEOAqUdIbNWqq6uLuEhvagUmxPRa3V1dbofmShTzwrXSSkW3416MFklcs+LLTKzJACyL4A/9mH01N8ot+Q8yNllAeKXwwdqjMmSxGeCMYGBTxKwn/EGfx/APwEeA9DhpnEFYVkyHtlQykRlt0nzZElzALafPm0FuE0C/2ooN/nMVQSPqUrUCqnlmy8a19Mz9lYCsrdp+bvN+KtE0iVjFyyzDhwGBWZlxWg4YQO7DJ886xsEyR4T8h07R9dLL710yKhRo4SrfcHOi8wcqq+vj9n1+OXgXQCZtnF89bCAKAdP8IBu7fdIPuFSks9euxxARBZZZiwkQLDzDVmybj4Fe8gPVCVSVsxF+mRKB8aJWWvtbZziG3NdVg162zaGziWCdWufK2rxwyXzT6+S+FIGvpl3cgivaIxbaxe0m9sNq6pfDm3fDhDdrMYj3x3OXuX+XcRQEKHFVKwq0UHPT3d39xxmvpCIjsp1BExE4kDhCWa+wuv1vpgFjmvEHJq/y47GLLf/g1fF2UcORbtkrGBOqy1NXjoUlhcCbHmL2iQJZz8RKSf+ifkRsQniX036k8C+deS1xNrSjsSdVoRaIT0ylt05JgWQtSoB6yXiFR3xmODOKrgUykr4ryVzPlstVZ1ETIcT8X4g9DBzN+B5umbBMjNa0NKbtYXTfy/I5zRIgeEmu+DO56nol8P/SdCeYNBYs4qm8dGda2LPZjf585//XFNbW3ukJEkCKPtLkiRoVJ/3er0ZBBRmu2zusEqDo1Bb7BIriE8ONhFIHBd6bR3fDGJF0yQlHy2lT559JHFKJiKZAetkx3hoCrpRFidTTHQpEYUyjcZPaCy1dSYi9xZqzOx6g2lyeBWB2u3hqoXK1j1O+6rmgSjnXr/SINFZ74lWgyCCpDJKOd8Jetgw4ftg4ShoFMICNR7VA892dtnpAPHLwQUALbUZoo8Zy6ENtCfX3lVwwhrjklCsPhbIhiKCEydTKdClBBIXRdYbkYAuJixV41Fx5DjoVKPYCcsmIRDtxZYLEt2RXB3543DyTj1j1qeqq6SZrK+s21kICfiDBunbErS4+XKoFEimNZ1/tKYNrLbp/ysgVjmaZuu/zh08kEpteGDtnW8PNy5B4M2SdL6dvshYDh1lmBmuH8P9facCpKExfCYT6zENRnkyJUkXP7D6jpJ8fMTDVFVFS7Yzfeihr7d3JCIXmArEyRT6PZcS0yUADrHp7iXmpRp5ViSVO/TLKqfK1Kbwl0njmyjr9IqAV5n4QdakV4ggLt82S9BqNZIOgKYdwESTc/LzMpapiah+pyJW0UqCxHDCFKuoeRjyF49GgQ1rIi9mBFPZjCXAy8wPQJLekVh7R4OU5uZlfIrAXhC+BeAIu30FdRExCxoeR8Ogy53DnQaQaXLwBA1k/07YoCrRQR/m3d3dPmb9xlq4NNQxswg8epuI/ipJ0sNbtmyJH3XUUWYkn26P7K2NmZnW3xj8DkgHRmbQFNHNnhTaxKSXa9B87dMRh1sFs7vwNdpOH1qEQrHySGmG9wzv4EqBZFrT7GNSWmo1gYxjWPozJC2gro69bHZbbJE04KJBK0Hh4+oGeMU7m8asqETEYOHdyF2zZID4A6Gz1XjUftlScF+Ee0SVx/Mww9jP5rgB3rRp0yxJkn7AzFYMdB4FwmFuSX19/S/sfx/kBs14FjSIVXydBm2pk4yKwxlBRB6m+kcHmFh4G5sex3mbGSzpDxD4oaG+XZwGiUEptNpGAvcnSaPA/Wsir+TqrAGUMwgQrvH/MZwdBHMiUvRw1aht91UqUnDYPhRQoSSAGG/im0p16ch4wzNuUhNRI6Qz3eOuri6LZqaAMZhVHk+lUqEJEyZYDIZ2N/Cs5fwPEtOSjkTEunQrQo9jVWVZHruFx06WIE3QJG0isXhT83sEeokJL4LpMVWJbGcaHEazUyARW0JJ08Q3R/p7jvF/KUoFHlDutGw7VFcammb9h5aSjibwBJJoIjPGM/Grkia9okF79eNa6XcbI5GtjhmygoKKBsig7QtwVVKJZtBiDtVfY/V4moGDCXhrIJU6zv5Rt2nTpg1EGR9/xQy/W9O0KYcddpi1BfDLofUAT9cPQxlvM+HnSZsvUTHCd4e65YJkmhw8XgOJlcPcBj5DKU+gY+3tm3aH8Tvdx6IBIjrgl8NtGfcVhGY1HjWzMw3Zx8zVgzPIj7u7u29l5nJzAj7l9XqPNzuRQbjMnFQTMcd5o5yelHLllQoS/8zZX4HEqwE2+bue9kALbFBWOU3OUO4Qd1j7kgCigyQQioJhhXYWmpXJL4fMGIIPU6nU583Vo6urSxADlHznkGWxa71e7w/N3/nkcKfpmk4pz2Ej4W1YLEimysETpPTKYZIWPIlUVUBdu9IRv7Yd9kQ7rKhkgEwOh8eM69FdzPXkM6IQMG2ofOL2uG0GPZBUIhbFi9PBN6lU6oAJEybocQtZEXe7zCWUw3M5SFyhIGlonH0ik/jmMNnm+QkJHHCSlrXSY62U/JIBIjpkfE+IiyrdGY+Bf0oszehI3JHTzSPr4/wKNRHVg226uroEbYvIHeFkafF6vXoYpf1IOTsqzkmFu6Ks4UAyVZ51MkFaTYBOACfuMPo9UtNQDny74jgr1aeyACI6lT0BgquVJG1mLg4jO80jsXSSCaTu7u4rmdli23ZosKrX67XoOf1yaJsRbfimqkQLy8vhUEd2tph8IJGY92MS3xw4KN1HflwCAk6G7O7ssZern/S3epmFgc9IIJkJBkM3/SWVGpiS7XJgz7pkp5Dp6uoSx60Fu0kX0l0ierOurs4Cgl8OCRZ3fX/tNH9tIf3Z2XUGgYTQpWnYm0gPIRDlsX6PJ/DQvbcb4bs7u8e7hn7KcJsus09ZfrUbemsoYD/v9tty9vWid6+NiqLn4evq6hJbMp10wMlSV1cnEZHuT+WXQyJFmR6Zls8D1Undu6KsHKu92c1HU6lUUyE+VLviuCrZJ0cBYu+ocBTs2ewNbNy4aMD8vQuQSk5lYbKNbLkifNZjtOglT/XUjntvqxj7S2E92zVrObLFAqieiGVbnMCTVds8p2Tnyt6RWywAb3m9XssZcaRvscTjJzJFGUz35rZKfyor5QW8az7yxfWq/I/0pvAkaCxIE4zzc35kYIADJjWMvTvuR3pxk+Nk7YZA8BRmCJp/EYctypME7G36w7kgyW3tsgAifG5Yk8RdiOm6/DRQxRkzAAAbi0lEQVRS/Y35SBPsx7zM1JJMRPRj2Eof805pmn2MR9N0D9iRdsyb/v7Sya3FPH3CWDF+u3WAm0ZVeQ6opKu8kwDfWbJKBojBPiGM/mWj8y9o8JxhMnjkGpAeAQiLIsbKoWGAxFGWPvtFoZ1Ghogu6IhHbt9ZBt/ReqcGZk2R2CPcR8y0Ar9JoarpAWWlIL6oeDzJjh6v0/pKAsj0sy/65MDANsUWzPM3kaFHVSJ/Gq6Dfjn4GECCEOGDVCp15I5wNfHLIZFxSb+1l6B9dqTcEPvl8FRj5TATZD44qp+a1q2LWKmkXZAM/cQWDZATZHnsvhgnVg493FLcnjN4eqcSMxNJDqmx0s6KzPx0fX29uaoJN5NpINKpgAisdigx6/JwODDvzn/3NQZ9EpHwcqhNzxM90I+epnxE3sPduO/Otiin70UDxAhEEgARrCJbGVpDUln1cKGd2Jnu7gx+Gxr/NLlm1a2F9nd3rGfwFIs5Gmf0v7NqmyeQfaqYPTYXJINnu2iA6EtyU+gwaGgF0W2lELVlOQ8qajwasHetlIApIvqDx+MJHnroodsDpoSXQE4WEH5EI17cGV+l7kwAOB0wJcZirJgCHDoRhVg1e/Bxk3kpO9x4nQDJiA6YMg3s880dnUyuEP5NRReDkfwxk4GECHd1xKPn2QUVEXIrItMWe73eDJcZXxZ5G8B/BSgrFJTvBqTrCvl2KnqQeRpUKuRWqDNSJwtwjDbUdwyM0ZrMNAyFjqEUkLght4Vat8B6BhfW9vgPG1OHXUQ2aYNIeMrM7xHR84K0oa+vb/XEiRM/tLcZxJZCWKzGo9/3yUFB8yNIGzIYNQC+LpXSllXS1aKSpA3GynEaiAQ49PQPADbUoLep1JzphYLEJW0o8IEvpVoOTqx1KUn6eTm0P9XV0g+ZMd/sT/aHuc4z5aFLmUiwKI436zHwFoEX1+Dj6xVFSZUynnxthqP9AUtPaRKe0/6Vet6zr3SgR+MvaIwvFEL7I3ROlYNnSOISkEjP9sTA+o9rqKncuO/hQDIc7Y9EeDYl0bOpf2n/kPb1HClpOArMX3Jpf4p4unJwYzlGHAfwtaoSsyIL7d0SNJoMvjQHXc1TICxR41HxNi67VJI4rkOJnmjYT/TV9K1ax1vePSuZTJa0/c0ecD6QEFI/spFMi2YucVzZT0seASKgiUG3WzRA6XrvEyHJGt+bj0xMX96JQ8QkqGY+kyGecb49b0e+vqddMPTVRE9YbyvrNKb2fLSnhdhih1CPMrPIPmOsHPe9u+/opmduuaW/kP4VWmcIL2BdhEs9Wqgly6hXOnl1ttLSyKvFRz0Icyjb7Z5xA3m0G3IFgA013ELJq430bCeB+DCCtDfAW4olr9b7wby2972/NW3cuNHyni5jOgY1zQeSfKEDRpLPz2maJjiTDwTw59GjR794yCGH5Ew14JJXFzhbpaY/IMJ7zNRcdvqDQKgFDLGiGDnW9Y5/wEStGntuMF00hhpO9glarvQHH7XOC0ggkQP8pHyyqMD0BwS88OWjvP+xaNEirUAzl1TN1xiKEm0n6siV/sDIWxggov/Mk/7gDSN99DKv15sRZu2Xg276g0JnZpocPERj+ECCfZC8uRLoMIvcdjpn7Bh9qSdc3hGPLilUR756uitNf99lRCxOvEw3Dd0tHMBye+KYXDKGTKBz3WU1PZ7+20jk5S6wMOOvnl08gY5IxcbMq4rJV8jMN9bX14uXkVV2eAKdAe0buTzPzQ6VdFFY4LzukGr+QGgOGFY2WyL+VrG5PPICZWboqJQHC8GwknEadR8CSzeoiTt+nd3WTcFW3LQz8+b6+vpPma12dAo24d397r6jT8333bbbA0QYtiEQWmY72v0XQ/qckwzt6UCj1EIrR585m4w7NeIb7X5oQybxXNr8KCjNAFNqkST+6tj5y/9HH7fIGdK/c5N4GqnXCk5TkWfcN3m9Xot+ttJJPAddIjPiaiIqeNkGlT0CIAZHV0I8M+kR0sOqEsmb2qzUh1MQdoMh0g5YWVcZ6CfwCkpV3ZCStM9UOg00CM/WtLQfbY5hZ6eBdopwQ5KkUz772c/qORB3RBro7ExdBFzfoUQF835G2SMAIkY0rem8ozXNI+4DjDwW1KoqkYWlgmGodiJZD4NEHkWThVCA8nWABSewyH0BDTitU4muFz8bJ1UvONUXIlo4rqWtVcgz3HYMJhJ6QlUik5zSI+Scfnr4E33VrKd8FmVgQDvA3LMb+Qit7W2Zep+sra09Zf/99/9IyMkIriNekYzHxIGGo8WfPpDR7SgKE/13Mh75uV3JHgMQMSifHGwk6O4WxrgoqCqRVY5a1RA2Rb5gvIcGLjNWFNP3yVI1MEarNX2gelubFzNgpqouuzsEvDhuQbvlLtMghx5n43haAn/aSV6rhsawzKRHIw6Kxuzq6hLxP9ZqVu7AiOjbdXV1K3WANAUPh0Z6+mwGv5pUYhPLlZ+rvS8Q/AkxXWn+jZjmdSQiIluvXvYogOiGlcM/AFhnbDSG+AVVifylEsYVMhuaZh2BFF3GROdbbyJgY1KJft38f29r8wtZl6Bld4eJvlTb0qYHqGV5Rzeq8ag9a1dZuvyB0C/B+J4uxJbHRSTp3GeffT7IdZRbqkJmXllfX2+Rl/vk0O/MoDzP1tE12TnpS9WT3c7XGL6WiL9vPTHEszriMT1L8R4HEP2hbQyvZGLzgX2xt4a+VK5f0nCTMX1mKJCSIFgKhVlXq0pEP8b98Po5+3n6qt4brn3Rfye6sKalTdD3wJ4HhYCCkpcWqq+hMbjSBL8EPvN+JXafaPvaa699WZKkJwuVU0g9Inqurq7O8rj2y+F7AdY/nqs90md+PUQ+80LkD1WnQQ6tYODSdB0eAOMM4cGxRwJE3/5gYB2Ar6bHi3vURNRMTl+uLXO2txNzg7FcTUT1dNY9y+YfA+aMlGmOdID5qpqFy/W8LNPk4BkayEgGxKtUJWax7peryy+H1wEsXHmQxYYZBiASHTlaxowZ86mDDjpIzxHpbwy1g6B/e7DGx+TKUT8ok5hDvRHOqyAE9kiACBs1NIa/auydhZsDmPH9ZCK62CH7DRLjC4ROIoZ+/ErMV3ckYj8SP/cum38SM+u/d7Iwoa22pb1Ff5DSrCUPGvKTqhJ1LAeKXw49BOAUIXvg31rtgw+u6hE/b9q06TIius7JMRmyvuT1evWtY0Nj8ComukKfP8LJyXhUxBBllEoBRJ9H4Lk9FiDGG2g2CBaDCTOmJBNR80FydG7Ftwhr0vMGQG7tSMQuEj9/tGz+ERKz/nuHy5U1C9r1IDG/HD4H4LvSD5KzJz72bY4m0fGdqyOCwlUA5FtE5LQtP/B6vSZvlwDILUx0oW5TSTsylz9cBQGyibAHryDmw+gPhK4Gw3R5/7fmoS923hvpdvhhhYgUHBgYZeYTtCiNOC57et84WGThFdl5HSsSY9bYhe36h6SvMTyfiJelwZl5ClOuwgY5dCMDxiUezVaVSETIfPPNNw/t6+sThOBOlnVer9ciMffLIfG9o3tZV1X1HVjJZJ/+QOh2m8fEOxq0RpHcdY9eQcyZa5BDCgON6f/zI6oSm+zkrApZ6YjBbWY66mdVJWodf25pbX6YAOtUywndUnV1/di5S/TUaP5A8Aak876Dmf3JREzQHDlSMoKibN9WQnh3d/ffmdnJVBJXeL1e6wTSL4cEv4DuNPrOptGjKpUm2h8I3wTm7+j2A28hSGeqSkRsLffMU6zsJyPtSp/aAJD+0BKhrSMe1ffvThb7sWQVqiauV1bqBBI9S+dfDOIbndLFwMO1C9otT4EGOfQKA3ouc6dTO2RtYV5QlaiVlrurq0v4og3KbV/qOJl5Sn19vb5tM+LrDV835y9AbS/P7adXzMySdJqdiGRErCDCGFMDYb/E+oVXTRokHO6Ix6KlTmaudkNtdXpa53UDZCbHLE8t47Sahe36Lb2vKTyJNDY5yRz9QDc76ZdDIpWdoHkSuSMmqWtWPSF+7OrqEivx78obTLo1M99ZX18/a7vOYAyg9P9t9y9O6LLpWAqQcB1KF0JTdiTpiAGIGL9wEQFI5wPW5xp8YqGEd4VMjF8OfxHg/zOm/CVPVf/JG+65R78D6V02/2xmwaJSZmFEaha2W97FPjl0sxk27PT3hw0gVt767NiWTZs23UCU3t6VUbZ5vV49ZEEUESnKwNOWPBsoy9CR0TQ79kQjDnfmeGGOKIDoIGkMXS8iBw1rveyp6jvJfIidML5fDq4B6EzjjaSzqZhytyyddzUR5YyRL0g34/Fxh771NQqkSSWyHqTuqqq+SZX4kBXezARNdyQUhYDjOpSodbezadOmd4kovcKUUJg5UF9fr5hN7aAHeK2qxGaWIDZvE58c+hkB/22Nh3lORyKWcws84gCSfrDCnQyeohtoCFfnUiYl+9iRmAIdiYg1+T2tzVcB0M/2iyqEh/pAgX1b2ixeXb9s24aAF6pKzHK8K0p2AZUbGsPXsumOQchF9vcrAN8tQJRVhYhEhrEpdXV1VtLXbJILjenr5fAC5OqP79xz96a+KmGrC4YLshuRAJkqn/85CSnBqlhvvBN/qCqRa4uZ3KHq+gOhW8GwfIrsH+yiXW9bcxOn+BoQeQvSSXRVTUubfmtulgxvV+B/3900elKlTnmEzhkzzt9rYHTq9wC+qPchB0hef/31b2qadjWA4wsY1zVerzfjRTHj7G8fMDDQbx6VCx23qfGofg9SiSJsqCZiPxtK9ogEiDCI4flrvdk18Jmdhp+RE5Nhz6Yl5FVVVR+4/p7b3rHL7lnafCEDMhG+ZmNDNKrQnwHeIBGtHNvSlnFvk7kFAewXeE70PZ8MOxG4XifHx/PmzZv36unpCWiadoIkSZOYWZA2iCLI/cRhgvj3R6/X+4Bdzwz5ggkDGHjF+l0OAFZybPlkj1iA6CDJdHX+iCTtxI7Vq/7q1ETYczKmn6f8N/lbl889TBvAfh5U9Ywave11mnOjnuDUXoyVT7iDW0QPlfQOyNY/iA0zPaYlyUQ0ryv/22+/vf+WLVsOnThxosj/krPYXerTFfgNVYnZYm2cmpHi5YxogAhz+QOhKNhi6ni0t4ZOddLz1y8H/w7Q9ss0wmKPp++6Yg8GjOSbwrWkzprmCh1/5nqMjGjKfKdwjxGwuMMIECv0MZx+9tmfTKVGXW6506cbvq8q0YwcioXKq0S9EQ+QYy+6qPpT/9r2iMmHxcwrkglno9eyOZ8AfolYukkjejCp3JHXT+vUWbNqpK3SN6V0DnnhPbu97EhwyMFzANJ9vdKFVhNjjRlIZf2W+XZA6vT0SZ1DpVoQ26kUp3xM2hyAPmeT63hEZLmgGfEAEQZM5zBMPQDQJ/UFHrgkqUTFqYxjJfvD3XqogOcYeIWYhYv3ZgbVgugABh9gy+Bl78czzFiWTERtD6xj3RwkaFpj6FyNoPt86bYh3JuMR88WPxtbI3GMfWx2Q8EWQqB3wPwOgcV2cX9OHwWLg5EvDFJU4Q/yUi3kAsSwXEMgGGIm3RFPf0c6SB9kykwfAWtzrXuS4mZN574djpOrOJFD1/bL4VkAx2xv+LtVJXJudiuDAEF4Lw8CyvD94bUaSyucPsodXm9hNVyA2Ozkl8OLAdY/OAl4NeWhb1XC89c/c9ZXQDQVJPkA/kq+qRLxCMysaJAe2dEPkK8xFCSC5YqTK4dLDqDMAPNpTCT8s/TVOFcRqwuYfk2EjTsyN0thkMis5QIky2p2F2sCEh1KVC7FsIW2EV7Ahxz+0fiUVjVeY2k8Utw7qtrzntZT/c9KxWAP1zfjQMAWLVh8lKK4jONU9fgqpvEp1sZKpL3vkQbef/Plvd6v5H3NcGMr9u8uQLIsdop80T7V2CZOZfTzewauTCrRjOxVxRp5d6rvbwxlBJmBEFPj0dDuNAYn++oCJIc1p8qzTpYgCd8jPVsT2VgunDT+riarQQ5dwIBOBGGUiKpEs2lXd7VuV7Q/LkDymDeDsRDoYYlOSa6O/LGis7EThfsbg98G0fbsv4Q71HjUojLaiV3bqapdgAxhfn9j6FcgywHvsdEDfNp998X+uVNnrALKp8qhiyTgZlM0M9+eTMQuqICq3U6kC5BhpswvB38L0DeM75FbkkpUD83cU4q/MfgdEN1kjWcXvY/YWfZ2ATKM5b911vkHV6dSwsFOT/E2nHv0zprIUvTaCef0sTFbbCylyNsT27gAKWBWGwKzpjBLndYWhOiMZDwiiOl229LQGLyEiW7YvnLQzWo8UlQ8x247+CI67gKkQGNl5azY5NEwY8OaqMg4tduV7KRDYNykJqJWfo7dbkAV7LALkCKMa/f8FbnIseXdgFPplovoRllVfXLwUgJZ7OUgulGNRzLSoJWlYA9r7AKkyAn1yyFB2Pxl43tkaUc8elmRInZadX8gNA+MdqsDjBvURNQgbN5p3dqlFbsAKXJ6psjnTfDAI+g3P6E3JbpYjUe2nwIVKW9HVc9mdGGiFcl4xPGkNDtqPDtKjwuQEixtZ1Mn4GNiTL8/EbVYP0oQWdEm2ZmU7OzzFVW8Bwh3AVLiJDbIof9mwAz4fxKp/oC69u7XSxRXsWZ+ObgAoKXbFXC7qsTmV0zhHibYBUgZE+qXQyJxqM7ZVIg7eBmqSmrqawwtJML2vPGMZWoiup1JsCSpI6uRC5Cy5nuR5Jc3PW+FjRL9TI1HFpUl0qHGfjl4OUC2fCjcqiqxiiQ1dajLu6QYFyBlTouRXVcwdujpDSTGeffvoHDYfF33NYa+R4Rfmn8fjnmkTBPs0c1dgDgwvQ2B4HnMZGbT/Rs0LWASPOcTr4ffSuwD6xQ+423/egEIh8j3QPw0WNrQW4ONhTKtDE5iytepSiydhNMtRVvABUjRJsvdwJ4NloDfDqAq8ICy8n17bRFlJ/VVzdXAYQLp6QoKLJsZuE9Kx6TnzXfobwz9EATBbJguhAxu4AJ1udVsFnAB4uDj4JdDgs7Ul344M32bfHLoYgLmArDym9tUC77dzRDMJkS1AA4w/g3qnWBXZ41v6FwTezYDfIHwFcQseH+NwteqSqx0omwH7bI7i3IB4uDsTZbl2nEY9wIAnSiOGZclE9GlGXnMt7/eBbfU7zUiJancoWd1zS6CVV1i/iYTi6ScaU7cdHlTYzrPJHLwN4Z+DMLPt4vGNWo8WjxBtoO22FNEuQBxeCanycETNJDJVt4H8O8B0rPEGuUhgK4zU3wVov7008Of6B/FP2VGxv2FYD4nCV8l5iutdYP56qSRYbcQ2W6doS3gAqQCT4jBE2VF6Jkqyo0l8QdCM8EQ3Lz75Ow24RdqPPqTCgxpxIp0AVKhqffL4RcBtmg1c5FMb/7l9/YaI/UdSx4+lggngyFSmnULviiAnpQ06ZkxC1tftndxypnnHeTxeETedSN1Q/qvxPzzjkTMSgpToWGNOLEuQCow5dnfHMw4L5sqtLe1uYUBcas9ZJZYAu4em6q+iC5f0mPvqj1hKEDPq0rETDNQgRGNXJEuQByeeyPPhUhyKe42BuXQ+Md1l9Xs7el/iIETClfN/wZT0EzcKdqlDwTGCj7hE9NLyOAElIXLd2vms4ALEIefDV8guJyYxHFuBtGz+H/PiksPRr/nzZJVEl9Y07Lc4q3KSmjzmKpETy5Zttswz2edaxjHLDD1rHCdlOIuQ2Ava3xyck3MyHor8qXP21Rw2rU8vepPpeo/cfn1pg745ZBIBz09vVgN3so5NrgRKshdQRyc+AxO26z8HT2tzeKeIiPPYCmqxS39uAXt1rGxfRXZFT2KSxnjrtTGBYiDs5GRKMeW23vL0ubziGD6apWtkZgWj1vYZqWX9svBzUZuk10qO1PZA90FBLgAcXAS/HKIDXF/V5WozqOlf3u0zo8A7CQB9Ks1C9onmvLtwKxE2mQHTbTbiXIB4tCUTZEvGO/BgE5LymA1qcQaLIAsa34aXEpymfyd06q0T+01b4XuouKXw5cDnI79YL5QTcTsBNQOjXBkinEB4tC8Z6UxzmBF72lt3jo4zXN5irUUfX2vy9s2GgAJA5zO5+F68JZn2KzWLkAcMqeeNUqSDPb37TEY25bPPXJgQKoEwdycmgXtN4ruTwuE/RpzR3oovFZVYnoYsFvKt4ALkPJtqEuYJgeP10DigjAjd/iHSy79vEfyCA9fR4sGvnivBct1uqEGOdTAwP2GgjWqEm10VNkIFuYCxKHJbzjz/Hr2pF4z3uKrVCUWNEX3tDZ/DGCMQ6rSOymik8e1tD2mAyQQPp+ZhROjyIh1VVKJln2c7GRfd2dZLkAcmr1TZHmfURgnAp9EeVBVolNsABHs8JMcUqWLSWlV++992dL3xM++QPAKYjKCpSioKhHHjpSd7PPuKMsFiIOz5pdD74p84AA+UJXovhZAls5bCSLHsjUx8FLtgvbPm/J9criTwDogNY2Pzo42dHCII06UCxAHp9wfCN4Apkv0LRDT1zoSkUfFzx8vmx/W2DhlckAfA8trF7Q3C1GyLI/qwThx3Ls3g19NKjHrfsQBVSNehAsQBx8BXyB8OjHfp4vMcjXpbW2+i4FzylXHwAu1C9qPNOXYXU2YeEUyHnP5dss1sq29CxAHjamHxlbzcwwcDGCws2Jrs7kFK12rxsfVXLbcYjbJdFZkfzIRS5Yu3G2ZbQEXIA4/E/ZgKSbcm4xHzzZVfLRs/hES8/OlqiSmlnEL29pyrR4ANqhKdEapst12uS3gAsThJ0OExFZ5PE8bq8igrdYry+eOPmTAcyuDZxWsmvkfkKSGmpY2weCol0EBU8zT1UTMvAspWLRbcWgLuACpwBNSUMhtW3MTNFzNWbHlObpz47gqbQHNW7HN/jd7yC0BiQ4lKldgKCNepAuQCj0CDYHQncw41xSfi7RBhN/uVd1/JKfoKIn4SAaOAuFdZjxPzM9JkvT82Ja2bnsXc5A2vFy1zXPc+vW3f1ShoYxosS5AKjj9mcQK5aeQzkn7k+qv2xXzklTQrDtUtAuQCpvbLwevAegHNjXPUJpj95ZCVftnzv4KSGsGwfrgB/hjCZh8vxITORPdUiELuACpkGHtYv2Nodkg3J6pil4H86MEWp+qwlOd90asrVTDOefsm+obdbQE7b+YaDJB58uyFX5YAoL3K7HSCSB2wLj3BBUuQHbQLAp3ePJIc+3fJVmqBe+VOAI+EMChebpV9Oqzg4a3x6pxAbKDp9bXGPRJEp3LrLPAp7mzhi/rCEgWsy0bXqRboxALuAApxEoVqiPAQhJNBvMEpPOFTGTgPQJeJOAlMP2+egAPrVsXMb2EK9QTV2w+C7gAcZ8N1wJDWMAFiPt4uBZwAeI+A64FSrOAu4KUZje31QixgAuQETLR7jBLs4ALkNLs5rYaIRZwATJCJtodZmkW+H+/9pOmlilFHgAAAABJRU5ErkJggg==;" parent="1" vertex="1">
          <mxGeometry x="540.32" y="685.69" width="124.37" height="124.37" as="geometry" />
        </mxCell>
        <mxCell id="zyXjHvI1NbI1ozkS3pf7-24" value="&lt;div style=&quot;text-align: left&quot;&gt;&lt;font face=&quot;Times New Roman&quot; style=&quot;font-size: 14px&quot;&gt;Classifier&lt;/font&gt;&lt;br&gt;&lt;/div&gt;" style="text;html=1;strokeColor=none;fillColor=none;align=center;verticalAlign=middle;whiteSpace=wrap;rounded=0;" parent="1" vertex="1">
          <mxGeometry x="547.51" y="810.0600000000001" width="110" height="20" as="geometry" />
        </mxCell>
        <mxCell id="zyXjHvI1NbI1ozkS3pf7-29" value="&lt;font face=&quot;Times New Roman&quot; style=&quot;font-size: 14px&quot;&gt;&lt;b&gt;PPG-based Authentication&lt;/b&gt;&lt;/font&gt;" style="text;whiteSpace=wrap;html=1;" parent="1" vertex="1">
          <mxGeometry x="638.44" y="653.5600000000001" width="162.51" height="30" as="geometry" />
        </mxCell>
        <mxCell id="zyXjHvI1NbI1ozkS3pf7-30" value="&lt;font face=&quot;Times New Roman&quot;&gt;&lt;span style=&quot;font-size: 14px&quot;&gt;&lt;b&gt;Spoofing&amp;nbsp;&lt;/b&gt;&lt;/span&gt;&lt;b style=&quot;font-size: 14px&quot;&gt;Attack&amp;nbsp;&lt;/b&gt;&lt;/font&gt;" style="text;whiteSpace=wrap;html=1;" parent="1" vertex="1">
          <mxGeometry x="700" y="497.5" width="110" height="30" as="geometry" />
        </mxCell>
        <mxCell id="zyXjHvI1NbI1ozkS3pf7-31" value="" style="shape=image;verticalLabelPosition=bottom;labelBackgroundColor=#ffffff;verticalAlign=top;aspect=fixed;imageAspect=0;image=data:image/png,iVBORw0KGgoAAAANSUhEUgAAAMgAAADICAYAAACtWK6eAAAgAElEQVR4Xu19B3Rcx5XlbXQAupFTIxGJpEiCBAOYQBEUgyKDqGBLlMaWLenY8tozZ22OKdvj2Tme8Zzx2rNjSuSOdzzjkXe8kmzLpmRZlERQFEWCUcwEM0gi55xjo8Oe9yGQ+B2A/t2/+/8W3junTzfQVa9e3arbFf6rVxqwMAKMgEcENIwNI8AIeEaACcK9gxGYBAEmCHcPRoAJwn2AEfANAR5BfMONc00TBJgg06ShuZq+IcAE8Q03zjVNEGCCTJOG5mr6hgATxDfcONc0QYAJMk0amqvpGwJMEN9w41zTBAEmyDRpaK6mbwgwQXzDjXNNEwSYINOkobmaviHABPENN841TRBggkyThuZq+oYAE8Q33DjXNEGACTJNGpqr6RsCTBDfcONc0wQBJsg0aWiupm8IMEF8w41zTRMEmCDTpKG5mr4hwATxDTfONU0QYIJMk4bmavqGABPEN9w41zRBICgE2f7qu3Gwha9HmOY7XuNqd+yGdqRk118/2e11Hk4YUghsf7U4B3ashwbPe2n4Ldjw+13f21TiZXq/kwWFIN95pfinGgf+Rqq1Dg1+tvu7m34oNR+nDw0Etu/c/y7geEKqtQ5g2+4dm/ZIzedL+uAQZGdxkwZIlWqgA2jevWNTmtR8nF79COz4+b75No3mmi+WaoA9r+7YtM2XvFLzBIUg23cWO6QaRumXzc/q3bJufqcveTmP+hH4jz+eSG/p6DNItlSDkl3f3bRBcj4fMqiWIBkpcSgqyMW83BQfqsVZQgGBI2fLcelmA7r7hqSZOx0I8tXHVk4KSk5GgjTQOHXIIlDdMPkk4fW9Z8R1mw4E+dG3NoZsg7LhwUOAyMMECR7eXFKIIcAECbEGY3ODiwATJLh4c2khhgATJMQajM0NLgJMkODizaWFGAJMkBBrsECa29kziI6eAQwNjWJw2IKhkVEMDlkwMGzB8GefB4dHMTRsgVanRbhehwiDDhHhurHPEfo777FRRpgTopCcEAVjuD6QZgdUNxMkoPCqV7ll1IaG5m7UtXSjsbUbDa29GBgaCYjBMVERSI6PgjkxCpmp8TAnRCMh1hSQsuRWOj0I8krxXjiwdRy8OTlmPLtpqdxYql5fZX0Hymvb0Njag8a2HlitdsVsXpI3A4+tz1esfG8LHraMYtcbR2CxWO9kcTgcL+9+efNOb3X4ky5YriYvAJpXAUdchEGPh4vmYcm8DH/sDpm8HV0DuFHVgrKqFoEYapJH1y3A0vmZajLJrS0HTpTh1OVq4TsHUKax2f9i1/e3lAbD8KAQhCpC3psp5tjvPXH/oheSEqKCUTdFyyAfo1tVrQI51Crrls/GuhWz1WqeyC6aapVVNX/4aVnNi//67c1twTI6aAShCrX1OdZrtTgcrMopUc7lW404e7UWDS2+n/MyRhgQaTIhyhSBqCgjTKZwREcaodfr3FbJarNhdJReoxi10rsV3T0D6O7tR3dPv0cYHtuwMKRGco0G/xBv1Pw4mO3KBJEJbZpCETGq6jskadSGhSExIRbmpDikmOOQak6AXueeCJIUf5a4s6cPZ86XoblV7BCYGBeJF58shClCure5L3bIkYcJIgeKQdZBrtpHz5WjtKzBq5KNxnAkJ8YhKSEaSfGxMJsToNOGeZXXl0S9fQP404fHXbLSAp0W6qEkTJAQaq2b1a3o6OrHuWt1U55nCNOEITszBTmZKcJ7MKWiuhHHTl0RFTk7Kxlf2rIsmGbIUhYTRBYYA6vk6u0mnLpUhca23ikLSkqIQdYMM3Iy0xATrcxzh5ITl1Bd1yyydev6fBSE2OhBFWCCTNnllE1w8mIlDp66NaURtI6YPzcbWRnmKdMGOsH+Q2dd1h9PP1KAvJnBHcnkqCcTRA4UA6SDFuF/3H9xUu3RkSbk52Vj7uysAFkhXa07goTS9u7EGjNBpLd/UHLQ09zX3zuL5nbP06qczFSsWp6HiHB17QrduFWD0xfKRDhptWF44fGVoHP/oSRMEJW21rlrtdh39LqLdZHGCERHmzAjPQn583JVaX1f/yDe+eCYi21zc8x4JsTcfZggquxiwNsHSnG9QrzQjYo04qmta1VqsdgsGkFoJHGWpx5egvmzJIcrU6zOTBDFoPdcMDkU/s//POCSYNWyPMy7Rz1rjcmgo1HkgwOnMGIZFSXLTk/A849PHl1GTU3CBFFTa3xmS2VdB9784KyLZdseXweTMUKFFrs3qfRqOUqvVrh8uXVDPgrmhcYDQyaICrsbPSHfe1j8oI22cTfev0KF1k42Etqw75Mz6OwSbzRQ/LGpYpSppaJMELW0xAQ7jp6vQMmZ2+KpyYwUbFizRIXWTm5SVW0Tjpy87JLoxSdXITNV/TtaTBAVdrkPj1zD+et1IsvumTkDRSsXCP8jZ8C2ti7Bm9Zg0CMiXI9wgx4G4d0Ag0EHnVarmpq9f+AUOjrF51JWLc7Bw6vnqcZGT4YwQVTYRG/tu4BbNa0iy2hLd/mSOfC0hepcDR2dHzfoER5uQLie3sdIJLyH62HQ68a+Ewg2Rir6bLc7MGq1wmq1wTJqFUhotdH72Gf6bvyzhdIJLu9WIQ0d6RU+k/u71SqQlKaG5PJy+XqlyMTYaCO+9UyRYIeahQmiwtbZc6AUN5y2eBcvmIWChbPhaeGrwmrcMYmcJWvqXA9xbdtYoPpA4UwQFfaskrO3cfScePcn755sFC6bF5IEoVGEoqL09IoPUoWC+wkTRIUEoROCf/5EvLCdlZOO+1YtRGNzOw6UnFeh1Z5NmpmdJkzdnD186YEhPThUszBBVNg6FH3ktbc/FVmWmW7GA2sLhOOtv337oAqt9mzSovmzQEd0r98cC4IwLqGw3csEUWFXo8Xuz177WGRZfFw0Ht+4Wvjfe8Un0OV07nt7URSSIzUYHAUGRh0YGLELn/stdgyNOtA/4sAgvVs++7/wvQNTRQHSagCjXoMInWbsnV5aIEIXBpPh7v9M9L1Bg/IOK45UimNt0e6bxTKKs6Vit30miPvOx2fSvSDlrjdK0Ns/LEq57fH1MBnD8enZ67hZId4GfjQvAvfPDPdCszgJEWRAII0DAxYHDFrq9IBRFyZ0eCKIFPnFpwOo7LwbT4ry0gPOwcFhHHU6ZcgEYYJI6VuitG98cBZVdeJgDLQGobVIRVUDjp2+KkqfZ9bhpRWRPpcnV8YfHewVRquJ8vTWtegbGAKdE5kouTMS8ZWt6vYO4CmWXD1DZj37j93Amatib9jxh4W9fYP404did3L65f/ZxhiZrZCmzuZw4Hv7xG4lmjANnt/2MMqrGnDcidS8SOcRRFoPm5D6RmUL9nwkPk0YHWXEFx8dc3d/68+HMTxsEen/y1WRmJ2o3IO32m4bdp0Qb+XGREfiC1vWuN2epgiLFGlRzcIjiIpb5ye/OgCbTRxLd0PREiFKyYcHT6OtXRwo7r+vjkRuvHIEqey04RefigmSkhyPTQ+sFEYPGkUmSlHBTDywao6KW4CDNqi6cd4vuYqLN+pFNlKwt80PFuLPxSdcIhj+YG0UUqKV88Gq77HhleNiglCUlUcfvhcHjpxHY1O7qC6b187H8gXqPt/CI4iKKXLgZBlOXRI/OyBzadG7//A5wS9rovzjgzGICpe47SRj/Zv7bPhfR8UEiY2JwpObi/D2+0fRPzDxbnINXnhiJbLS4mW0QH5VTBD5MZVFI0VPfP29M24DxNG0pbd/EENOd3v8fHMswpTjBzqH7PinQ32i+o8fE/5/f/gIDvHmFn7wtQcRblBuSuhNQzFBvEFJgTQfHLmGC04u7xPNoKDS5Dk7LkadBj95RNldLNrepW3eiUKewzFRJrR1uF7DsLogFw+umqsAut4XyQTxHqugpaQIiq+9fXLS8ii0qN1xdwGfZArD326IDpqN7goasQE/3C8mgi5MC6vd5tEutUdcZIIo2qXcFz7V6OEuV3a8Dt9ZreyDQppC7dgn7cKe2KgIfPOZNaqdajFBVEaQEYsV//xr6c6IeWY9XlqhTCzeiRB+v7hnSv8uZ8jVvJvFBFEZQVo7+/DvfzghsiopMgwZ0VpcahaH0JmYaHmGHl9aojxB/sdHvRiyOq3Gp8CYdrJeeKJQZS0xZg4TRGXNcrumDb/fJz7v8cg94chJ0OE/Tg94tHZtjgFPLDAqXpsff9KHnmH3F4XGGcNQOEOPj2673qz73NYVmDkjUXH7nQ1ggqisSc5cqcH+4zdEVn15iRHLMgx469IQztSL3UvGEz4yJwJEJKXlpyX9aBtwvyjfttCERWk6/N0B13jDj9+/EIvnqu+SVSaI0j3KqfzjFypx6LT43MS4j1VNlxXkTm5zM4N5Mj8C92UrT5Cdx/rR0OtKkLlJevy3wrEp4K9OD6CsXewSf3/hHKxZOlNlrcFTLNU1iLug1ROdEN+9Noxj1W6mKAUmLE3XK16f3Sf6UdPtSpBvFkZiTtLYQ8HflQ7iXIN4PbUiPwub7puvuP08xVJdE4gNotuk/nTwkuifX8w3oih77IqD9kE7dh/vF04NTpRvrIzEvGTln0q/eXEQFxrFnZ9GNhrhxuX9G8M47HTqMG9mKp5+RH3n03mKpTLClNe14XcfiBfp5MJOo8i4fHRrWLTQnTh9Ubo6FxpG8WbpXR+xjFgtvrbMBFqgj8u/nRoQjuZOlAWz0/DFhxYrbb5L+UwQlTUJBWf7qdN5dDLx2cVGrJxx96KcN0oHUd5mRXqsFk8vNCJhQgdUukrU+Ss+I8Da3HDhLPu40HdEEGd5dvMyzMlOVtp0JojqWsCNQR+dLMNpJy9eIsDf3a+sK4m/2NH0kNZQN1rFU7Ck+Cj85bNr/FUfkPw8ggQEVv+UNrb24LV3xGF/SKM5Mgz5qXosMOuQm6D8esPbWtb12IRADofKR9Bncd2CU3MAOSaIt60c5HTubpiaaAKtSzbPjUBOvHIHpCaDhEaLUzUWXGu1oqXfs7Ni4cJsPLImL8joel8cE8R7rIKeciqSLEnT46tLlXcvcQfMr88N4lqLZ9cYyhNpCseO5zcEHVcpBTJBpKClQNqpSKJ0oAZ3kNCU6lWno7fO6cithNxL1C5MELW3ECAcnKIXnRNxljU5BnxBBT5YE+36uHwYxTddH2ZSGnJMJJeSgjy+gs1T1wvqodC2Psd6rRaHQ4AHU5pYWdsOuhphZMJJwphwDX6wLkaIhqgWcfecI29WKpbMzcA9KtzKnQw3HkHU0qu8tOOt4gu4VS2+XGfbIiNWZd59RuKlqoAka+mz4Z+dAjdQQU8+sAgL56QHpMxAKmWCBBLdAOg+WVqFg5/eFGlWS9hRMupotQV/vjYxegmQmRqPL29ZJtxiFWrCBAmxFvN0Xv05FTgrtvbb8cvTAy7nQR4pmofCRTkhhvSYuUyQEGw2d2fWs+K0+PbqKEXD/vzm/CAuO516NIXr8dLTq0F3EoaiMEFCsNU8jSJb5xuxIVeZtcjBihHsKxNf10DQUuREOnMeqsIECdGWczeKkMcsnbsgl5RgyvUWK1475+qAmJwQheceXYHoSOUPcvmKBxPEV+QUzucp8uLMBB2+ttwk8qANpKlNfTb8i5tdKyrzmU1LMTfHHMjiA66bCRJwiANXQGlZA/YevuJSwKJUPV5YFngXlOFRB/7WzflyMmjt8llYv+KewFU+SJqZIEECOlDFEEGIKM6yOsuApxYGbmFc3WXD/z4pDlQ9bsPsrGR8acuyQFU5qHqZIEGFW/7CaKr1+w/Po63LtbNSlBPnA0tyWLD3+hBKqtxHV0lNisEXHlyMpHhlozzKUU/SwQSRC0kF9bR39gsuKO5IYo4KE0hCI4q/QqcEj1RZcNWDl25yYjS+tGlpyG7pusOHCeJvr1FJfiLJbz88hx6nm3HvTHsStQJR8lOkO211D9lRUjWCox5GDeGXFsC2z8Gi3Lk5mSAq6eBymHHyQiUOOsXUctZLDxQXpelBZ0mmOsdO58cvNY0Kr343JwGddX/1sZWgq50/T8IE+Ry15tmrtdh/7Dq8iYxLt+Lek6hFcpQWKVFaJJrGnKzp9F9dt12IbTXZScAx2Kiku87ZTBB5OhO7u8uD41gXdTjQ2NqL+tZu3K5uQ2W9+B5AGYsSqaJIJUOjFIP3bnNS6J75s1KQYY5DTNTdOFiBsiEYenkECQbKMpfR2T2AhtYe1Ld0C+8U5MGtOIAEU5gwPbK4i1fqg13zzToUZBhwutbiEttqXB09OSeSpJtjMSMlDlnp8QjTBPV30Yeauc/CBJENysApGhiyoLGtBw0t3ahr6kJdczesTtdDeyqdgjs8lhdxZy1BwRSkikmvwdKMsXULPakncXcoypNecjnJMMciIyUOOWkJSAyhLWAmiNTeEoT0drtDGBnGyDBGiMFh988dpjKHIhvuWBMlJLPZHbjUbMWVJovwPpXkfLagX5phAJ1cnCi7TvSj1k0M3ql0hoVp7ows2ekJyE6PR4RB+s7aVOXI9T0TRC4k/dRDF+cQEYgUtU1dbm+39aUIWiv85GHXyz17R+xCFPaGHjua+m3oGx5b2s9K0CIzToesWO2kV0r//cE+9I1IH42c62CK0AsHqrKILGnxAnnUJEwQBVtjYNiCGxXNuF7RjOqGTr8sSYiORHpiHK5Wu7qd/GBtFFKi5Yufdb3VitfOunrvrpibi4b2TjS6udHW28rR9GtuthnzZ6WqgixMEG9bTsZ0dJ6j9Ea9QA4iiS9iijAgMzkeM5LjkZkch9SEsV/eNz4+jYb2bpFKcjmhC3bkEncxr5Jio/D1zUVCEZ19A6ht7RR21mrbutA7ID6C660d5NNFRFkyT7mLdZgg3raWDOmIGOMhfKSqo7n7GBnukkKndR0VLlfWY9/pay7qKcD1vTK4m1xpHsV/nb8bvX28oDX5s7Bm4Wy31apt6URt2zhhOkFrLCmSnhyDpfMzhVewhQkSJMQv3qjH+yVXJZWWEh+DjKQ4ZJnjkZEcj2jj1AePhkYs+M2BU+jpd/3V/kqBCQV+XLLzztVhnKhxH+/qpc1FSIwd2wyYTPqGhlHX2iW8aJTp6PV876KzHiLK2hWzMSc7eGdMmCBTtagM339y+hZOXKicUlOMKQKZ5gTMSIoV3mna4otcq2nE+yddz4mQrjnJeuEmKnrpvDh42DVsx4X6UeFSHDoc5U42Fy7Aopm+BYJr7uxFTUsH6tu6BdIMj04erpTKp5uo6EaqYAgTJMAoU5R2jw/yAMRHmTAzPRmz0hKFd7nk4/NlOH+rxqM6c6QWBek64WKbeGMYEk1jr45B+51XY68d5xstoINRnmTJ7ExsXCHPmfNhyygqGttQ2dQhvNPfnuSBwjkoCsKdhkwQuXqkGz1vfnAOlXXuXT9io4xYMScby+dmB8yC4tPXcKmyPmD6c9OS8Mz6wByM6h8aQWl5HS5VNICmZe5k45o8rFwYOPyoTCZIgLrP3pKrwk6VO1k5Lwer8nJBO1GBlpLS2zh1Y+rpnVQ7CvNysWHJHKnZJKcnohy5dAtXqhrd5g303SJMEMlNNnWGm9Wt+EPxBbcJn167FLMy5JtKTW0NUFbXgnM3a1Df1uVN8knT0MZBUf5MzJmR4rcuKQrO367Bx+fKXLLo9Vq88EQh0pJcH4ZK0e8pLRNEDhSddPzXu6cFFxFnoV9c+uVVSq5UNuBGXQsqG9skm5CVkoDZ6clYNCsDEXplXENoXbLniOsPTyAvAGWCSO4qk2c4ebESB0/dckk02XMCmU2YUl1TRw+au3rR2t2Pjt5+wc9LeI1YYAo3CFM/eqUlxCIxxoTk2GikJarDBeT4lXIcv1rhUke6IZeIIrcwQWREtKN7ADR6ODsWmmOj8dxDK2HQh17wZhnhkUWVZdSKNz8+g9aePpE+Chbx4hOFoCmXnMIEkRHN4mPXQaf6nOXRVfnIz1XOXULGKqpC1dWqBnxwyvWhayAW7EwQmZq8f3AEv3zrOIZGxHv3tJj9wn1LZCqF1Ywj8KdjpbhV3yICJCHWhG9uK4JOJ98owgSRqc+dulSNAyddd1mee6gQM5LiZCqF1YwjUN/ejTc/Pu0CyNb1+bJe78YEkanPuXtiTu4X5IbBEhgE9p68jOs1TSLlFFWFgkfIJUwQGZD09NzjuQdXCh64LIFBoKKhDXuOum77UthTcpWXQ5ggMqD4zseXcK1c/EuWl5WGx4sWyaCdVUyGwG8PnkGd0wNQuguR7kSUQ5ggfqLY0TWA//PWMRctz2xYhtzUJD+1c/apELhwuxYHzt1wSfZXz94nS3AIJshULTDF98cvVOKQUzRD3rnyE1QJ2UcsVvy6+AR6B8UOjfcXzsEaGbx9mSASGsNdUneL88eLFiMvK9VPzZzdWwQOXbyJM2XVouQU/OHrX7zXWxUe0zFB/IDwdm2bcPXARImLMuGlLUXQhnlxGsmPsjnrXQTICfPNg2dcINm2sQDzcv1zqmSC+NHT3jt0BZduiqOIBMsN3A+zP5dZf3foLOjs+0ShgA9PPezfQ1omiI/dpbNnEL/43VGX3M8/vEo1jn0+Vi0ks10sr8NHZ6+72P6tZ9aAIjv6KkwQH5E7cbESnzh57dKR2W3rlvqokbP5gwAFq/i/xZ+6nD6kY7l0PNdXYYL4iNwvfn8MFER6omwpzMfCmeyU6COkfmf75MJNnL0pXqzHxRjx7S+v81k3E8QH6MqqWvDH/RdFOSmy4Ysb74VeRkc5H0yb1lk8LdYf27DQ5+BzTBAfuhQdpyX3komyKm8m1i8J/WuPfYBDVVnI9YRcUCaKP/5ZTBCJzevuyTldffHVh3hxLhHKgCT3FFnyG9tWIzVR+rl1JojEZnIXBG5eZiqeWLNYoiZOHggEaLH++oHT6OoXh0ddviATm9dK96xmgkhspZ/9+iAsFvHdGo/euxD5OekSNXHyQCFwuPQWTt+oEqmno7g//PpDkotkgkiA7NLNRrx36LIohzkuGl95qJAX5xJwDHRST4v1rRvyUTBPWohUJoiE1nrtnVNobBVfLUDRSuZnpyEhJlKCJk4aSASqmtpxsbze5UhuenIsvv6UNP8sJoiElvrHX+73mJoORuVlpQjxdSneLkvwEOjsHcDthlZUNXWguqVj0oJ/9K2NkgxjgkiAazKCTFQzMy0J2SkJyElNBEUiZJEXAbrAtKq5HTUtnahp7kBbT7/XBTBBnKBq63Os12px2GsEJ0lIIX0otI8UIYLkpCYgOyVRIA17+UpBbyytzWZHY2cPKOAdXe9G94r4cqmpL89DeASR2F6lZQ24Xt6M8jrp4TujTRHISUlABl2ZFh9z59o0iSZ87pOPWm1obO9GQ0c3Gtp70NDehWGnnUMpIGSlxSM3IxHrVri/AWsyXUwQKUhPSEuxd6+VNwtn0ekec18k0hguTMEoxGd6It0mRVciT7/oix09/Wjp7kNTZ68QYJtGCn9EG6bBnBwzcmckIic9AUnx7M3rEU85p1juCqFAcRW17aioa0N5bbvPZBnXTWFKaYShq9fM8dFIiDbB3V2E/nQgJfO2CDGB+9DU0Qv63NLVB6vN/c1VUuyMNBoEUszKTBKIYQyXJ8A2jyBSWmGKtPQAsaK+Hbdr21FZ247eAfcXv0gtku4mjI+JFHbHiDB0ajE+euyzGslD8XPpplt6mt3RM4Du/iG09fajtasPDoe0Czwnw0q4MjrHjNmZyaD1RSCECRIIVAFYrTZU1HcIowutV7p7fbsKeSrzJpInJjIC4Totwg16GLRaGOhdrxU+C//TaYUA2mHkPCZRRkatGLGMYthqxcjIKEasVgyPjMJitQnhVnsGhgVCdPb2+3y1tTcmZZhjhWO0c3LNSPZj6uRNWZSGCeItUn6kox9NIklVfYdwX2FjWw+sVrsfGv3LqhcIo4NBpxM8AOgzbZ3SbtGozSa8W+122Kx2jNrH/lZCyD2EHu5R5PZ0cwxmZiQi0jT1Tb9y2soEkRNNL3VZRm1oaO5GXUu38GS+obUXA0Pur1f2UmXIJ6OFdVpyLCgaSVpyjEAMf47KygUIE0QuJP3UQ2fcm9t70dbZj7au/jvvfqpVZXaa4KWZYwUS0CstJQYpCdHqtFWDf4g3an4cTOOkT4D9sC7Qu1h+mOZV1vZOWtzeJQwRidYzk12R7JXiACbSacMQHRmOmCij8B4dGSG8x0ZFIDbaKJAiVIRHkFBpKSc7iSBElO6+sVdv3/Cdz3ISSKvVgNYsdOcGLfiFz3qt8LwmOioCMROJYBojhSlCni1WNTTN55Yg2199Nw628PUmo+HvH12fv4S2ASMMn5+Gm6rz2O0OYUtVWHw7HLDTu90hLLjpZXeMfaZ0lIY6v04XJizaJ77CwoI64E9VraB9Tz861Q2duHyr4Xx1XefLu763qSRYhQcF8e+8UvxTjQN/M14pf8O/BAscLkcdCFBQDgrOMS4OYNvuHZv2BMO64BBkZ3GTBrgTIJe2B3c8vyEY9eMyQhwBWvf92x+Oi2qhAfa8umPTtmBULSgE2b6z2OWRrVRX52CAwWWoDwGaWr2+1ynWrwYlu767KSi/sEwQ9fUJtmgCAkwQ7g6MwCQIMEG4ezACTBBegzALfEOARxDfcONc0wQBJsg0aWiupm8IMEF8w41zTRMEpi1B1i2f/ND+4nkZiIs2TpNuMH2rSV7TN6vE0fmd0Thyrlz8r+nwHGSqLkFep/cuycGqRTlTJeXvQxSBD49ex/lrtdKtZ4KMYUan177x9GrpAHIO1SMwMGzBrjdKhJOSkuVzR5BXivfCga1SgYiPNZX+1bNrd0vNx+nVj0BHT7/pV3tO7rTZ7BFSrXU4HC/vfnnzTqn5fEkfLFeTFwDNq4AjznsjNd2A46937dj0G+/zcMpQQmD7zv3UJ7ZLsdkBlGls9r/Y9f0tpVLy+Zo2KAQh43b8fN98m0bztLeGah2OPTtf3iwttqi3yjmdakq/6O8AAAEUSURBVBDY/i/F6xEGr2721GjQZtU59vzrtzdLD6XpY42DRhAf7eNsjICiCDBBFIWfC1c7AkwQtbcQ26coAkwQReHnwtWOABNE7S3E9imKABNEUfi5cLUjwARRewuxfYoiwARRFH4uXO0IMEHU3kJsn6IIMEEUhZ8LVzsCTBC1txDbpygCTBBF4efC1Y4AE0TtLcT2KYoAE0RR+LlwtSPABFF7C7F9iiLABFEUfi5c7QgwQdTeQmyfoggwQRSFnwtXOwJMELW3ENunKAJMEEXh58LVjgATRO0txPYpigATRFH4uXC1I8AEUXsLsX2KIsAEURR+LlztCDBB1N5CbJ+iCDBBFIWfC1c7AkwQtbcQ26coAv8f4cN/jLlwIygAAAAASUVORK5CYII=;" parent="1" vertex="1">
          <mxGeometry x="65.75999999999999" y="490" width="140" height="140" as="geometry" />
        </mxCell>
        <mxCell id="zyXjHvI1NbI1ozkS3pf7-34" value="&lt;font style=&quot;font-size: 14px&quot; face=&quot;Times New Roman&quot;&gt;Get the face video of the target user&lt;/font&gt;" style="text;whiteSpace=wrap;html=1;" parent="1" vertex="1">
          <mxGeometry x="30" y="620" width="270" height="30" as="geometry" />
        </mxCell>
        <mxCell id="zyXjHvI1NbI1ozkS3pf7-36" value="" style="shape=image;verticalLabelPosition=bottom;labelBackgroundColor=#ffffff;verticalAlign=top;aspect=fixed;imageAspect=0;image=data:image/png,iVBORw0KGgoAAAANSUhEUgAAAMgAAADICAYAAACtWK6eAAAgAElEQVR4Xu19B3Rcx5XlbXQAupFTIxGJpEiCBAOYQBEUgyKDqGBLlMaWLenY8tozZ22OKdvj2Tme8Zzx2rNjSuSOdzzjkXe8kmzLpmRZlERQFEWCUcwEM0gi55xjo8Oe9yGQ+B2A/t2/+/8W3junTzfQVa9e3arbFf6rVxqwMAKMgEcENIwNI8AIeEaACcK9gxGYBAEmCHcPRoAJwn2AEfANAR5BfMONc00TBJgg06ShuZq+IcAE8Q03zjVNEGCCTJOG5mr6hgATxDfcONc0QYAJMk0amqvpGwJMEN9w41zTBAEmyDRpaK6mbwgwQXzDjXNNEwSYINOkobmaviHABPENN841TRBggkyThuZq+oYAE8Q33DjXNEGACTJNGpqr6RsCTBDfcONc0wQBJsg0aWiupm8IMEF8w41zTRMEmCDTpKG5mr4hwATxDTfONU0QYIJMk4bmavqGABPEN9w41zRBICgE2f7qu3Gwha9HmOY7XuNqd+yGdqRk118/2e11Hk4YUghsf7U4B3ashwbPe2n4Ldjw+13f21TiZXq/kwWFIN95pfinGgf+Rqq1Dg1+tvu7m34oNR+nDw0Etu/c/y7geEKqtQ5g2+4dm/ZIzedL+uAQZGdxkwZIlWqgA2jevWNTmtR8nF79COz4+b75No3mmi+WaoA9r+7YtM2XvFLzBIUg23cWO6QaRumXzc/q3bJufqcveTmP+hH4jz+eSG/p6DNItlSDkl3f3bRBcj4fMqiWIBkpcSgqyMW83BQfqsVZQgGBI2fLcelmA7r7hqSZOx0I8tXHVk4KSk5GgjTQOHXIIlDdMPkk4fW9Z8R1mw4E+dG3NoZsg7LhwUOAyMMECR7eXFKIIcAECbEGY3ODiwATJLh4c2khhgATJMQajM0NLgJMkODizaWFGAJMkBBrsECa29kziI6eAQwNjWJw2IKhkVEMDlkwMGzB8GefB4dHMTRsgVanRbhehwiDDhHhurHPEfo777FRRpgTopCcEAVjuD6QZgdUNxMkoPCqV7ll1IaG5m7UtXSjsbUbDa29GBgaCYjBMVERSI6PgjkxCpmp8TAnRCMh1hSQsuRWOj0I8krxXjiwdRy8OTlmPLtpqdxYql5fZX0Hymvb0Njag8a2HlitdsVsXpI3A4+tz1esfG8LHraMYtcbR2CxWO9kcTgcL+9+efNOb3X4ky5YriYvAJpXAUdchEGPh4vmYcm8DH/sDpm8HV0DuFHVgrKqFoEYapJH1y3A0vmZajLJrS0HTpTh1OVq4TsHUKax2f9i1/e3lAbD8KAQhCpC3psp5tjvPXH/oheSEqKCUTdFyyAfo1tVrQI51Crrls/GuhWz1WqeyC6aapVVNX/4aVnNi//67c1twTI6aAShCrX1OdZrtTgcrMopUc7lW404e7UWDS2+n/MyRhgQaTIhyhSBqCgjTKZwREcaodfr3FbJarNhdJReoxi10rsV3T0D6O7tR3dPv0cYHtuwMKRGco0G/xBv1Pw4mO3KBJEJbZpCETGq6jskadSGhSExIRbmpDikmOOQak6AXueeCJIUf5a4s6cPZ86XoblV7BCYGBeJF58shClCure5L3bIkYcJIgeKQdZBrtpHz5WjtKzBq5KNxnAkJ8YhKSEaSfGxMJsToNOGeZXXl0S9fQP404fHXbLSAp0W6qEkTJAQaq2b1a3o6OrHuWt1U55nCNOEITszBTmZKcJ7MKWiuhHHTl0RFTk7Kxlf2rIsmGbIUhYTRBYYA6vk6u0mnLpUhca23ikLSkqIQdYMM3Iy0xATrcxzh5ITl1Bd1yyydev6fBSE2OhBFWCCTNnllE1w8mIlDp66NaURtI6YPzcbWRnmKdMGOsH+Q2dd1h9PP1KAvJnBHcnkqCcTRA4UA6SDFuF/3H9xUu3RkSbk52Vj7uysAFkhXa07goTS9u7EGjNBpLd/UHLQ09zX3zuL5nbP06qczFSsWp6HiHB17QrduFWD0xfKRDhptWF44fGVoHP/oSRMEJW21rlrtdh39LqLdZHGCERHmzAjPQn583JVaX1f/yDe+eCYi21zc8x4JsTcfZggquxiwNsHSnG9QrzQjYo04qmta1VqsdgsGkFoJHGWpx5egvmzJIcrU6zOTBDFoPdcMDkU/s//POCSYNWyPMy7Rz1rjcmgo1HkgwOnMGIZFSXLTk/A849PHl1GTU3CBFFTa3xmS2VdB9784KyLZdseXweTMUKFFrs3qfRqOUqvVrh8uXVDPgrmhcYDQyaICrsbPSHfe1j8oI22cTfev0KF1k42Etqw75Mz6OwSbzRQ/LGpYpSppaJMELW0xAQ7jp6vQMmZ2+KpyYwUbFizRIXWTm5SVW0Tjpy87JLoxSdXITNV/TtaTBAVdrkPj1zD+et1IsvumTkDRSsXCP8jZ8C2ti7Bm9Zg0CMiXI9wgx4G4d0Ag0EHnVarmpq9f+AUOjrF51JWLc7Bw6vnqcZGT4YwQVTYRG/tu4BbNa0iy2hLd/mSOfC0hepcDR2dHzfoER5uQLie3sdIJLyH62HQ68a+Ewg2Rir6bLc7MGq1wmq1wTJqFUhotdH72Gf6bvyzhdIJLu9WIQ0d6RU+k/u71SqQlKaG5PJy+XqlyMTYaCO+9UyRYIeahQmiwtbZc6AUN5y2eBcvmIWChbPhaeGrwmrcMYmcJWvqXA9xbdtYoPpA4UwQFfaskrO3cfScePcn755sFC6bF5IEoVGEoqL09IoPUoWC+wkTRIUEoROCf/5EvLCdlZOO+1YtRGNzOw6UnFeh1Z5NmpmdJkzdnD186YEhPThUszBBVNg6FH3ktbc/FVmWmW7GA2sLhOOtv337oAqt9mzSovmzQEd0r98cC4IwLqGw3csEUWFXo8Xuz177WGRZfFw0Ht+4Wvjfe8Un0OV07nt7URSSIzUYHAUGRh0YGLELn/stdgyNOtA/4sAgvVs++7/wvQNTRQHSagCjXoMInWbsnV5aIEIXBpPh7v9M9L1Bg/IOK45UimNt0e6bxTKKs6Vit30miPvOx2fSvSDlrjdK0Ns/LEq57fH1MBnD8enZ67hZId4GfjQvAvfPDPdCszgJEWRAII0DAxYHDFrq9IBRFyZ0eCKIFPnFpwOo7LwbT4ry0gPOwcFhHHU6ZcgEYYJI6VuitG98cBZVdeJgDLQGobVIRVUDjp2+KkqfZ9bhpRWRPpcnV8YfHewVRquJ8vTWtegbGAKdE5kouTMS8ZWt6vYO4CmWXD1DZj37j93Amatib9jxh4W9fYP404did3L65f/ZxhiZrZCmzuZw4Hv7xG4lmjANnt/2MMqrGnDcidS8SOcRRFoPm5D6RmUL9nwkPk0YHWXEFx8dc3d/68+HMTxsEen/y1WRmJ2o3IO32m4bdp0Qb+XGREfiC1vWuN2epgiLFGlRzcIjiIpb5ye/OgCbTRxLd0PREiFKyYcHT6OtXRwo7r+vjkRuvHIEqey04RefigmSkhyPTQ+sFEYPGkUmSlHBTDywao6KW4CDNqi6cd4vuYqLN+pFNlKwt80PFuLPxSdcIhj+YG0UUqKV88Gq77HhleNiglCUlUcfvhcHjpxHY1O7qC6b187H8gXqPt/CI4iKKXLgZBlOXRI/OyBzadG7//A5wS9rovzjgzGICpe47SRj/Zv7bPhfR8UEiY2JwpObi/D2+0fRPzDxbnINXnhiJbLS4mW0QH5VTBD5MZVFI0VPfP29M24DxNG0pbd/EENOd3v8fHMswpTjBzqH7PinQ32i+o8fE/5/f/gIDvHmFn7wtQcRblBuSuhNQzFBvEFJgTQfHLmGC04u7xPNoKDS5Dk7LkadBj95RNldLNrepW3eiUKewzFRJrR1uF7DsLogFw+umqsAut4XyQTxHqugpaQIiq+9fXLS8ii0qN1xdwGfZArD326IDpqN7goasQE/3C8mgi5MC6vd5tEutUdcZIIo2qXcFz7V6OEuV3a8Dt9ZreyDQppC7dgn7cKe2KgIfPOZNaqdajFBVEaQEYsV//xr6c6IeWY9XlqhTCzeiRB+v7hnSv8uZ8jVvJvFBFEZQVo7+/DvfzghsiopMgwZ0VpcahaH0JmYaHmGHl9aojxB/sdHvRiyOq3Gp8CYdrJeeKJQZS0xZg4TRGXNcrumDb/fJz7v8cg94chJ0OE/Tg94tHZtjgFPLDAqXpsff9KHnmH3F4XGGcNQOEOPj2673qz73NYVmDkjUXH7nQ1ggqisSc5cqcH+4zdEVn15iRHLMgx469IQztSL3UvGEz4yJwJEJKXlpyX9aBtwvyjfttCERWk6/N0B13jDj9+/EIvnqu+SVSaI0j3KqfzjFypx6LT43MS4j1VNlxXkTm5zM4N5Mj8C92UrT5Cdx/rR0OtKkLlJevy3wrEp4K9OD6CsXewSf3/hHKxZOlNlrcFTLNU1iLug1ROdEN+9Noxj1W6mKAUmLE3XK16f3Sf6UdPtSpBvFkZiTtLYQ8HflQ7iXIN4PbUiPwub7puvuP08xVJdE4gNotuk/nTwkuifX8w3oih77IqD9kE7dh/vF04NTpRvrIzEvGTln0q/eXEQFxrFnZ9GNhrhxuX9G8M47HTqMG9mKp5+RH3n03mKpTLClNe14XcfiBfp5MJOo8i4fHRrWLTQnTh9Ubo6FxpG8WbpXR+xjFgtvrbMBFqgj8u/nRoQjuZOlAWz0/DFhxYrbb5L+UwQlTUJBWf7qdN5dDLx2cVGrJxx96KcN0oHUd5mRXqsFk8vNCJhQgdUukrU+Ss+I8Da3HDhLPu40HdEEGd5dvMyzMlOVtp0JojqWsCNQR+dLMNpJy9eIsDf3a+sK4m/2NH0kNZQN1rFU7Ck+Cj85bNr/FUfkPw8ggQEVv+UNrb24LV3xGF/SKM5Mgz5qXosMOuQm6D8esPbWtb12IRADofKR9Bncd2CU3MAOSaIt60c5HTubpiaaAKtSzbPjUBOvHIHpCaDhEaLUzUWXGu1oqXfs7Ni4cJsPLImL8joel8cE8R7rIKeciqSLEnT46tLlXcvcQfMr88N4lqLZ9cYyhNpCseO5zcEHVcpBTJBpKClQNqpSKJ0oAZ3kNCU6lWno7fO6cithNxL1C5MELW3ECAcnKIXnRNxljU5BnxBBT5YE+36uHwYxTddH2ZSGnJMJJeSgjy+gs1T1wvqodC2Psd6rRaHQ4AHU5pYWdsOuhphZMJJwphwDX6wLkaIhqgWcfecI29WKpbMzcA9KtzKnQw3HkHU0qu8tOOt4gu4VS2+XGfbIiNWZd59RuKlqoAka+mz4Z+dAjdQQU8+sAgL56QHpMxAKmWCBBLdAOg+WVqFg5/eFGlWS9hRMupotQV/vjYxegmQmRqPL29ZJtxiFWrCBAmxFvN0Xv05FTgrtvbb8cvTAy7nQR4pmofCRTkhhvSYuUyQEGw2d2fWs+K0+PbqKEXD/vzm/CAuO516NIXr8dLTq0F3EoaiMEFCsNU8jSJb5xuxIVeZtcjBihHsKxNf10DQUuREOnMeqsIECdGWczeKkMcsnbsgl5RgyvUWK1475+qAmJwQheceXYHoSOUPcvmKBxPEV+QUzucp8uLMBB2+ttwk8qANpKlNfTb8i5tdKyrzmU1LMTfHHMjiA66bCRJwiANXQGlZA/YevuJSwKJUPV5YFngXlOFRB/7WzflyMmjt8llYv+KewFU+SJqZIEECOlDFEEGIKM6yOsuApxYGbmFc3WXD/z4pDlQ9bsPsrGR8acuyQFU5qHqZIEGFW/7CaKr1+w/Po63LtbNSlBPnA0tyWLD3+hBKqtxHV0lNisEXHlyMpHhlozzKUU/SwQSRC0kF9bR39gsuKO5IYo4KE0hCI4q/QqcEj1RZcNWDl25yYjS+tGlpyG7pusOHCeJvr1FJfiLJbz88hx6nm3HvTHsStQJR8lOkO211D9lRUjWCox5GDeGXFsC2z8Gi3Lk5mSAq6eBymHHyQiUOOsXUctZLDxQXpelBZ0mmOsdO58cvNY0Kr343JwGddX/1sZWgq50/T8IE+Ry15tmrtdh/7Dq8iYxLt+Lek6hFcpQWKVFaJJrGnKzp9F9dt12IbTXZScAx2Kiku87ZTBB5OhO7u8uD41gXdTjQ2NqL+tZu3K5uQ2W9+B5AGYsSqaJIJUOjFIP3bnNS6J75s1KQYY5DTNTdOFiBsiEYenkECQbKMpfR2T2AhtYe1Ld0C+8U5MGtOIAEU5gwPbK4i1fqg13zzToUZBhwutbiEttqXB09OSeSpJtjMSMlDlnp8QjTBPV30Yeauc/CBJENysApGhiyoLGtBw0t3ahr6kJdczesTtdDeyqdgjs8lhdxZy1BwRSkikmvwdKMsXULPakncXcoypNecjnJMMciIyUOOWkJSAyhLWAmiNTeEoT0drtDGBnGyDBGiMFh988dpjKHIhvuWBMlJLPZHbjUbMWVJovwPpXkfLagX5phAJ1cnCi7TvSj1k0M3ql0hoVp7ows2ekJyE6PR4RB+s7aVOXI9T0TRC4k/dRDF+cQEYgUtU1dbm+39aUIWiv85GHXyz17R+xCFPaGHjua+m3oGx5b2s9K0CIzToesWO2kV0r//cE+9I1IH42c62CK0AsHqrKILGnxAnnUJEwQBVtjYNiCGxXNuF7RjOqGTr8sSYiORHpiHK5Wu7qd/GBtFFKi5Yufdb3VitfOunrvrpibi4b2TjS6udHW28rR9GtuthnzZ6WqgixMEG9bTsZ0dJ6j9Ea9QA4iiS9iijAgMzkeM5LjkZkch9SEsV/eNz4+jYb2bpFKcjmhC3bkEncxr5Jio/D1zUVCEZ19A6ht7RR21mrbutA7ID6C660d5NNFRFkyT7mLdZgg3raWDOmIGOMhfKSqo7n7GBnukkKndR0VLlfWY9/pay7qKcD1vTK4m1xpHsV/nb8bvX28oDX5s7Bm4Wy31apt6URt2zhhOkFrLCmSnhyDpfMzhVewhQkSJMQv3qjH+yVXJZWWEh+DjKQ4ZJnjkZEcj2jj1AePhkYs+M2BU+jpd/3V/kqBCQV+XLLzztVhnKhxH+/qpc1FSIwd2wyYTPqGhlHX2iW8aJTp6PV876KzHiLK2hWzMSc7eGdMmCBTtagM339y+hZOXKicUlOMKQKZ5gTMSIoV3mna4otcq2nE+yddz4mQrjnJeuEmKnrpvDh42DVsx4X6UeFSHDoc5U42Fy7Aopm+BYJr7uxFTUsH6tu6BdIMj04erpTKp5uo6EaqYAgTJMAoU5R2jw/yAMRHmTAzPRmz0hKFd7nk4/NlOH+rxqM6c6QWBek64WKbeGMYEk1jr45B+51XY68d5xstoINRnmTJ7ExsXCHPmfNhyygqGttQ2dQhvNPfnuSBwjkoCsKdhkwQuXqkGz1vfnAOlXXuXT9io4xYMScby+dmB8yC4tPXcKmyPmD6c9OS8Mz6wByM6h8aQWl5HS5VNICmZe5k45o8rFwYOPyoTCZIgLrP3pKrwk6VO1k5Lwer8nJBO1GBlpLS2zh1Y+rpnVQ7CvNysWHJHKnZJKcnohy5dAtXqhrd5g303SJMEMlNNnWGm9Wt+EPxBbcJn167FLMy5JtKTW0NUFbXgnM3a1Df1uVN8knT0MZBUf5MzJmR4rcuKQrO367Bx+fKXLLo9Vq88EQh0pJcH4ZK0e8pLRNEDhSddPzXu6cFFxFnoV9c+uVVSq5UNuBGXQsqG9skm5CVkoDZ6clYNCsDEXplXENoXbLniOsPTyAvAGWCSO4qk2c4ebESB0/dckk02XMCmU2YUl1TRw+au3rR2t2Pjt5+wc9LeI1YYAo3CFM/eqUlxCIxxoTk2GikJarDBeT4lXIcv1rhUke6IZeIIrcwQWREtKN7ADR6ODsWmmOj8dxDK2HQh17wZhnhkUWVZdSKNz8+g9aePpE+Chbx4hOFoCmXnMIEkRHN4mPXQaf6nOXRVfnIz1XOXULGKqpC1dWqBnxwyvWhayAW7EwQmZq8f3AEv3zrOIZGxHv3tJj9wn1LZCqF1Ywj8KdjpbhV3yICJCHWhG9uK4JOJ98owgSRqc+dulSNAyddd1mee6gQM5LiZCqF1YwjUN/ejTc/Pu0CyNb1+bJe78YEkanPuXtiTu4X5IbBEhgE9p68jOs1TSLlFFWFgkfIJUwQGZD09NzjuQdXCh64LIFBoKKhDXuOum77UthTcpWXQ5ggMqD4zseXcK1c/EuWl5WGx4sWyaCdVUyGwG8PnkGd0wNQuguR7kSUQ5ggfqLY0TWA//PWMRctz2xYhtzUJD+1c/apELhwuxYHzt1wSfZXz94nS3AIJshULTDF98cvVOKQUzRD3rnyE1QJ2UcsVvy6+AR6B8UOjfcXzsEaGbx9mSASGsNdUneL88eLFiMvK9VPzZzdWwQOXbyJM2XVouQU/OHrX7zXWxUe0zFB/IDwdm2bcPXARImLMuGlLUXQhnlxGsmPsjnrXQTICfPNg2dcINm2sQDzcv1zqmSC+NHT3jt0BZduiqOIBMsN3A+zP5dZf3foLOjs+0ShgA9PPezfQ1omiI/dpbNnEL/43VGX3M8/vEo1jn0+Vi0ks10sr8NHZ6+72P6tZ9aAIjv6KkwQH5E7cbESnzh57dKR2W3rlvqokbP5gwAFq/i/xZ+6nD6kY7l0PNdXYYL4iNwvfn8MFER6omwpzMfCmeyU6COkfmf75MJNnL0pXqzHxRjx7S+v81k3E8QH6MqqWvDH/RdFOSmy4Ysb74VeRkc5H0yb1lk8LdYf27DQ5+BzTBAfuhQdpyX3komyKm8m1i8J/WuPfYBDVVnI9YRcUCaKP/5ZTBCJzevuyTldffHVh3hxLhHKgCT3FFnyG9tWIzVR+rl1JojEZnIXBG5eZiqeWLNYoiZOHggEaLH++oHT6OoXh0ddviATm9dK96xmgkhspZ/9+iAsFvHdGo/euxD5OekSNXHyQCFwuPQWTt+oEqmno7g//PpDkotkgkiA7NLNRrx36LIohzkuGl95qJAX5xJwDHRST4v1rRvyUTBPWohUJoiE1nrtnVNobBVfLUDRSuZnpyEhJlKCJk4aSASqmtpxsbze5UhuenIsvv6UNP8sJoiElvrHX+73mJoORuVlpQjxdSneLkvwEOjsHcDthlZUNXWguqVj0oJ/9K2NkgxjgkiAazKCTFQzMy0J2SkJyElNBEUiZJEXAbrAtKq5HTUtnahp7kBbT7/XBTBBnKBq63Os12px2GsEJ0lIIX0otI8UIYLkpCYgOyVRIA17+UpBbyytzWZHY2cPKOAdXe9G94r4cqmpL89DeASR2F6lZQ24Xt6M8jrp4TujTRHISUlABl2ZFh9z59o0iSZ87pOPWm1obO9GQ0c3Gtp70NDehWGnnUMpIGSlxSM3IxHrVri/AWsyXUwQKUhPSEuxd6+VNwtn0ekec18k0hguTMEoxGd6It0mRVciT7/oix09/Wjp7kNTZ68QYJtGCn9EG6bBnBwzcmckIic9AUnx7M3rEU85p1juCqFAcRW17aioa0N5bbvPZBnXTWFKaYShq9fM8dFIiDbB3V2E/nQgJfO2CDGB+9DU0Qv63NLVB6vN/c1VUuyMNBoEUszKTBKIYQyXJ8A2jyBSWmGKtPQAsaK+Hbdr21FZ247eAfcXv0gtku4mjI+JFHbHiDB0ajE+euyzGslD8XPpplt6mt3RM4Du/iG09fajtasPDoe0Czwnw0q4MjrHjNmZyaD1RSCECRIIVAFYrTZU1HcIowutV7p7fbsKeSrzJpInJjIC4Totwg16GLRaGOhdrxU+C//TaYUA2mHkPCZRRkatGLGMYthqxcjIKEasVgyPjMJitQnhVnsGhgVCdPb2+3y1tTcmZZhjhWO0c3LNSPZj6uRNWZSGCeItUn6kox9NIklVfYdwX2FjWw+sVrsfGv3LqhcIo4NBpxM8AOgzbZ3SbtGozSa8W+122Kx2jNrH/lZCyD2EHu5R5PZ0cwxmZiQi0jT1Tb9y2soEkRNNL3VZRm1oaO5GXUu38GS+obUXA0Pur1f2UmXIJ6OFdVpyLCgaSVpyjEAMf47KygUIE0QuJP3UQ2fcm9t70dbZj7au/jvvfqpVZXaa4KWZYwUS0CstJQYpCdHqtFWDf4g3an4cTOOkT4D9sC7Qu1h+mOZV1vZOWtzeJQwRidYzk12R7JXiACbSacMQHRmOmCij8B4dGSG8x0ZFIDbaKJAiVIRHkFBpKSc7iSBElO6+sVdv3/Cdz3ISSKvVgNYsdOcGLfiFz3qt8LwmOioCMROJYBojhSlCni1WNTTN55Yg2199Nw628PUmo+HvH12fv4S2ASMMn5+Gm6rz2O0OYUtVWHw7HLDTu90hLLjpZXeMfaZ0lIY6v04XJizaJ77CwoI64E9VraB9Tz861Q2duHyr4Xx1XefLu763qSRYhQcF8e+8UvxTjQN/M14pf8O/BAscLkcdCFBQDgrOMS4OYNvuHZv2BMO64BBkZ3GTBrgTIJe2B3c8vyEY9eMyQhwBWvf92x+Oi2qhAfa8umPTtmBULSgE2b6z2OWRrVRX52CAwWWoDwGaWr2+1ynWrwYlu767KSi/sEwQ9fUJtmgCAkwQ7g6MwCQIMEG4ezACTBBegzALfEOARxDfcONc0wQBJsg0aWiupm8IMEF8w41zTRMEpi1B1i2f/ND+4nkZiIs2TpNuMH2rSV7TN6vE0fmd0Thyrlz8r+nwHGSqLkFep/cuycGqRTlTJeXvQxSBD49ex/lrtdKtZ4KMYUan177x9GrpAHIO1SMwMGzBrjdKhJOSkuVzR5BXivfCga1SgYiPNZX+1bNrd0vNx+nVj0BHT7/pV3tO7rTZ7BFSrXU4HC/vfnnzTqn5fEkfLFeTFwDNq4AjznsjNd2A46937dj0G+/zcMpQQmD7zv3UJ7ZLsdkBlGls9r/Y9f0tpVLy+Zo2KAQh43b8fN98m0bztLeGah2OPTtf3iwttqi3yjmdakq/6O8AAAEUSURBVBDY/i/F6xEGr2721GjQZtU59vzrtzdLD6XpY42DRhAf7eNsjICiCDBBFIWfC1c7AkwQtbcQ26coAkwQReHnwtWOABNE7S3E9imKABNEUfi5cLUjwARRewuxfYoiwARRFH4uXO0IMEHU3kJsn6IIMEEUhZ8LVzsCTBC1txDbpygCTBBF4efC1Y4AE0TtLcT2KYoAE0RR+LlwtSPABFF7C7F9iiLABFEUfi5c7QgwQdTeQmyfoggwQRSFnwtXOwJMELW3ENunKAJMEEXh58LVjgATRO0txPYpigATRFH4uXC1I8AEUXsLsX2KIsAEURR+LlztCDBB1N5CbJ+iCDBBFIWfC1c7AkwQtbcQ26coAv8f4cN/jLlwIygAAAAASUVORK5CYII=;imageBorder=none;" parent="1" vertex="1">
          <mxGeometry x="45.99999999999999" y="500" width="140" height="140" as="geometry" />
        </mxCell>
        <mxCell id="zyXjHvI1NbI1ozkS3pf7-38" value="" style="shape=flexArrow;endArrow=classic;html=1;endWidth=7.619047619047619;endSize=5.333333333333333;fillColor=#fff2cc;strokeColor=#d6b656;" parent="1" edge="1">
          <mxGeometry width="50" height="50" relative="1" as="geometry">
            <mxPoint x="208.75" y="565" as="sourcePoint" />
            <mxPoint x="300" y="564.9999999999999" as="targetPoint" />
          </mxGeometry>
        </mxCell>
        <mxCell id="zyXjHvI1NbI1ozkS3pf7-39" value="" style="shape=image;verticalLabelPosition=bottom;labelBackgroundColor=#ffffff;verticalAlign=top;aspect=fixed;imageAspect=0;image=data:image/png,iVBORw0KGgoAAAANSUhEUgAAAIkAAACMCAYAAABI6Yp6AAAgAElEQVR4Ae19Z3Rb15Uu7TiO49Q1nsSTmXlpM5lk8t5MnMSZsROnOO6RZMuyLcnqvXer996sLlKkSFGkeiUlkqIkqotF7L2IvaLjFoAFHfze2ucCJACCBEiRGmkWfnABBC7uPWef7+y+9wmScwY8bX8yrQFanQktRitk2ranbvye9FaLRrSZbKB5eX73JPwf9CQMordjCIDk8YIpAJIngJMGOMkALEKAkwQ4iU+5HABJACQBkAwA9+2t3ud6fUAneQIWJKCTDMAiBMRNQNwExM0AbCxX8dHb9wFx8wQsSEDcDMAiBMRNQNwExM0AbKzeihjX6wPi5glYkCde3FCA7Gn7a9K0QSOa0Gy0oknT+tSN35PeKsGIVpMNNC/P756E/4Mo+vjU/RltMJptsNjsaDNan77xe9DcYLbBamtHm/HJXIsg2pFP259aNEFsMTNwEKt+2sbvOV6+2QSj2Q6al+d3T8L/QTLOgKftr8kln6SJxOVTOAfXMTt1EpqX6+dPyvuA4hpQXH1akwGQBEASAImrvf+kvneKG3ISPoljDHCSACfxCcwASAIgCYDkSWTfnmMKiJsB2KmBAN/j1V0C4mYAQOzJKXz9H+AkA7AIAU4S4CQ+FakASAIgCYBkALivL5HX0/cBneQJWJCATjIAixAQNwFxExA3A7CxehInvr4LiJsnYEEC4mYAFiEgbgLiJiBuBmBj+RIpPX0fEDf9uSC80SfAvS1GQNz05yI47vXEiRvBBLnOCrlShFzdDHkvwRIAyf92kPBGKGQ8VDeug186Fcq8AgkwvZh3ACS9IJY3VuztsyeKk4gWaMJ2Qxzya4gf/gaqxDjIdZZeiZ0ASP43g0QwQdGoBr90Mvglk8AvGgft/q0BceNtZz/uz54YTiJaocwvhjBtKDQxZxlAhDkjAiB53IDw9rwnBiTN7VDdvgnx099DWVAM9dnjED//CxQ1jZDzJr9FTr+KG3quaJH+eqlAe6M1fRYwgR9FHOqsUJ+JhvjZHyAn5TU1FcKED6C6frVXymu/gYRAIeeheFgFVfJ9yOsUkJPl9ShzfKpBoregxdwOWT/tll4Tkp6rbYV213rwX0yEXNUMRXUjhOnDoAnbA3mz3e/F6U+QaCL2Qxz0K4iDfw312WOQ6/0fR3c0eDo5CWeAtl6O5vIyKApL/V6M7ojQp89JaZVx4Od+Du3BbdIYdFbw80eB27wYspZ2v8fVLyBxjmfhOHDr5kOYMxLa7Sslv80jcpOnEiTkrOKXT4M4/A2IEz6Asuhhv7DVXoFFMENR0wRx2H9BHXsWcr2N7Vpuxyrwy6Yw34m/rL5fQCKaoczJh27o76C+cxua8ychjn8PivJaST95BJHTe5CQUkQEeUR09mpBXCdIO+ZhDQOHuGY2hMlDoI452ysdoM/Pdh2HaIEqKxfip69Ddf+eJF50VmgPbAO/aDwUdXLIRf/0gf4BiQXaiAPgZ30GRVUDlIWlEIf/AeqrCb3223jSp3cgIUXtZCS4ZVOhzMl7/AtDi6S3Q33pAvRTh0DMygBH7HXHql7pAJ5E6NP/BJJrVyCOfReqzGxp4+gsUJ88CmHWcChLK/zewY8MEtKPNG0QZn4GbusKti6KBjW4ZdPAbVrcK0vLGy38B4nOAmVZJfMJ6P72H+A2LIRcrX/MHMXICKDdsQot80eg2WCGZuca8AvHQd6ghlww+60HeCNGrz4jT+vxcAi0c0srJUAQSOJjIUz5EMrcfL830SODhERNURmEiYOgPn8S8uZ2yPVWaIN3Qhj/3qODxP8eGEZoIg5AmPgB1KRBf/p7ZurJRMvj66lBIKiVg1s0Afq969ECQBl7nhFHmZUDmc76+MYiWsHt2QB+8URmasoEM2S0WKlpEEf/Far79yHT2/0aj8px3k2Tpo/9SXQ2qG4mQZg0CMoH6WBr0gKoTx1lY1FUNzEr0P+1dh9HEB0u5POv2QJtgxzCjGEQIg+Ak2shLhoPftdaaFusvn/vzzP8uabVDi4jA8Lnb6I55Q4MdkBbUc38FFx8DLQGPMax2MCvngVx3TxwWj20RKNmC7jiYraBuNtJ0La1+zUeocUMo8UOjT808HZNG8CdiYI4/n3wNQ3SWNrawV+LZ8qrNjdH+szbb/34LKjVaIXPP7MdLQ0N0H3yGprv30KLHdDtWgP9glFoNbf7/r0/z/DnGrMdzUlxED78DQwKBSx2oEXXCnHyEDRHHUCr0eb482NO/jyv22voOVboZn4C/a41aLFCooHJhlYtD2HIr9F8IwEtFsfn3d5HGqfBJPVMazH0ZdzSWJoPboY4fWjnehCtCvIgThmClptXOj/3MRZvWAjyq7ufYIHyFrmfX4ciOw+NRkATFQZh/PuQEyvjjI+ha6ABMsEETVQo+EmDoFVo0WxuR5OqGdz6BdBuXgKZUv94xsIbIauVSzGb8P1oam6X5s+ZIGvUQBj7LqNPE4kgatXlo8PlI3VfpLHIBWjXzQe/aiZkvFl6HlmfZdVsjOpjhyXR52Mc3Y3TP8WVlLRTkRCmfQRlaSVkrYAq6RqTgaoH6ZCL1oFXGJkG38K0d27VLMbiW0x2RhAt6QZLJkMu4x5ZSfNLeSXdo6AEwpQhkqJILgGyvChuIueZdaMN2en4zHe22iMprqIZiso65tTTRB2CXHQo70QvdQtTEbS710Heij6vkX8gEczgtq8Et2K6ZEXobRKRJg+G5tL5fnH9+lwc3gSFQoCwYCw0ezdBqzOixWhDE2+CJjqU+UsULFbxGCwcUhTv35c2ya2bnVYMLYxKD27VbHBbljJXvT9Zao8EElqLvAIWWFQlXXU3u/U2lgjFr50HOR1oSeNz9fX4+d4/kIgWyc27a61k8rKHGSFM/RDaA1t75YLuyyDZbxy5GxRMo5iEts3OTvNs0tmgvhIH8ZPXWOykYyf5SYA+jae5XTJ1J7wPZX5Rp+lNdNG2gtu2Etzq2ZArRL8W5lFBQoDVDfk1M4NZBNg5d50V3JdrwS+egEfZQL5BQul5xELHv8f0ARI1jLCiFfzKmeDWznUQwz/vYp8WhSYtmKAsKYc47DVm7mmNkECit7NdrRv6KuNujwUkLe1Qn45iNFHUyjuBQCDhHa6CqUNBDi1/PNOPBBLBDM2JCBZ9Jk+rG0hITThzjAUdFUVl7t85geTHq2+QkPzNyJRC4InxkmeRbixaoA3bA37BGOYGdhucHw/uNVhEC9TXEyGMexfK9AxmXtK5wE06K8hHIo5+i+V2DPg4SBFtBUtZFMa+08lFnHMWzdCcjIQw8W9Q1KsGHiScEdp9m1hmnKJR4/480cw2lDj2HajSMzvXzjlWP199g4Rc8VcuS/I3I7MzDkCLdokcWR9ILJeyxf18aJ+uo10RfRjC7OHMw6lttUmcRLRI3sapH0F9OrrPu8XvMZFyqmlhIoUSn7twCkpEun4VusGvQFEj6woiLzTqMychzkXK6bxRTOyzOTBVwFG8JZihpDjXR68ysDBPrJfn+5q7T5BQyFsbsZ+5muX1yk7WSiC5exviyD9DmZEFuc6h4fdhEL4Gyb7X2cBtWQZ+2VTIm7TMOcQ4CSm01Y3MNc/yOCgAOVBjoPsSSChFYM08cOsXdgWJvh2qu3chfvzfLMjmj/h7JJDIBYgj/wL18XDIPHNYSI9rUEP8/E1ozp1grvq+0MYnSGjxWfh77kj3XSFaoCgph27wr6C654iCDuTiUK4GBfM2L4VMb2OeTAkkks7Er54tBbMGGiRkctbKWKSXYiNd4kV6G1QZmZJr/t5dvzhbn0FCnCKvkIFAdS0Rcs8cFgZoHvz80eiNSe4JpJ5BQjkTDWq2e7mdazpNPQIDgaSqHuInr0MdF+v+XX+DhbhFnULK+jq8F7Jmyd3NQELPEozgti5jxOhtOYMnQXz+T/Muq2KWneZUVKdfwjln0pEKiiUfyuWLAwsS4uYJl6TYVXpGV53DIY6INhyZwSp9pyRwjteP155BQhMufghh+sfQnDjiPmECEHkdp3wIzfGIrjvKj4f7XBDnPUjvyC1gC0N6EAXyKN5EIGFewlYwmUzOLeYLcJXLznv01yvRpKgM4rh3mendRVEmED2sBmXNa46Fu9OsmzH0mZMQRz1yEDzpaRV1XQFLdOCN0IbuYi4MyqTrokN1MybXtekZJOSoIdb5+V+gunPHfcIO7yI52Lhd6yCnltcDtTiUQ3L9KoQJ74M8vBRxdQUJ5ZNqT0aw3ausqu8TIVyJ0uN7oklmNnSDXmHAZeWdroRm3FcFfukUkCe4y/eu1zre9x0kdnDr50veZoqQe6M/0S72nBRSafDP2vKcvw+Q2KFKjIfu499BUUFpcC7eTAIJeRe3LAW3bh7T+L0O0gtRPAfh638Zhb3PHYc45m3GvSj52RUkylYbGs/HQjt+EJRZue5g7ofnu41PZ4Xqzm3ohv4X08m6gICURaUIfs0ccBu/GDiQECAUAtONuG0rpBwSb3NttkN9+xbEYa9LinQfMgp7BonTUTN5cFebn6HWCG3wDgik1Cp13pHsbeC9+YyeQwk0ITscCTRGFjRzgkTBt6GwxobTG5JR+8kQFF+4B2XzAJrjZIpfOM2Cm9LG6WpNMcV62wrw80Z11RO8zL1PnMRp+s8YJqkC3bkgHJyPnKGqm9f7tIG6BwktjroZ3IZF7E8CgYdXVW8DOY4oyYZQPSCchDiWUgdu0xfgV81iz6DIKoGEwtoNagM27LZi0+JqyEYOQvzyc8itaodSGKBGLxSJDt/LdA6ycty4qwMA5GzT7t3EdDmJC/UcM+kTSGjxU1IYWKlYvYtu5AQjgYkU7dnDoYkO6/465/VeXnsAiYktvDDzU5bcK+e6BoiYGLh0AeLH/8Uyx/uiFLmxci8DpEWgxaDAHjPjHOF3AkmbyYriKgMmzrMhPlYD44z3cWp0KKLjMHAg4QwgS4+y9bt4OJ3jb7azBRGmfgTKCvNFl76AhPxXlCpJFQNkZXZbMUjir17FPLIUx+kiHp1j7uG1e5CwmytZrIQUHzI7uyxosx2qmzcgjnoTqqzsgbFw2E6ohDjhfahjz7Od4OQkBrMV8beMmLPMggcFFpjnDkLCqO34Yks7GtUGKPj+5iZSAI/SErQ7VzNvp1fuScrihVNgICl+6JXbuNKy1yAhLi+aoQ3fB2Hce75NW8ECbv0i8AvG9ilhvAeQSDEb8qiSoua1Io0cR2nprLyBlTYOhCPLGZsZ/ApUaWlsJzhBYrJasS/chJWbzaiWW2BaMw0Zk5ZhzmIjMopMA8BNKCu9BTxxV3KkkShkupkHGEm5vXkDwuTBUKU+8Ll7ew0SwZGSQL6hFTMg17R6H4eDOxDH1+7eAH7mJ31qstM9SCjz+9IFCFOHQplf6H2itICFpSyxhXZOX1iZ647y+p4cRonxzP2vKJHKFKhgnNOboGu1YsUmM/aHWlGrb8Plw2sgmz0dK5dxiL5ggVrnsXg9sFSvz/a8ngChamYsnvxGRHyvvyPul5nF4l3qpGs+ldfegEQlGqDUmaGoVzLFmA/dCQWBxnOsrv+T+Dt6CMK0j6VgbC8tnO5Borcx/we/cDwU9VR47GL+OgdAPgGKm5Db9+B2n8TocSLOe3q+koV1NAT8nJGS3iNSep4BQosJ5dU2LFhpwaErPN6vvIKgtN3YdWIddqxqwLovKWutv0FiYllg5DdiTr3uQEJpDaWVLHLOCse8iWqXefoLElLGCyuMiI6xYffmJmg//TOKw2NQp7H2zDUpSOss9cihUo+uFllPa9M9SJrbWXEPv2o2yy1V8EY2EDc5z3aWXnIcbV3mXSS5EKOngXT/nRHcxsXgKW+FpSdKINEbTEh5YMfkhSb8JuMy/q4gEm/knMSLWfsxI6YAi1fZkFlogFrsR6BQrCQ9nZniaspIc6YtdpmjkXUZYDk40WEstaD7+dEYjeyM455ATVzxbroRc5dZMHNZO45ty0fLp7/D+sk5CD4BNKgM3QOFOBtZQhMHQXX3Tq+Dsd5B4ogeUuERde5RtLaDakLKag2olRvc2XgLwK2ZC37xpAECiYGZktp9myW569ABuGYTzse0Y+QaDs9mh2BdXS5q09Pw5pmleDn3PCYuMCEuyQStvh9BQjsyMV4qvsrK6Vm8CmaW+6I9tMtn5p4vkBAHKa83YNkGM1ZvNSO/wgp1zBnoJn2AxOgyTFoIHIo2MWXdq+lPnI1CCePfg5riST44myegvYOEkFdYwjKtuUunkVNuw/YDZkycY8Gm3WbkP5S4CrsZcZw9G6XgWn/7SggQMp6FBTSnjnbsSOJmtXIjvtzTjr+dKMD3CiJxRSWHpbACx5d/iueygvG34CrsD5H8KG7cz2PXk4z3JEq3/5Nf6Fg4yC2gLK/p2WoRTBAWjmW5wb4Uy55A4hx76DEzpi+0ILPACE2rmRWGCUsmQd0gR/xtCybPs+BQlAkNSi9WHWUXNmmZFao55puzec7fO0jIarl9C7qJ76Pxfjq2Bdswb4UFJ2NNmL/SguUbzSiuMoIRmAh35KBEuAofhPNYIM/BdPmfsuLyCyGOfRvq+EsdnIqeS8+fvxD4aUIifvPwHCr5Nmgr6lE/40P8JnE9Xr5+BfPXGlFe6xinx7OJ+E0aI+5nSkqfczG6jMH1d7Qh9m0GP280y4r3atk4rxdMUnrnZmdCtIcj0nkd17O4IXFJYoZAcCrWJIlP0QJ+wWhod66BQjQxxTUuyYhJcy04dt7ETP8u8+GNEKYMltpkkBXq4Mg9ztcxRq8gIa1dczoK+tF/QtwFBSbNteLaPSO0zQbklhowdYEFIVFk/hkYy1VfJivoo17Vv/ozOLKWGHufPIQFGp3WE4Hk6i0zxqzQ4Tv3TmJC1W3wOjuL67RNG4bg6I14Ju8I3vyyEimpVgnMLotCBJSpTIg6bsXEWVaEHTMxMdqFsC6/YePV2yXRSuUbvprDUBBy52oGFEWTR1qhx3275SS8ATUyIxavNWPjLjNqZORpNoNv1MI4+m3oD++HogUMFEST6PMmTJlvQXKW0V0loOc52nVQ2gBZaGoSh7wFnGBmOpGyB47qFSRycr4c2gnFhKGYt9yM3aGSsqihvA2dEefjTEz0JGcboWy2MGWIRWgpyaZbZa4XbN1JRMalgplOonxY3cHeSe6GHrZh8MFKfDs/ApFND6Gh3SHjIKycCdmuNfhl6Sl8LzYOwSfboHbZNQrauZwJIVc5DN7chFUHmhkbDzkq7cBuwUs+ERnPan8pG94bSGhcHUAjZxflAC8cJ6UxugZHnfNzvHYHEtqUZy4bMfMLC7LzLBD0JqSptTiZdw/RGycg4cYF1Itm8LwZasHIALVmmxnLN5hRUe+hyAomcLvXg18xHXwjh2ytgLDGUpyrbkBqYStKKrxzXKJHV5CQWUvya+0spE1YhrkrLMgpNEEmtiFJIcMVZT3KmlqxYbsVW/dYoNSTSChiEVrWC8Mzhc6DIN0ugpfriKNxW5dLgTKPhV6+2oZXItPxYlEoyjU6KBxRae22FWhePRf76woRlBWCkeE1UKgk813BGcHxZpysrsXf3T2D51Mi8WrJBcw7JsP8xXZUNbossud4KDxQXgue8kQiDrgprbSLycOblmvs5EgUCKQs9pmf+Wwk4w0kCsGAeqUBm3ebsXm3BWFNpXi9JBY/KjyBb2eH4cX0A/heXiR+VXwey6szkK3SQtCZkJlrxszFpJ+Y3cWOaAYXFYqWWSNwtDAZ/1p2Bl/NDcM3M4/gd7H3sHijERfizGjUeIDLK0goaaaiFvrpQ3BsXBTOx9uRplXiL6VxeDYnBF/LCcU/Fh/F+MslmLHYjOQsMzQKLctQ05yJ7lAuewMGr9fSost5litBwT2nx5d2a16xCbPWtOGn1+Pw5sPLoMV3ylhqTdU8ZyTKFFr8tvQCXr5+EcnZBmhEI1S8CbvrC/Fi3mH88N4FLH2Yhe8XR+Lfky9j6spWxF4xQ9OdA44chzn5EKZ8xJyMTtFHnKO6yYDQaDMmzbQhJsYGjdbMwgfqhMssOYkcjs7rvc3VG0jI5E3JNrIFH3ktBy8UhOEXRacxqe4BzkZuxo2VY7G9Jge/L7mEl/Ii8UJuOJbWpKNCEBGXYMXkuRYk3OgUO0rRAvFqInZvm4Tnc4Pxzzcu4b0vq/GHy/fxlfxD+G1UOqYvsDJwyTQknjo5f1dOwjKvStH8ye9wfEUa0pva8HppLF7OO4pNdXk41FCKt8viEZQfjP+MSMf+MCtkyhaIEz9gWVKMGC673htR/PqM+qEUl0OY+Qmrq3U6gIh48VctGLWWx4vZEdhYlws1AYpKHRzWByUG86pm7K0tQVD6YazKLIFRZ8Omulx8LT8M/3QxAaHxIlpEKyIaH+K5ghC8digfe4KtneLCk5NQnOr+PaZEUzGU07lIoA0/YcK0hRbMClPg1fAsfFlUDrXeCg3VT1OieF5hj2K4C0h4iaNFn7Tgg211CMoKxaflSWjgDRB5M/SblkK/aAK0jtYWifJGjKm4jaCcQ/hN8XkcqS/H7gMWLFppRVG5AVrHBtlUchcvpO/CDxITMXmpAXsP2FBaYcLUqrt4Lj8EX1xowLS5NpyLdyjIDhp0BQl18Em4DPmQP+FB3ENMqk3FczmhONFYCZ1ghShYUK9txZzqZDyTdQivHc1GWpYBzUvGs/jAo5QTuoHHUXQljvorVCkpHfqIRm/AoQgr/rStku2Aq4pGJkIYSFoB9cUzUjUfKYucCb/MiMF38iPwdlkcXigKxb+fuot5G1pRUWNiclzGtWFIeSK+cesEFq01I7e0G9lMiU/OSsGyShbZJTFTVGnE8jU2zIpuxEsFkfhKVhi+mhWKNQ35UBeUsERxpY+aF0+QEHeqUxiweoMVPz5/Hf9cEo1ijQiNzibV/VIJReguxq1IxyKdhOZ/TlaD/1d0Fi/mh+GtBzcwYSOPrbstSCnXYVrNPXyt4DBGRS/EtgU3EXnSzsQZL5pQoObxk8ITePdhAjOjmQ5UbOxwRHYBSRNvRtHa3agfPRo7M+7i2YJwLKlJZ8ofY+ucASrOCDVnxOzqZASlB2NsUh50G5aDXzffYRp2b+65AcFzt7r8T1Fnchix8s1aqR8p7VrSGzbusOBfLl7Hr0vPoUgtMDHC7uuMSo95G6rsXGh0VkRmy/Cji1fxzZQo/D42mXlo46+ZO7R/HW/BgYZiPJd5GB9saETSHTMIiJ7jpIY0rGfriD9BIafcGRO7x5VbJkxeYMa/pcYwZfngg0b87OxtBBWEIyb7DloHvwIlcZ4eFHpPkNA88wst+HidCl+7H4Xp1XfB81KvOhU1yaEGQh6Z+LQ2Wt6ESo0eK2sy8f3CI3gxOQq/PHYfP0iMRdCDI/jjoesoHTEKlTtDGCd0KtkEsnU12fhGwWGElVVj+So79oebWFiDrnEDCe2MBwVmlI2eiTsbZ+Ol3KN4uyyBPZhA4Uo4JWdEA9eKD0qu4qsPIhEWth6t88dA2R9F2ySuKEUxbA9z6JFuQv+TqCFn0pyVJnz17lGMr7zNCEO7iY2NEnGS7zO3Ofl5SESptSaEHjPi49VqTP3CjB0HzGwH0ULQb1ScCVkqDX5YfAw/O5KMEydt7gof3ZuJTyPIe0peaEqCoqAaeaEPhNgw6GAVvpIbin2NRVA02DBjXQu+kxSD3z84BO2E96GJOcd2vSv9XN97goTW4XKCFa8dLEBQwUHcVsolkUpxrI7uRY0dIs/1XkpKyOLNuCpvxLDya/hRyTH8NPsMJsWX49RxEfIlcyFuXgS5y3rSb0o1In6QH41hVddwNsGAqfMtSM2WaN4BEiJancqIA7u0KBg9FH+MXYV/LD2NDJWGmYyuA3G+1wgm5NY045U71/FC6i6c2DELwkNyqPUugOS8X8cr6RgKEazFBOVvalokkIgGxF214N2N9fh61hGEyEog0g5zgoT0qbxCqScH5Z7Q/4IBlfVGHD5qxZWbJgYQ5w5y/o520qDKK/jG1TNYHiKiXuZhDtN4KDtu8xLWC4XGoxSMqKg1YuYKI76fcAn/UXYGtVwL5FojgsNseCe4nInpsI3j0Hz6WI808QQJmbNbDrXh2wnn8HZ5HNuMShoDVQ5S7uz6BY500e45NnGVRq4NFRo9KtTNaFSZmILP798EfsYnnTRz0I6AtbE2B8/mhuBsdQNWbbAyLztthCBnUInQG5Nkw4HJ9zH10CK8UHAEUY3l0FBjFi01YvH+RxMKjdXjpcQ4/PjuTtypqYSaNVLxfn1393H7nAhSp2BpkWoKyTsi0BTE2rPXjlejMvHDsmjkiRyUWmqg43gWXUdm6uwR0EQGSz3UHJFgmp+Te3Rc7/gdccnQxlIEZYZh0J4aVFdbGDfpuI7G06gBv3AsNNRFgaN7GXHnnhV/3VWJoOwQBDeUMFqpdAZcuW3CxPlm/EP6JXxwYhFkUcGg3dpxP+d4Ha/UxKbNZGOciQD8sMqEsQcb8UxGKILrS8BxZqnzda2cudYZTZz94Tzu5foMqmAgMeTktE2ks1Gb8xF/hLxe5Wj4I42LOGqOisO/FpzC+xUJuHHbgolzLbiZakSQvd2Odtih1tqxbA0wa8tZPJ+xG0ub0mGy2mG1tcNis3f7Z7XZodUCi7YU49+ursOvKi5BYzJKv7N2/7ue7mmxtcNQUsDKAExZKbDYwJ4vinbMXm7GD2IT8MeaGFjsdH/X8bXDotNB/8U4tIZu9/iu+7FYre1Qmwx4qfQIfnE0BUWlnte2w8JpoZv0N7RdjGb3pXmfjDfhu3EX8ceqGOgtZliJXnY76pvsWL7Gjo9iC/Fiyg6kxRyG1WztgYbtsLe3w8LobUdOdjv+9cIN/LzsFKoMOtjYHNthyEiGbsxbMOWls1ZgdH3PdPT43g4Y7l6Fbtw7MFWWu9PHsdZr5Zn4Vn440nktduy2Y+MuC4LUcqGu01kAABfHSURBVKChDjh8GBi6pRbfSovEn3KjIRjNMFnsMFpsMPXwZzTbYLC1I/dsCU7PH4Ovp32J2U2p0JstMFvsPf62u/ta2oG20G3QzRkBQ1MjG4fZakNqajtGbtTiu6knsEaeiXY7QM93vY/RBuhXToN+43yYbHD7zvU61/c0Rxrr7IZkvJB0HCevGjzG3g6DXM56trcm34LRCpjNdsw53YjnskJwTlMNq6Wd0co5nkMRdoxdo8V3c8Ow/FoITAaip/tYnf/Ts232dul7sx2RdwQEJUVhdsN9WOi+NEcb0HpkD3TzPmdjobVx/t7/13a0lRRCN/VDtN2Ih8nqeGbHuOwoaxHwd/lHMbPpLtIyrJixyIKgoaeLMHqXHG/sK8ELyafws+sbkRp/Cire0i17dGVp9J50kJrcashHDsPkyG1MVJ1rqpHYZA/ssPM+bVBoJXe5XGNCelYb5BOHQ9ixHEqRlFhi723Mrn9zVwWeyT+ImxoZjNTpSNPqPs5mO+sxS3morJdbD2y+8/kGNtajDeUIygzB9Oh6aKgXmXPs1DPuQQbEYf8NZUoa5M02VNeY8cq1JPys6DSyVFqmADuvJwU7JtGMhUv0ePfGWfwo7SBqqMTSeT+PV2fPNDLHa+vM+CwxB89lhyNJ0STdl+ZA3uIlk1i5JmsH6ue8nGNirySOqbpwxjCoo0Ih00mJWa7XkEd6auU9fCcvAlcbZVixxoagb+RG47nUSHwnPxp/SdiInJmDwecVe9WcnYpel1eKS1TLISyciMszt+Nfcs/jVyXnUKXVg6ygLtc7FU3HK5nUNdpmnJNV483bKZi+8xpkQwchdlksUovamVVz474JM78w49dxt/DzkpOoF1tgMNpYmafb/an08cBWlrqg6EXFGjnkSCb/vOg0Xom7jYoqS4cOQ5uApVBSb5TcAmha7biSI+DF5Gh8XnYLvOCiPHOSI6ys1ojly8yYvicW38rYjShZJbPE3MbqmL9TcVXxRmRW6vFPiZfw26KLnbSj1A3q0Tb1Q6ip/rivoQ+Hk5MyCcmL7S25nehAoP96bjgW16UhJs6CoHMlGdikLMXZinzIpn0I3c61jv5aXX0F3ibIPqMkJYUAceN8PBixDBPP1OLrhaFYUJXWLWGc93IqVZ9X3EJQxkE8dy8az2fsw8aDi7FviwLTFllZxHnpWgsWfdmMl/IiMKcqBYLejLZuQEL1JZSsrCCnVy8sLbIIRj68iRfvHseVtBZonJFRisNEhUq9UR5WQ9fSjnX5xfhKWgROVNdC6yVnlJTkzQeA/dPP4pWEpXi/MomZps55u746QULmekRRPYLSQhBCirDDSUaLqaIeMaPelCLt3lJJPTae6/3d3lMke/0C1vpdrupaUOdUdCdU3sFLhUdw8yGPoJZFE6G/cxf6fVugG0G9RjJ6nd4m+RHaIOxajfzhk7Bkgw2DM+/gu4VHGMsk88ptoC4TIvZ2RlbN3MK/OpKFjWFVGJO0F8/mHMLeh5WIOm5jGVnrt1qxOb2SeRNPNVWhpVlqYkMF4273Zvmcl1ijPUpG7ilm4vY7h+dyR3URnk0+gq2p1RB1jnFTV6cda8CtmAFlkxZ1GiPey7+Gv884jgZNW4f14Ho/sqZOXQXOjYrGwoMT8IPik7inVHYsvOu1BBLq5arQGPFW8i38ffpxZMg4aMiqot1P3ZPIZzThfcn09YM7u97f7T0V20cGs26N0gkWXdeG1uSyvJ5F2OdXpyGISjTJg0c9WSl5iN3QwZbcbu6ysN4+p6o1/vBuNH78DqbPt2PvRQE/KIzCX0ovo1bbwry0nr8jMVOiFvGL0lP4h4RLmL7BjNqkIqjHvY03buzBD0uJsAqoNGaQrjK4/CrTAXJVHEQ6FMnRVcDtvpSHSu2xyOt6M6lXrJlEI3lwv50TieEPUqGQS6YwcSN++XTW/0TLteFakwJfzwzH2LvZzOx1e76DTgSStGIgeNI1ZEwfjOcy92NDXW6HC931NwQSo8mGXAWP59OPYFx+CpRqh6/GkUpKJ1+wFIU+rI3rs5yik8o9WN20l/JQ4u4azohh5dfxcvFRBNGRG+q4i1KFPOkWfRwEq+2gXq/j3kH4QTkWLmvH9tJSBOUGY1d9YRexQ2yNFmVmdTK+nhWBz3bKERZthybmDFpH/gXJBVn4QdFxFlys51pwoqmShbbnV6UywHEurSfciECpejUyVvagunSh+7KHbkBPfqHXc+LxozsxyKjWgXJoiBvRkSmUZ6tuA5bVpuMr98NxKkvdLUgoiaekwY7jq5LRNPJv+PO9EPx36SVUa5s7dQ3HGAgk7RZgZVkunk2OREh+LURn/gnpI1nZTGlm5ZxeFtVt/t3Mq+MaZ+Obz96QaoO7yXelHJxkpRL/VBiNIIpmslOeHvXhFGu5HIPmKe8jK7EUc5a349wVAz6sTMS3844gXaV289wSSzvdVI3n80Mx/G46ps2x484DA/Srp7FqfF7VgiNNlXg+Jwz/WXQO38+Pwn8WnWVciZDuLBjvIm4I5Co9k9+sP0gvlTxS3DY+LEBQaigu1tWDpxM7qxokkJw4gjq9FT8uOY6fnL2BnFIp9bBjAVwWiJxiDZwVV8Lz0fjZJwi7dBDP5YciQd4giRGXa7WiCaLRhFeLLuIn9y+i6KFLYRmJuoPbWfJ1fxxwRDEnUujJUtOcP9UjpxV4M441VrjHbrxN1u/PqAHuvXsQJw2C5u5N7Dlix6oNNlyrUeLlwigMK0+SPJWckXGCMo0O/154Gr8qPYstoa1Ys9WOyswq6D9/g0VyKaObZPKB+mL8teQyXi++iDhZPeNIZLL1CBJ1M0tCpqLt3kal6ZnpTRxeuH8UE4qSoRRtUN+9w7opCrduIUJZhWcyDmN4dDmqq3qud1G1mJGWWI2az0YgM2IvflJ2DmMrbndErZ201eusuCI04PnMMIyNLYGWc+gJDsCLUz+Cds/G/ukBQ/dU6qRaKapA6KEJsKTEGvsRJMQW84sY4rn4C7ifZ2e5sFeuWbC5KRvP5RzCqprMjlTCyZV38fW8MIRXVGHJKhvCz7VDuHiMlUa6HrhEHKfJEYMgdzhxkR5BQkqdtg3cJinOQlaXr4JtJmIdYlbFG1DZYMSfb9/Bd3MjUUltL6LD2AkQqupG/K0qEV9LPI1dR1vRpDJ2n39CrnudCUU5StSPH4WGHbsxpj4FL+dHsWCa0zXA5L9owiJZKr5yJxJH4vUsQYoBSGeROk+PfYe1J+1tKYQThG6vNE91C+PW3DqKAVFD4u5jQPTbjgCf241cWKHfn5OCVSNjwTWquJO32LF1nxmrNltQ0WDAzOp7eCb7IEaUJ+G9sgQGmmUNaUi6bWHZV/dyrNCtnQV+0YQuhdiEaFJynWPpGSRS1JYitqzqz1dUmkxkFkCk83SllD+t1oINyVUISgnHnoYCtGxbhdZ5o3BLrcL3Co7il8GZOHfB6jWlwDlG9koOOc4EYdE4qJctQlSDAt/MD8fOugIQK6draF6Uz/FyaST+7/Fk5Ja4iBripqG7pcJzairsxdR2e56/60bRZGq1PuUjJnp83bf/QEIDpAzsGcNADe+VRrD0O0rzT7xhRiWvw4zKZPy88BR+WHAMm+tyoeQN2H/YjCWb2yEvLIMwfSirWe0p94KI4hMkZDJSVf/Yd6CorO9IWOpCUOJ+JeXg9m6G5vDejqbFlOwdl9KMv0+Iw7/kRKB0+QS0HtiByTUpLAg4ah2HOyne8066PKOlHcLq2SieMBP3ci34RdlpvFMazyK0zrD+zvp8BKWGYWpEI5pkElDZwsk4cMunSv1hfGXn+wsQuk5vgzouBjpqGVJW5dNx2r8goXae1ENtw0JQB6IGjQk7g81Yss7MNHoSGzlqDukqDTjRiMJyE+avsOBYHMBdvST12qD21j52jE+QUN3Q3TtSv3VHkXmXxSOAUFrBrOEsxZD6fJCZqSwqharVipw8C0bvlSMoKxqDTi/DlBth+GpRGP58Ph3L11lRXNkZVe5yb9cF09sg7FuP7I8nIvGyiDUN2fhmXjiuKxrRKthQqBbw09Lj+N75eEScdfG50Bwyc0DdnKnuuDdOwR7H4wAJmb/C6L+yfmq+7t3PILFKReZLp7LWnpoWE+48kJJ5r9+jE7ooo83EFFIqOrp83YSJc63ILdJD2LGMFRxRdyVfZrg/IFFm50pmcHKydwKLFnC71ktHxpaUsyIw6t7ILZ8OpUyLerUZG7ZaMDg0Dv/n3g58OzcM46puYc0uAzZ96eKydwWEt/cEksh9KPp0NEJ2KJDSJOKF/DC8W5rALL4xlbfw7IPD+GiTHCnpnRlzdDyM5uwJlmCurKzzudt9AsN1bGThUMNiKq+gGiIfHtz+BQlr7R0mtYN8WA2FzsJKDVZvM7PyUCoRYAk/rHrOgFVbLdgebENjRRN0Y9+W2jX54CJEDJ8goYz/oocQJg2GxtH4xo2IOisUpRVMf2Ldk8hXQD1FqAHdiD9Bu38L1G1WhEc0I2v4WKQGr8YlWRVSK/VYscGCo2ek1EW3e7ougut7Oini8jnUjfwY62aVIa3Yiv2NhfhWXgT+IT8Kz+QH49UzqVizwY7Sagd3YlaNdNgTt3KmI8GoUyfz67muY/D2Xk/tKEKYF5cdNOkECtGf9DTy0zhe+x0kJOuo+T6VH1A3aYqIXrsrlSDeSJbS4cgbSeWVVG12NdkGPvWOdL5uenqPuaBO4vgECdUO1cpZEbt29/quOgkF7E5Hg068UJI4IgLRwugcPeA+eQ3ak0dQHHIa6o//jKb4W2g2AffTTayQi8buTGByjqnbV3rWrSRwY97DrlnpiDgL5u4/0vAQH5YnIrSsCnNWmRB+3IWLkBFACUYj/yQdJf+oPixvICFxm5PH6qzVp49KhyZRHq5CgPrqFQgzPmFmsubc8X60bmgglGmf9oBlPrEMd72dcQ4qXFq1xYwNO80s+4oIum0fdSiyoEphhbB9mXTKQp3SJ+uj3/oECVkVvBEclVnOGeEubhxZZnQKmJZ6iLn2nyWgCCZoQ3ezpv2tg36JW5+vQuJtIwSDEScumjB9kQU1TT2bvm6AEcxQ5eSidcJfETbvNhZtAqtBJn8MVeTFJlgwZ7EVpZUuIswZdaaTN/zcOG7P9AYKr58ZWdkq68h05zZU1xNZuxFKPqe++dzGRRCGv9HPIKEdXFELcciv2fFrzl7nxE2u3jVi4mwLI3jsNakA+jwVQym1rEkvBbAoI92fyfoECRGEjhuhDgDj3pPKLAkA9DmJletXJSDf91KWys734aBKS4X81h2s/qIJUectrA53wSoza/Hgzxg7riFQ1srROvw13NwciynLgJirJvCtkj9m+SYzdh6wuPcnoUjt5qXScbKNA3jeMa0XHc22dAqE0W9C/PzP4L+YANWNJKltlrYN2kNf9jdIqNOfkp09QwXnTq2ZWDMVO1Om+oTZFvYXdtzMQKG+Gs/iPaq7t/2OPvsFErIOblxn3YaUdEACyVdHVRoRhZQ2OuzJqyVFcpkKn/R27AqzsZ4gh49LXCSjoLMqrgMIXnepI9WCwEknSXz2BrizUdgbZcfc5VLuaHCkmYnczAITTFbKjZH65MubNJIrYf8WyLvrptTTM3vzHSWLP6xmVg47E0ehk9aB6SZmKJS6fgYJ7RqZVjo08OAOaec6djDpIUWVBlxOMrIKMeovQnXE2r0bmZeV6o99WTXORfELJBTIon5uEwdBc/a4FKMg4FDHnzFvQ33xdI9xC3oWgTsp2cg8xyMmWXDgiImFFjyz7Z3j8vpK81eJrDUHf2g7SqqNWLbJijEzLAwgCTepu7VLpyMqSqOOluPeZYq0c6N5vXdvwNDTtQQIapHl1M1crxXN/Q0SKbhG7l5Wv6uWSiGcEySiU+chEj8K8m7WOI4EYf1F/T8vxy+Q0ESpJ8e0oexkKeexcHTKFJ3EzXqwOkWQK1E83pM+lVdmREyiETkl3VT3efzGOV/2Ss8gN/iKGexIGIWmGRWNJuZoTM2VUjM1HiDRHt7HuHFvNo7bM3saTx++61/rhgjCTkXYLSmMjqIqrxOgXZ2czPwAquT7HaLJ67UeE/MbJGR+bl4steqS8cy7KI55SzK1/WwuR1yDuCD99YqDOMdMNKFYEp2GumYOEz0U02H3pAIx3qWJDfkvWGPeyaDuCF5FofO+j/G1f0FClgc1vI85C/HTP3R/UCERjtpvRxyQQuB0IhexPD8n7jdI6Ay6WzeYU43qeLURB9gBQuSKZ34AP5/n77i6vY42Tvg+KZbE8m7ds8Gc6YtNZJYWlkIc/gdQR4LHImr8oEG/g4SSdKlOVRz+R6k5rzN5xnUwBBKljslpdgyKj2a1nsT3GySkI9EJ5FuWsuw7cr1TzxCmwNIYXMc0kO8poEanao4nS4vaiHcDEuo6RMVTo99izj5nJ4XHNs5uaND/ICFtOZf6eAzpPubQkR31B6gT43wqkJ5E8hskNGmqD6YDlSZ+wKr6esqf8HxOv/1PopXM7g9/AwVryOeeXe/kJFQ2QUeg0J/UjtR/7tpvY/UClP4HCdneNU2sJJIjE86bt5B1KA5hSmVfzqvtFUgck1Zm5wyMe9sLUbssGHHXlBSIH/7WcXaxF5CY7ZDJBFbaykpUe5lR1+WZ/ozLz2v6HyQORY2OHaHk4S6JMuSs0raywBK/ZnafWH9fQCL5SR6jiHFdAJ0Nyuw8JkbUt2500TUYJ7EAipRUiOPegSrpeq+569MFElJeqeH9gW0sDK/wPIqdWG96BsvOV7NjSP03fZ2E6BNIXBftcb+nPNmiMsmzfP6kd5C0A+qoMIm7llK9kLve4pz7/8Rr/3MSWgBKajl/ik2Y8jM6tXSqIbGw0g1qE6WgWE0fFMinDyQWlvxElXOa8AMu9JC8smrRhDaLHdq181lOi1cR/biB7fK8gQEJBfqomcw4OtIrqbOdJekrdUrmkeV2rPaZW9ndrnnqQELzbtKwnq7a7Su7gqTZCoOsCdycESy46Cszrzu6DNTnAwMS6okh41lMRmpnaZM4BoEnNRXiR7+V2jl5U2pdENzdpJ86kDBTXCeVV9L5vBRHcpmnuq0dprwM8J+/6Tg19ckRNTTOAQKJlO9Kp1mypBmKy7D4AHlAl4BfNI4dBu1JLFfC9fT+qQMJ09PapXP5pn7YxeJTNVthvHiU1QopWNT3yTB9nWswcCChnIi4GIif/QGK4ocsoqqoamTaOysnfQQT76kECaUu0CHOkwZJZQzO7H/BCKVKh5b1c6ElLuNH+qZz8R7X68CBhJxqhSUsb4O6KMpMgJodlfoeKP/0UZSzpxEk5ImmaDSrwaUW6M4wBOkr1Y3QjXgDzNrzEEWPCwg9PWfgQOJoR8FOwJ43CqqUVPBzRzoSb7s5u85FTvc06KcSJKSPPUjveuQacdxrCdIp7hmZfqVv9kSbgfhu4EBCCT4UYMvKBqUKip/9nh0koHqQ0UVx6+3EnkqQsLxVGUs81hwN7kwmoqY7dITsonFQ1jY9Uf4R57oE+d9vy3u/r55/b2e9vtpK8iGumom2kgKYrNTHrC/9vjqfTz3EzFapz5izR1nP4+j87f/sdXbo5o6AftdqR683O0xtRuhmDEVL8BYHXR6NNgMxv4HjJK6igxxmpJD1kxfxqeQkRA9HrQ+3dDLkdUqWVqGkDs+TBkG8cYW1FHXu3ifp9fGAhAjUB89qd4R6mkFCB0iJ49+HsqAYMiOgPh6O5gnvokWugIz8Ka6b6wl5//hA0o8TfppBwg5MHPoqa29OnFW7aTH0y6egzQopEbof6dRfgAuA5HEuCimvdUopE37bSqgePIAw5i0IpyMDIOkvRDvv89RyEgIkmbyx51hKJTXK4xeMgaauCW2WACfpV1n7VIPEocTTsXHC6LegTHsAdYvdvTjrcXI3P54VEDd+EMnJwfrtlY6yLSlnZZVUjtqRvug4LKHfntNPcwuApJ8I2euFJbc8c80HQNKvYsa5EE+1uPECygAn8UIU52L39TUAkl60dO8H+gfETT8Qsa9gd/4uwEkGYBECnCTASXzqMQGQBEASAMkAcF+naOvLa0AneQIWJKCTDMAiBMRNQNwExM0AbKy+iBnnb/4/5dbI7IuQ7coAAAAASUVORK5CYII=;imageBorder=#000000;" parent="1" vertex="1">
          <mxGeometry x="327.18" y="510" width="107.64" height="110" as="geometry" />
        </mxCell>
        <mxCell id="zyXjHvI1NbI1ozkS3pf7-40" value="&lt;span style=&quot;color: rgb(0 , 0 , 0) ; font-style: normal ; font-weight: 400 ; letter-spacing: normal ; text-align: left ; text-indent: 0px ; text-transform: none ; word-spacing: 0px ; background-color: rgb(255 , 255 , 255) ; display: inline ; float: none&quot;&gt;&lt;font face=&quot;Times New Roman&quot; style=&quot;font-size: 14px&quot;&gt;Extract rPPG signal&lt;/font&gt;&lt;/span&gt;" style="text;whiteSpace=wrap;html=1;" parent="1" vertex="1">
          <mxGeometry x="324" y="620" width="122.82" height="30" as="geometry" />
        </mxCell>
        <mxCell id="zyXjHvI1NbI1ozkS3pf7-42" value="" style="shape=image;verticalLabelPosition=bottom;labelBackgroundColor=#ffffff;verticalAlign=top;aspect=fixed;imageAspect=0;image=data:image/png,iVBORw0KGgoAAAANSUhEUgAAAMgAAADICAYAAACtWK6eAAAAAXNSR0IArs4c6QAAHlRJREFUeF7tXQmYHFW1Pqd6ZmIApSOoSFD0ueADnoqKyVMU/VBcEFeCAREQJUKSmXvvTAjIou0CSDIzde50BnEewhMFlwDu4L6i4gb4FBVXFNAnIIwiA8xM93nfxQ6v01Pddau7qpfMud83X75M/ffcc/6qf6rudi6CFGFAGKjLAAo3woAwUJ8BEYg8HcJAAwZEIPJ4CAMiEHkGhIHmGJA3SHO8Sa1FwkDXCURr/QRmPggRb10k92DRh8nMuzDzXgMDA1eOjo7e3k2EdI1AtNZnAcAwAOS7iSDxJVsGmBkQt3sMbwmC4APj4+PnZtuyn/WuEIhS6gOIeJKfy4LaERiIEEZtWEUiGup0rB0XiFJqBSJe22kipP3uYwARV4Rh+MNOetYNArkUEY/uJAnSdncygIhXhGF4RCe966hAtNaHAcDnO0mAtN3VDNxZKpX2LRaLd3TKy04L5IsA8LJOBS/t9gQD7yWid3bK044JRCl1LCJ+2CdwN8rhOnVSFiUD00EQrBgfH/91J6LviEAKhULf9PS065g/2yNoZubrEPEeD6xAeoQBZn4qIu7p4y4ibgnDcNAHmzamIwLRWrv5jjHPYCaJaL0nVmA9wsDQ0ND+QRD8AAB28nGZmVdaax2+raXtAlm7du0eAwMD7u2xt0ekM7lc7sCxsbFfeGAF0mMMKKU2IeIpnm5fSkTHeGJTg7VdIMaYs5n5dJ8ImHnMWrvBByuY3mNgaGjo8blc7gfMvIeP94j4ijAM3cBO20pbBWKM2Y+Z3dtjF48I70LEA8Mw/L0HViA9yoBS6kxEfK+P+4h4VRiGbmqgbaWtAtFafxAA1nhGdzYRnemJFViPMnDyyScvW7JkietbPMUzhKOJ6GOe2JZhbROIMeZgZv6mj8fM/OclS5YcuGnTpj/74AXT2wwYYxQzk2cU3yei53liW4a1TSBa6ysA4PWeHp9JRGc7rNZ6uwkQImqbz56+CsyTAa31NwDgRVXwFxPRN1etWpVbvny5W3P1LE9T64lo0hPbEqwtD5vW2gnDCcSn/L7S97hLBOJDV+9g6gnERWCMeQszX+QTDSL+6t577105NTX1dx98K5h2CcR9Wh3s4ygibgjD8KE5EnmD+LDWG5hGAqn8Max9w9QNjJnPsta+L+vIMxeI1tp1yl3n3KfcODMz89ypqamZbWARiA9tvYHxEIhbubvVM5q/AsBKIrrZE98ULFOBrF27dpfKpOB+nt4t+LYUgXgy1wOwOIFU3iKfBYDDPcMZJ6IRT2xTsEwFopQ6HREf7Gx7lJ/k8/nnFgqFcjVWBOLBXI9AfAQyPDz8qnK5/DmfkBBxdn5+fmWxWLzeB98MJjOBjIyM7F0ul69NMEt6VBiGH68NQgTSzG3tzjo+Akn6FmHmi621J2QVcWYC0Vq7jrZblBhbmPlT1trIIWARSCx9PQPwFYgx5uXMfHWCwA4hoq8nwHtDMxHI0NDQs4MgcEtK+jw9qRugCMSTwR6A+Qqk8ha5BADe7BnWp4nodZ7YRLBMBKK1dhuhjvXxBBEvDsOw7itSBOLDYm9gkgjEGPOcyrq9nE90zHyEtdZ3rs3H5IOY1AWilHoZIvquuJwHgBVEdF09j0Ug3vey64FJBOKCUUqNI6LxDOxbRFQ9S+9ZrTEsdYForV0SBt8Vl0REDQkQgaRyn7vCSFKBJB3oAYATiejCNINNVSDGmKOZ+VIfB5n5b+VyeUWxWPxdI7wIxIfN3sAkFUilL/IOADjHM8L/yefzKwqFwv2e+FhYqgLRWruO+YrYVv8FKBDRu+OwIpA4hnrnejMC2bBhw87z8/PuudrfJ1Jm3mit3eyD9cGkJhCl1BAiWp9GAeB3c3NzKyYnJ/8Wh9dav6sa4yOqOJtyvTMM1N5LAHD9htgtEEqpExFxytPrWyr92r944hvCUhHIyMjI7k7liPgkT6eM63x4YgUmDLjVvl9n5hd7UnEuEXlt646zl4pAjDHvZmbf5F7XVb4T3QiWFGHAiwGt9WsB4FNeYIB/5nK5FWkk+2hZIEqpfSrJp72OLSiXyydMTExc7BmowISBhxgwxnySmVf5UMLMF1hrT/bBNsKkIZBJRFzr6cjXiegQT6zAhIHtGBgaGjooCILvJKDlICL6bgL8AmhLAtFaPx8ArknggMtQMgcAOyPizu5fZh5IUF+gi4uBEgDcW/2DiI/xXQALAJ8gotWtUNaqQD4BAEe24oDUFQayZICZD7fWNn2CQNMCUUq9GhE/k2VwYlsYSIGBLxNR0ycINC0QY8xXmdmrPyHZ2VO4zWKiFQaOJaKPNGOgKYFord3q2w8106DUEQbSYCDhH90f5fP5lbW7VX38SCyQ448//mH5fN5N/T/DpwHBCAPdwAAzK2vtRFJfEgtEa70RAM7zacjjJFMfM4IRBtJg4Oa5ubnn+Cxvqm4skUA2btz48NnZ2d8AwGPS8FhsCANtZsBrgWzTApGRqzbfTmkulgH3lRIEge8RfXcR0W6xRqsAid4gxpgbmXlfnwaqOlE3u62TLl0kAPwWAG7O5XJ3l0qlu/P5/N1prt338UswvcVAoVB42PT09LJcLresVCotA4AnAMCTmflpiLiy8n/voJj5HGvtGb4VvAWilHohIn7L1zAzX4WIW/v6+raOjo662VApwkCqDFT2iqxi5iPd4Tqexn9JRF5/5J29JAKZCoLgRJ/TZt3ptWEYHu/psMCEgZYZSLjV+xgi8tr56iUQY4x7pf3U58BFZj7PWntayxGLAWEgIQNKqU8iYuxqX0T8WhiGL/Ex7yWQyk6wQiODlT7Ht4nIK4u7j3MOIzsKfZnqflyzOwqTRGaM+aXrn9TWqZ1YRMTXhmEYu1TKVyBfAYDtFBcxx3FXqVR6RrFYvDVJQHFY2ZMex1DvXG9mT3rS6AYHB/fq6+v7KTM/MqbuRUT01jj7sQIxxix1GUgAYGkjY8x8vrV2XVyDSa+LQJIy1r34dgik6quj4RcPANxERAveNAvePHF0GmMOZeYvxeEA4MHjtDxwiSAikER0dTW4jQJ5LAD8GAD2jPmj/jRr7U0Nuw5xjGqt3wMAZ8XgfkNET42z1cx1EUgzrHVnnXYJxEXvuT03NtFc7CdWRFBR7H+SiN6YxW0RgWTBamdstlkg72fmU2MivYSIjmv1DeJOHz0wpqHM0viIQDrzMGfRajsForV283ANk4Mw8/estW7beN0S+wbxXF7S8ub4eh6KQLJ4VDtjs80C8cmXcAMRHdCqQNxaqr0bGcnlcvulkYMoqg0RSGce5ixabadARkZG9i2VSje22neOfYMope5ExLgVkHsSUSqpHmsDEoFk8ah2xmY7BaK1diNZf46J9DYi2qulN4hS6j5EfFgjI/l8fmlWq3JFIJ15mLNotZ0CqawCvi8mjmkiciuEm++D1D6gUZaIKPZN1CzhIpBmmeu+eu0UiIve49mdI6KGedliH2yPRkAE0n0PYzd61IUCiX12RSDd+CTtoD6JQDK4sfKJlQGpHTIpAsmAeBFIBqR2yKQIJAPiRSAZkNohkyKQDIgXgWRAaodMikAyIF4EkgGpHTIpAsmAeBFIBqR2yKQIJAPiRSAZkNohkyKQDIgXgWRAaodMtiNpQ3VoaUxyy0Rhhx4WaTZ7BkQg2XMsLfQwAyKQHr554nr2DIhAsudYWuhhBkQgPXzzxPXsGRCBZM+xtJAiA8aYl4dh+MUUTTY0JQJpF9PSTssMKKXWIuKjiOjdLRvzNCAC8SRKYJ1lQCk1iogjAJD4CLRWPBeBtMKe1G0LA1rrKwDg9ZXGRCBpsy4z6Wkz2h5769at262/v/+rAPDMqhZFIGnTLwJJm9Hs7SmlDgyC4EvMXJsxRASSNv0ikLQZzdaeUuqNiPjxOq2IQNKmXwSSNqPZ2TPGnMbM5zZoQQSSNv0ikLQZzcaeMWaKmU+MsS4CSZt+EUjajKZvTyn1VUQ8xMOyCMSDpEQQEUgiutoKNsb8GzNfBQD7eDYsAvEkyhsmAvGmqq1AY8xLmNnNcTzCs+HY05w87XjDZKLQmyoBpsnA8PDwieVyecrT5u2IeFw712Bt80sE4nmHBJYeA0qpcxHxNE+L15XL5eMmJiZ+7olPFSYCSZVOMRbHgNb6EwBwZByucv2zAHAcEU174lOHiUBSp1QMRjFw6qmn7vrAAw98DgBe4MMQIp4fhuG6WqwkbfBhLyFGOukJCUsZPjg4eEAul/skADzZxzQzn2GtPScKK2l/fBhMiBGBJCQsRbjW2q3CvQQAdvYwO8fMb7PWOnxkEYF4sJgUIgJJylg6eK31BgDY7GntTwDwFiL6eiO8CMSTzSQwEUgSttLBaq23AMCCPkSUdWa+NpfLHTc+Pv7ruNZFIHEMNXFdBNIEaS1UMcZczsxv8DRxeV9f3/Gjo6P3+uBFID4sJcSIQBIS1iR8eHj4ccz8cWZ+nqcJS0TaE/sgTASShC1PbK8KxB1DXCgUHgAA9gy1YzBjzMHlcvliRHyipxOnENGoJ/YhmAgkKWMe+F4USOUQ+w8CwAO33Xbb6q1bt5Y8Qu0IxBjzFmaeBIClHg7cg4hrwjCstyGqoQkRiAfDSSG9JpDBwcF9c7mcE8dBlVivnJmZWT01NTWXNPas8UqpdyKibxqemxDxxDAMv9OsXyKQZplrUK+XBDI8PPy8yiK+/WpC+nSpVFpdLBbdJ1dXFK31+QBwso8ziPiNubm5t27ZsuUPPvh6GBFIK+zVqdsrAtFaHwYA7s2xvE4on52ZmTlqampqJgOavE0WCoWdpqenLwWA1/pUYubL7rvvvuPTeAOKQHwYT4jpBYEopY5BRLf8O+47/guzs7Orzz///H8mpCEV+NDQ0P5BEFwIACt8DCLi5jAMN/pgfTAiEB+WEmK6XSBa60EAmEgQ1tWVz61/JKjTMlQp9eogCCaYeW8fY8ysrLVJ4oo1KwKJpSg5oJsForU+CwDekzwq+BIArG7XUnBjzEnMbAFgwMPX213fhIiu9MAmgohAEtHlB+5WgSilxhHR+EURifoKIq4Ow/CuFmzEVtVaFwDgXbHAfwFuYOaTrLU/8MQngolAEtHlB+42gaxZs6Z/p512cv2N4/0iqI9CxK8FQbB6bGzszlZtRdXXWrtBgzWetq+uDOPe5olPDBOBJKYsvkI3CWTDhg2Pnp+fdw9d7AgQM/8EEZcAwP6NonRDqOVy+Shr7V/j2fBDVE1UHu5TAxE/FIbh23ywrWBEIK2wV6dutwhEKbUPIjpxHOwRpvt8ct/9TiBu1vnpMXW+XemT/MXDdkOI1vo/AcD1Nw70scXM77PWur5U5kUEkgHF3SAQpdQKRHTDow3fBpXw3b7tk7Z1wCvCciKpznK+gClmvsZ9boVh2PQnTmWDkxPHXnG3AhFnmVkT0QfisGldF4GkxWSVnU4LxB0bxswfAoA948Jj5gustQtmp4eGhp4SBIETybMa2WDm7+VyudXj4+O3xLVVe90Ys5aZ3bBszqPuHxFxMAxDt8+8bUUEkgHVnRSI1vooRLyImR8WFxozn2OtPaMebnBw8Em5XM6J5DkxIrm2r6/Pddz/GNfmtuvGmPcy85me+O+XSqV1xWLxek98ajARSGpU/r+hTgmkcqaeW+UaWxBxQxiGY3HA9evXP7Gvr8+J5Lkx2B86kYyOjjZc+1QoFAbuvvvu8xHxrXFtV65fWSqVTioWi3d44lOFiUBSpfNfxjohEGPM6cx8tk84iHhCGIYX+2AdZt26dXv39/d/DABcZ7pR+XF/f//qzZs3/y4KVHkjuf6GWwMWWxBxSxiGbta/Y0UEkgH17RaI1tolKnAJC+LKPQBwLBF9Og5Ye33jxo17zc7OujfJ82PqXjc3N3fU5OTkdvu9h4aGDgqCwImjYZ9mm+1GqXiS+t4KXgTSCnt16rZLIIVCIZienv4vADjBI4zfMfMJ1lo3PNtU2bhx454VkcQlY/vp/Pz86i1btvzKNaS1PqKy9uuxHg279V6KiP7bA5s5RASSAcXtEEjlwEk3jBs7AQgA3y+Xy2vSyDd7yimn7DE3N+feJHFzKz9zCxxzuZw7g8O9OTCOamZ2gtLWWrfuqyuKCCSD25C1QIwxT64M474wzn1E/Lyb42hlrqK2DTc770SCiC+Oaf9GAKjdiBVZhZm/EQSBG8Z1dbqmiEAyuBVZCsSdxoqIroPt8+Bd4mbHwzC8L+0wR0ZGdp+fn3ci8TmlKa55txlqfbtWCsc5U31dBJKELU9sVgJRSr0UET8MAD7f8olT3HiG9xDMGPPIcrnsRPLSpHW34dPe4NSsH/XqiUDSZjSjYV5jzJHM/BGf/RHM/C5rbTN7PhKzobXOI+LHmPnlSSsj4nAYhmHSeu3Ei0AyYDvtN4hS6u2IeIGPq5XlGC4NZ9vKxo0bH+76JMz8Ss9G/1rZ/efWgHV1EYFkcHvSFIjW+h0AEJmaP8L1Y4jIfc+3vWzYsGHnUqnkRPKqRo0j4vXlctmNVDU93NzO4EQgGbCdlkCUUqOIOOLp4iuJ6GpPbCYwY8xSlwoUAF4d1YA7XTYIAhWG4W8zcSADoyKQbEjdLnUnEcXOAdS6oZS6CBHf4uHe7cz86qy2nHq0vx1kcHBwSWWBY+38zIUzMzOq0ymEksYjAknKmAe+9tguIvLNBOhmnfMA4GaRX+PR1M/m5uaOqF3W4VEvU0hli697k7jDbFx5LxG9M9NGMzIuAsmI2GbMupWzuVzOzV1sSwFa10zWe8Ob8b+6zqpVq3LLly93Q8BfC8PQa4Ch1TazqC8CyYLVJmxqrZ+FiB9h5n09qn8sn88fUygUyh5YgbTAgAikBfLSqjo8PHwIM3+UmffwsJn5BKCHD4sGIgLp8K2uTAB+FAD641xBxDPCMPQd8o0zJ9c9GBCBeJCUFaSSPdArAUEQBGvGx8fd0nYpbWRABNJGsqubSrIDEABWEdHlHXJ1UTcrAunA7ddau73gw55NHxJ3VLGnHYE1wYAIpAnSWqmitXZL1X1SgLozOZ5PRDe00p7UbY0BEUhr/HnXdgv6ZmdnXWc8chlGjaGb5+bmXjQ5OemdRsfbEQEmYkBr7VINVSfQezERfTORkQTg2mVKUVXjVmbELttIo5EEMcVCtdZPAAAnjriEB87WDwcGBl6yadMml2DBzay/CAC+EduIANrFgAgkbaYjXtORTbjtsWEYbpe8WQSS9t1o2Z4IpGUKawx4CuQiIlqQTE0EkvbdaNmeCKRlChMKhJnfb611+z4WlIpAfA+TSdv1xWzPpVvdpZYAZg6ttb4jkIn5S6N70It9ENeHcH2JBYWZh621Xb3tNPFd3gEquBzHAHBZRCg3IuLL0swSU92GCGR7xju2A3AHeIYzD8EY87moHZKN3vitOiUCqTDIzIdaa7/SKqFSPzsGhoeHn1cul78b0YI7EvtQIvp+2q2LQACgVCo9s1gs/jRtcsVe+gxorV0CjHW1lhHxsjAM35R2i4tdIHf29/f/x+bNm/83bWLFXjYMrF27do/+/v5fIOKyCJEcFYah2zmZWlm0AkHER++6664HFAqF2dTYFENtYcAYcwozb4po7LtLliw57Lzzzvt7Wo4sWoEQUVwe27Q4FjsZMBCx5OTBVpj5NGvteWk1ucMIRCl1LCK+fH5+/j3b0vynRZLY6T4GlFJvRMSoz6lby+XyK9LInO+i3iEEYoxZzsyfrRwG809mLixbtqwon0/d92Cn6ZEx5tPMvCDbDCKeH4bhgo58M23vKALZxMynVBNQSd9fDMPwU80QI3W6nwFjzHOY+Ud1PE0lcV/PC0Qp9TJE/AwALKkh6p5SqbRvsVi8tftvtXjYLANaa3dsddS5iV+47bbbXrN169ZSs7Z7/hOrkhDNieMVtSRUkjE78qTswAy4Z2Dp0qV/QcTdIp6Bk6y1H2wl/J5+gxhjRph5NIKAb8ooVSuPRW/VbfAc/BwADieim5uNqGcFMjg4eEAul3Onwz4+IviDiChqSUKzPEm9LmdAa/2TOif2nktEpzfrfs8KpMFe8nEi8s3A3ixvUq/LGNBau+TcUQMy9yDiYWEYfqcZl3tSIFrrNwPAJREB/ymfz+9TKBTub4YMqdPbDCilrkTE10VEcSkRHdNMdD0nkPXr1+/Z19fnOuZuA812hZnfZK2N2jPQDDdSp8cY2LBhwxPn5+d/H+U2Ir4pDMPEz0bPCURr7ZYRbIwg4XIiWtVj91TcTZkBrbXb7KYjzF6Ty+VeNzY2dmeSJntKIMaYQ5n5SgDYOeLt8TRr7U1JghfsjsmA1vqvAPDoiGck8TqtnhFI5XwL92l1WMRtPZ2Izt0xb7dElZQBrbWbOIyaA7ulVCq9plgsutxaXqVnBKK1dhvzXYrQ2vIzInq6V7QCWjQMaK1/CAAHRgQ8SUTrfYnoCYEMDw8/o1QqfQoRn1gbWGXD/pd9Axbc4mDAGPMCZo48udctcLTWusWtsaUnBKK1/hAAnBDxTXmBtfbk2CgFsCgZUEpdjohviPij+vn5+fkjisXiA3HEtEsgbsFY0MiZevlNtdZun7FLE7qgzM3N7T45Ofm3uCDl+uJkYHBw8BG5XK7e7sL1RDQZx0y7BOLy2i5I+lXtXJRAtNaPdaNWiLgyIpATiejCuADl+uJmoMG0wM/K5fIbJiYmftOIoXYJJHLYrdqxfD7fXygU5qt/p7V2x5tFZTi8hohesLhvvUTvy4BSyq32XXDeJCKeF4bhafXsFAqFvunp6bmYdu4looZ//H0yK/4BAFxG9bqlVCo9ulgs3rENoJR6aRAEW5l514hKzyai63wJEtziZkApdTQiXhrBwj8A4HX1DkQaHBx8VC6Xuz2GvTuIaMGcS3WdWIEYY26MO045CIJ9xsfHf+0MFwqFYHp62k0IRm2nPCcMwzMW9y2X6JMyoLW+FgBW1NZrlE9reHj4qeVyOW7y+WYiWjC6mkggWmu3LXLB2qlqI8y80lr7A/c7rbVbKhCVH/ceInpEUnIELwyMjIzsWyqVboxiAhGPD8Pww7XXlFIrENEJq1G5kYj2bwSIfYNord14dMM+QxAER4yPj1+hlHp65dPqqRGNuteh2wMiRRhIzIAx5lJmPjqi4nf6+/uPrE0g2GgEtcrGj4joua0KxG17XBMT0ZlEdLbWuh72C0T0qsSsSAVhoIqBeqNSzHyWtfZ91WQ12O9eDYvdverzBnHiaLg3mJkvcyc61UlxD+Vyee+JiYk/yd0WBlphQGvtVoJHJZb7EzMfYa19KEtKvX5LTddggbBq/YsVSIOs3NW23FDcH11fJIKAU4koKtVkK1xJ3UXKgNbaZbpZHhH+FBG93f2+UZ+lRiAHW2sjl7Rsw8UKRGudB4C7m7wftxLR45qsK9WEgQUMVFJFfTGKmspb5AqttTtFrBBD30w+n98tbgdrrEBcI/Vyqcbdv1wu94KxsbFr4nByXRhIwkCDgaOrZ2dnjxwYGHCjV/vF2LyaiF4Z166XQIwxZzNzouwSWZ35EBeQXN/xGXDHKAwMDPylzlvk2jrLm2rhBSJ6dxxbXgLRWv87ANwAAANxBrddn5mZ2XlqamrGFy84YSAJA56jVPVMlnK53P5jY2O/imvTSyDOiDHmQmZecLRyHRVfZq1N/cSguGDk+uJiwGcxYqvPp7dAkp4xzsxXIeLWvr6+raOjo/curlsn0baDAWPMWmZesOwdEd1ZI3VdSLLpylsglc66S+7lknwlKS515LcQ8Xpm/hYRuU81KcJAUwxorZ+JiAcz8wEA4P59ghNEghI7e15tK5HlyviySwvqhn6bLW5ZvBs23vZzX7OGpN6iYGApALgzDbf99LUSdblcPmxiYuIqXxuJBOKMGmPeysyy2cmXYcF1EwNeI1dNv0G2VVRKXYiIXh32bmJHfFm8DDDzx621RyVlIPEbZFsDDRJQJ/VB8MJA1gx8gIjWNtNI0wJxjWmtnSIT50xtxlGpIwwkZQAR7y6Xy2+01n4lad1t+JYEUhHJiyqrfaP2gDTrl9QTBlpl4MogCPT4+PgtrRhqWSCucbf/t6+v7w3M7PIYvaQVh6SuMNAKA66vEQTBxWEYppKQMBWBVAc0PDy80qVkAYBDAUDSirZyt6WuFwPM/AdE/Fq5XL54YmLie16VPEGpC6S63dNOO23Z/fff/wxmdltxn87MTwOA3QHAHdro/pUiDPgy4FL4uCwldyDirczskljf0NfXd/3o6KjLvJNJyVQgcR6PjIzsPj8/vxsiOrH0x+Hl+uJiIAiC2fn5+TuCIHDpeaY7EX1HBdKJgKVNYSAJAyKQJGwJdtExIAJZdLdcAk7CgAgkCVuCXXQMiEAW3S2XgJMwIAJJwpZgFx0D/wcLbA65H4ssWAAAAABJRU5ErkJggg==;" parent="1" vertex="1">
          <mxGeometry x="560" y="527.5" width="85" height="85" as="geometry" />
        </mxCell>
        <mxCell id="zyXjHvI1NbI1ozkS3pf7-44" value="&lt;font face=&quot;Times New Roman&quot; style=&quot;font-size: 14px&quot;&gt;Signal Mapping&lt;br&gt;Model&lt;/font&gt;" style="text;whiteSpace=wrap;html=1;" parent="1" vertex="1">
          <mxGeometry x="645" y="550" width="120" height="50" as="geometry" />
        </mxCell>
        <mxCell id="zyXjHvI1NbI1ozkS3pf7-49" value="" style="endArrow=classic;html=1;" parent="1" edge="1">
          <mxGeometry width="50" height="50" relative="1" as="geometry">
            <mxPoint x="140" y="680" as="sourcePoint" />
            <mxPoint x="140.19" y="703.44" as="targetPoint" />
          </mxGeometry>
        </mxCell>
        <mxCell id="zyXjHvI1NbI1ozkS3pf7-50" value="&lt;font style=&quot;font-size: 14px&quot; face=&quot;Times New Roman&quot;&gt;Malicious access&lt;/font&gt;" style="text;whiteSpace=wrap;html=1;" parent="1" vertex="1">
          <mxGeometry x="630" y="620" width="112" height="30" as="geometry" />
        </mxCell>
        <mxCell id="Z7BHnqvM1VSkCTvPUwM1-2" value="" style="shape=flexArrow;endArrow=classic;html=1;endWidth=7.619047619047619;endSize=5.333333333333333;fillColor=#fff2cc;strokeColor=#d6b656;" parent="1" edge="1">
          <mxGeometry width="50" height="50" relative="1" as="geometry">
            <mxPoint x="448.75" y="564.17" as="sourcePoint" />
            <mxPoint x="540" y="564.17" as="targetPoint" />
          </mxGeometry>
        </mxCell>
        <mxCell id="Z7BHnqvM1VSkCTvPUwM1-4" value="" style="shape=flexArrow;endArrow=classic;html=1;endWidth=7.619047619047619;endSize=5.333333333333333;fillColor=#fff2cc;strokeColor=#d6b656;" parent="1" edge="1">
          <mxGeometry width="50" height="50" relative="1" as="geometry">
            <mxPoint x="223.38" y="747.62" as="sourcePoint" />
            <mxPoint x="300" y="747" as="targetPoint" />
          </mxGeometry>
        </mxCell>
        <mxCell id="Z7BHnqvM1VSkCTvPUwM1-6" value="&lt;div style=&quot;text-align: left&quot;&gt;&lt;font face=&quot;Times New Roman&quot; style=&quot;font-size: 14px&quot;&gt;User / Non-User&lt;/font&gt;&lt;br&gt;&lt;/div&gt;" style="text;html=1;strokeColor=none;fillColor=none;align=center;verticalAlign=middle;whiteSpace=wrap;rounded=0;" parent="1" vertex="1">
          <mxGeometry x="664.69" y="737.88" width="110" height="20" as="geometry" />
        </mxCell>
        <mxCell id="Z7BHnqvM1VSkCTvPUwM1-7" style="edgeStyle=orthogonalEdgeStyle;rounded=0;orthogonalLoop=1;jettySize=auto;html=1;exitX=0.5;exitY=1;exitDx=0;exitDy=0;" parent="1" source="zyXjHvI1NbI1ozkS3pf7-24" target="zyXjHvI1NbI1ozkS3pf7-24" edge="1">
          <mxGeometry relative="1" as="geometry" />
        </mxCell>
        <mxCell id="Z7BHnqvM1VSkCTvPUwM1-3" value="" style="shape=flexArrow;endArrow=classic;html=1;endWidth=7.619047619047619;endSize=5.333333333333333;fillColor=#fff2cc;strokeColor=#d6b656;" parent="1" edge="1">
          <mxGeometry width="50" height="50" relative="1" as="geometry">
            <mxPoint x="602.08" y="622.2500000000001" as="sourcePoint" />
            <mxPoint x="602" y="680" as="targetPoint" />
          </mxGeometry>
        </mxCell>
        <mxCell id="Z7BHnqvM1VSkCTvPUwM1-9" value="" style="shape=flexArrow;endArrow=classic;html=1;endWidth=7.619047619047619;endSize=5.333333333333333;fillColor=#fff2cc;strokeColor=#d6b656;" parent="1" edge="1">
          <mxGeometry width="50" height="50" relative="1" as="geometry">
            <mxPoint x="446.82000000000005" y="747.62" as="sourcePoint" />
            <mxPoint x="530" y="747" as="targetPoint" />
          </mxGeometry>
        </mxCell>
        <mxCell id="UpGFyyF5I9VEiI97oUs6-1" value="" style="rounded=1;whiteSpace=wrap;html=1;fillColor=none;strokeColor=#FF8629;strokeWidth=2;" vertex="1" parent="1">
          <mxGeometry x="93" y="524" width="50" height="55" as="geometry" />
        </mxCell>
        <mxCell id="UpGFyyF5I9VEiI97oUs6-2" value="" style="endArrow=classic;html=1;rounded=0;" edge="1" parent="1">
          <mxGeometry width="50" height="50" relative="1" as="geometry">
            <mxPoint x="200" y="540" as="sourcePoint" />
            <mxPoint x="143" y="540" as="targetPoint" />
          </mxGeometry>
        </mxCell>
        <mxCell id="UpGFyyF5I9VEiI97oUs6-3" value="&lt;font face=&quot;Times New Roman&quot;&gt;&lt;span style=&quot;font-size: 14px&quot;&gt;Face detection&lt;/span&gt;&lt;/font&gt;" style="text;html=1;strokeColor=none;fillColor=none;align=center;verticalAlign=middle;whiteSpace=wrap;rounded=0;" vertex="1" parent="1">
          <mxGeometry x="204" y="529" width="90" height="20" as="geometry" />
        </mxCell>
      </root>
    </mxGraphModel>
  </diagram>
</mxfile>
